<?xml version='1.0' encoding='UTF-8'?>
<svg xmlns="http://www.w3.org/2000/svg" xmlns:inkscape="http://www.inkscape.org/namespaces/inkscape" width="400" height="250" viewBox="0 0 400 250" version="1.1">
  <defs>
    <linearGradient id="dp-sky" x1="0" y1="0" x2="0" y2="1">
      <stop offset="0" stop-color="#d9eef8" />
      <stop offset="1" stop-color="#f9e5cf" />
    </linearGradient>
    <filter id="dp-shadow" x="-30%" y="-30%" width="160%" height="170%">
      <feGaussianBlur stdDeviation="2.3" />
    </filter>
    <linearGradient id="cv-problem-sky" x1="0" y1="0" x2="0" y2="1">
      <stop offset="0" stop-color="#91cff0" />
      <stop offset="0.58" stop-color="#d9eef8" />
      <stop offset="1" stop-color="#f9e5cf" />
    </linearGradient>
  </defs>
  <g inkscape:groupmode="layer" inkscape:label="01 Cloud Village problem sky" id="cv-problem-01-layer">
    <rect width="400" height="250" fill="url(#cv-problem-sky)" />
    <circle cx="68" cy="43" r="27" fill="#ffe39a" opacity="0.38" />
    <circle cx="68" cy="43" r="15" fill="#fff5ca" />
    <g transform="translate(128 69) scale(0.48)" opacity="0.55">
      <ellipse cx="0" cy="0" rx="35" ry="14" fill="#fffdf8" stroke="#3a2461" stroke-width="2.4" />
      <circle cx="-20" cy="-8" r="16" fill="#fffdf8" stroke="#3a2461" stroke-width="2.4" />
      <circle cx="2" cy="-14" r="22" fill="#fffdf8" stroke="#3a2461" stroke-width="2.4" />
      <circle cx="24" cy="-7" r="15" fill="#fffdf8" stroke="#3a2461" stroke-width="2.4" />
      <path d="M-31 6 Q0 25 31 6" fill="#b9d9ee" opacity="0.58" />
    </g>
    <g transform="translate(310 85) scale(0.4)" opacity="0.45">
      <ellipse cx="0" cy="0" rx="35" ry="14" fill="#fffdf8" stroke="#3a2461" stroke-width="2.4" />
      <circle cx="-20" cy="-8" r="16" fill="#fffdf8" stroke="#3a2461" stroke-width="2.4" />
      <circle cx="2" cy="-14" r="22" fill="#fffdf8" stroke="#3a2461" stroke-width="2.4" />
      <circle cx="24" cy="-7" r="15" fill="#fffdf8" stroke="#3a2461" stroke-width="2.4" />
      <path d="M-31 6 Q0 25 31 6" fill="#b9d9ee" opacity="0.58" />
    </g>
    <g fill="#fff7ca" stroke="#3a2461" stroke-width="1.2" opacity="0.85">
      <path d="M164 42 l3 7 7 3-7 3-3 7-3-7-7-3 7-3Z" />
      <path d="M246 72 l2 5 5 2-5 2-2 5-2-5-5-2 5-2Z" />
      <path d="M364 34 l2 5 5 2-5 2-2 5-2-5-5-2 5-2Z" />
    </g>
  </g>
  <g inkscape:groupmode="layer" inkscape:label="02 floating village depth" id="cv-problem-02-layer">
    <g transform="translate(62 132) scale(0.72)" opacity="0.78">
      <ellipse cx="0" cy="0" rx="35" ry="14" fill="#fffdf8" stroke="#3a2461" stroke-width="2.4" />
      <circle cx="-20" cy="-8" r="16" fill="#fffdf8" stroke="#3a2461" stroke-width="2.4" />
      <circle cx="2" cy="-14" r="22" fill="#fffdf8" stroke="#3a2461" stroke-width="2.4" />
      <circle cx="24" cy="-7" r="15" fill="#fffdf8" stroke="#3a2461" stroke-width="2.4" />
      <path d="M-31 6 Q0 25 31 6" fill="#b9d9ee" opacity="0.58" />
    </g>
    <g transform="translate(62 125) scale(0.72)">
      <rect x="-19" y="-34" width="38" height="35" rx="12" fill="#f4b5c9" stroke="#3a2461" stroke-width="2.5" />
      <path d="M-24 -31 Q0 -55 24 -31 Q11 -36 0 -34 Q-11 -36 -24 -31Z" fill="#d887b1" stroke="#3a2461" stroke-width="2.4" />
      <rect x="-5" y="-16" width="10" height="17" rx="5" fill="#75558f" />
      <circle cx="2" cy="-8" r="1.4" fill="#ffe493" />
      <rect x="-14" y="-25" width="8" height="8" rx="3" fill="#fff4b8" stroke="#3a2461" stroke-width="1.4" />
      <rect x="7" y="-25" width="8" height="8" rx="3" fill="#fff4b8" stroke="#3a2461" stroke-width="1.4" />
    </g>
    <g transform="translate(337 120) scale(0.68)" opacity="0.72">
      <ellipse cx="0" cy="0" rx="35" ry="14" fill="#fffdf8" stroke="#3a2461" stroke-width="2.4" />
      <circle cx="-20" cy="-8" r="16" fill="#fffdf8" stroke="#3a2461" stroke-width="2.4" />
      <circle cx="2" cy="-14" r="22" fill="#fffdf8" stroke="#3a2461" stroke-width="2.4" />
      <circle cx="24" cy="-7" r="15" fill="#fffdf8" stroke="#3a2461" stroke-width="2.4" />
      <path d="M-31 6 Q0 25 31 6" fill="#b9d9ee" opacity="0.58" />
    </g>
    <g transform="translate(337 113) scale(0.68)">
      <rect x="-19" y="-34" width="38" height="35" rx="12" fill="#b8dff1" stroke="#3a2461" stroke-width="2.5" />
      <path d="M-24 -31 Q0 -55 24 -31 Q11 -36 0 -34 Q-11 -36 -24 -31Z" fill="#79b8dc" stroke="#3a2461" stroke-width="2.4" />
      <rect x="-5" y="-16" width="10" height="17" rx="5" fill="#75558f" />
      <circle cx="2" cy="-8" r="1.4" fill="#ffe493" />
      <rect x="-14" y="-25" width="8" height="8" rx="3" fill="#fff4b8" stroke="#3a2461" stroke-width="1.4" />
      <rect x="7" y="-25" width="8" height="8" rx="3" fill="#fff4b8" stroke="#3a2461" stroke-width="1.4" />
    </g>
    <path d="M93 123 C145 103 205 107 261 124" fill="none" stroke="#ffffff" stroke-width="8" stroke-linecap="round" opacity="0.5" />
    <g transform="translate(211 115)">
      <path d="M-35 0 Q0 -24 35 0 V29 H-35Z" fill="#fffaf1" stroke="#3a2461" stroke-width="2.7" />
      <path d="M-44 1 Q0 -31 44 1" fill="none" stroke="#f39ab7" stroke-width="8" stroke-linecap="round" />
      <path d="M-34 1 L-22 17 -9 1 4 17 17 1 30 17 40 1" fill="#ffe08b" stroke="#3a2461" stroke-width="1.5" stroke-linejoin="round" />
    </g>
  </g>
  <g inkscape:groupmode="layer" inkscape:label="03 cloud-island route surface" id="cv-problem-03-layer">
    <path d="M-18 184 Q62 151 144 176 Q211 139 282 171 Q347 151 418 181 V250 H-18Z" fill="#fffdf7" stroke="#3a2461" stroke-width="2.5" />
    <path d="M-18 211 Q64 182 146 201 Q218 170 290 200 Q351 182 418 207 V250 H-18Z" fill="#cbe4f2" opacity="0.72" />
    <path d="M96 250 Q145 210 204 197 Q264 184 325 201" fill="none" stroke="#f8e4b9" stroke-width="21" stroke-linecap="round" opacity="0.92" />
    <path d="M104 250 Q151 217 206 205 Q262 193 318 207" fill="none" stroke="#fff8df" stroke-width="3" stroke-linecap="round" opacity="0.9" />
  </g>
  <g inkscape:groupmode="layer" inkscape:label="04 Cloud Village framing" id="cv-problem-04-layer">
    <g transform="translate(15 184) scale(0.56)" opacity="0.94">
      <ellipse cx="0" cy="0" rx="35" ry="14" fill="#fffdf8" stroke="#3a2461" stroke-width="2.4" />
      <circle cx="-20" cy="-8" r="16" fill="#fffdf8" stroke="#3a2461" stroke-width="2.4" />
      <circle cx="2" cy="-14" r="22" fill="#fffdf8" stroke="#3a2461" stroke-width="2.4" />
      <circle cx="24" cy="-7" r="15" fill="#fffdf8" stroke="#3a2461" stroke-width="2.4" />
      <path d="M-31 6 Q0 25 31 6" fill="#b9d9ee" opacity="0.58" />
    </g>
    <g transform="translate(390 181) scale(0.58)" opacity="0.94">
      <ellipse cx="0" cy="0" rx="35" ry="14" fill="#fffdf8" stroke="#3a2461" stroke-width="2.4" />
      <circle cx="-20" cy="-8" r="16" fill="#fffdf8" stroke="#3a2461" stroke-width="2.4" />
      <circle cx="2" cy="-14" r="22" fill="#fffdf8" stroke="#3a2461" stroke-width="2.4" />
      <circle cx="24" cy="-7" r="15" fill="#fffdf8" stroke="#3a2461" stroke-width="2.4" />
      <path d="M-31 6 Q0 25 31 6" fill="#b9d9ee" opacity="0.58" />
    </g>
    <path d="M12 136 Q200 102 388 136" fill="none" stroke="#75558f" stroke-width="2" opacity="0.65" />
    <path d="M34 132 l12 20 12-24 12 19 12-23 12 18 M306 132 l12 20 12-24 12 19 12-23 12 18" fill="#f7c54a" stroke="#3a2461" stroke-width="1.5" stroke-linejoin="round" />
  </g>
  <g inkscape:groupmode="layer" inkscape:label="05 surprise party destination" id="dp-party-layer">
    <path d="M117 64 C170 43 232 43 287 64" fill="none" stroke="#3a2461" stroke-width="2.2" />
    <path d="M129 60 l9 16 9-16Z" fill="#f36fa3" stroke="#3a2461" stroke-width="1.8" />
    <path d="M175 49 l9 16 9-16Z" fill="#f7c54a" stroke="#3a2461" stroke-width="1.8" />
    <path d="M221 49 l9 16 9-16Z" fill="#9fc7e8" stroke="#3a2461" stroke-width="1.8" />
    <path d="M265 58 l9 16 9-16Z" fill="#a777bb" stroke="#3a2461" stroke-width="1.8" />
    <path d="M307 142 C320 126 341 124 353 139 V177 H307Z" fill="#fbf3e4" stroke="#3a2461" stroke-width="2.7" />
    <path d="M302 142 H358 L348 129 H312Z" fill="#f36fa3" stroke="#3a2461" stroke-width="2.2" />
    <g fill="#f7c54a" stroke="#3a2461" stroke-width="1.4">
      <path d="M319 112 l3 7 7 3-7 3-3 7-3-7-7-3 7-3Z" />
      <path d="M286 95 l2 5 5 2-5 2-2 5-2-5-5-2 5-2Z" />
    </g>
  </g>
  <g inkscape:groupmode="layer" inkscape:label="06 entrusted sunshine berry basket" id="dp-basket-layer">
    <ellipse cx="266" cy="231" rx="50" ry="8" fill="#3a2461" opacity="0.14" filter="url(#dp-shadow)" />
    <path d="M231 193 Q266 156 301 193" fill="none" stroke="#8b5a3c" stroke-width="8" stroke-linecap="round" />
    <path d="M226 193 H306 L297 228 Q266 238 235 228Z" fill="#dba95e" stroke="#3a2461" stroke-width="3.2" />
    <path d="M233 204 H300 M237 216 H296 M246 193 L248 231 M266 192 V233 M287 193 L284 231" fill="none" stroke="#9f6d3f" stroke-width="2" opacity="0.72" />
    <g fill="#f26f6f" stroke="#3a2461" stroke-width="1.8">
      <circle cx="245" cy="189" r="8" />
      <circle cx="261" cy="184" r="8" />
      <circle cx="278" cy="189" r="8" />
      <circle cx="293" cy="184" r="7" />
    </g>
  </g>
  <g inkscape:groupmode="layer" inkscape:label="07 Princess Poppy accepts the job" id="dp-poppy-layer">
    <ellipse cx="128" cy="232" rx="36" ry="7" fill="#3a2461" opacity="0.15" filter="url(#dp-shadow)" />
    <path d="M105 181 C94 187 93 199 99 205 M151 181 C163 176 173 170 178 160" fill="none" stroke="#f6d3b3" stroke-width="6.5" stroke-linecap="round" />
    <circle cx="179" cy="158" r="4" fill="#f6d3b3" stroke="#3a2461" stroke-width="1.7" />
    <path d="M104 172 C107 160 115 154 128 154 C141 154 149 161 152 174 L156 218 C139 223 116 223 99 217Z" fill="#f36fa3" stroke="#3a2461" stroke-width="3.4" />
    <path d="M118 219 v10 M140 219 v10" stroke="#5b4677" stroke-width="7" stroke-linecap="round" />
    <path d="M111 231 h15 M133 231 h15" stroke="#3a2461" stroke-width="5" stroke-linecap="round" />
    <circle cx="128" cy="136" r="20" fill="#f6d3b3" stroke="#3a2461" stroke-width="3.3" />
    <path d="M109 135 C105 118 116 109 130 109 C143 109 151 119 148 135 C142 126 135 122 125 122 C119 122 114 127 109 135Z" fill="#8a5a34" stroke="#3a2461" stroke-width="3" />
    <path d="M111 129 q-8 8-2 18 M147 129 q8 8 2 18" fill="none" stroke="#8a5a34" stroke-width="5" stroke-linecap="round" />
    <circle cx="121" cy="137" r="2.2" fill="#3a2461" />
    <circle cx="135" cy="137" r="2.2" fill="#3a2461" />
    <ellipse cx="128" cy="146" rx="2.7" ry="3.2" fill="#3a2461" />
    <path d="M107 117 H150 L145 109 H112Z" fill="#e8c07a" stroke="#3a2461" stroke-width="2.7" />
    <path d="M115 109 L120 98 L128 107 L135 97 L142 109Z" fill="#f6c343" stroke="#3a2461" stroke-width="2.4" />
  </g>
  <g inkscape:groupmode="layer" inkscape:label="08 trusted delivery connection" id="dp-connection-layer">
    <path d="M157 176 C178 161 200 161 222 178" fill="none" stroke="#fff3d4" stroke-width="4" stroke-linecap="round" opacity="0.86" />
    <g fill="#f7c54a" stroke="#3a2461" stroke-width="1.4">
      <path d="M193 144 l2.5 6 6 2.5-6 2.5-2.5 6-2.5-6-6-2.5 6-2.5Z" />
    </g>
  </g>
  <g inkscape:groupmode="layer" inkscape:label="09 foreground cloud wisps" id="cv-problem-09-layer">
    <g fill="#d8ecf6" stroke="#3a2461" stroke-width="1.8" opacity="0.94">
      <circle cx="-4" cy="248" r="30" />
      <circle cx="28" cy="247" r="22" />
      <circle cx="54" cy="252" r="19" />
      <circle cx="404" cy="247" r="31" />
      <circle cx="371" cy="248" r="23" />
      <circle cx="345" cy="253" r="18" />
    </g>
    <g fill="#ffffff" opacity="0.7">
      <ellipse cx="30" cy="240" rx="24" ry="7" />
      <ellipse cx="372" cy="239" rx="25" ry="7" />
    </g>
  </g>
</svg>