<?xml version='1.0' encoding='UTF-8'?>
<svg xmlns="http://www.w3.org/2000/svg" xmlns:inkscape="http://www.inkscape.org/namespaces/inkscape" width="400" height="250" viewBox="0 0 400 250" version="1.1">
  <defs>
    <linearGradient id="dr-sky" x1="0" y1="0" x2="0" y2="1">
      <stop offset="0" stop-color="#d9eef8" />
      <stop offset="1" stop-color="#f9e5cf" />
    </linearGradient>
    <filter id="dr-shadow" x="-30%" y="-30%" width="160%" height="170%">
      <feGaussianBlur stdDeviation="2.3" />
    </filter>
    <linearGradient id="cv-route-sky" x1="0" y1="0" x2="0" y2="1">
      <stop offset="0" stop-color="#91cff0" />
      <stop offset="0.58" stop-color="#d9eef8" />
      <stop offset="1" stop-color="#f9e5cf" />
    </linearGradient>
  </defs>
  <g inkscape:groupmode="layer" inkscape:label="01 Cloud Village route sky" id="cv-route-01-layer">
    <rect width="400" height="250" fill="url(#cv-route-sky)" />
    <circle cx="68" cy="43" r="27" fill="#ffe39a" opacity="0.38" />
    <circle cx="68" cy="43" r="15" fill="#fff5ca" />
    <g transform="translate(128 69) scale(0.48)" opacity="0.55">
      <ellipse cx="0" cy="0" rx="35" ry="14" fill="#fffdf8" stroke="#3a2461" stroke-width="2.4" />
      <circle cx="-20" cy="-8" r="16" fill="#fffdf8" stroke="#3a2461" stroke-width="2.4" />
      <circle cx="2" cy="-14" r="22" fill="#fffdf8" stroke="#3a2461" stroke-width="2.4" />
      <circle cx="24" cy="-7" r="15" fill="#fffdf8" stroke="#3a2461" stroke-width="2.4" />
      <path d="M-31 6 Q0 25 31 6" fill="#b9d9ee" opacity="0.58" />
    </g>
    <g transform="translate(310 85) scale(0.4)" opacity="0.45">
      <ellipse cx="0" cy="0" rx="35" ry="14" fill="#fffdf8" stroke="#3a2461" stroke-width="2.4" />
      <circle cx="-20" cy="-8" r="16" fill="#fffdf8" stroke="#3a2461" stroke-width="2.4" />
      <circle cx="2" cy="-14" r="22" fill="#fffdf8" stroke="#3a2461" stroke-width="2.4" />
      <circle cx="24" cy="-7" r="15" fill="#fffdf8" stroke="#3a2461" stroke-width="2.4" />
      <path d="M-31 6 Q0 25 31 6" fill="#b9d9ee" opacity="0.58" />
    </g>
    <g fill="#fff7ca" stroke="#3a2461" stroke-width="1.2" opacity="0.85">
      <path d="M164 42 l3 7 7 3-7 3-3 7-3-7-7-3 7-3Z" />
      <path d="M246 72 l2 5 5 2-5 2-2 5-2-5-5-2 5-2Z" />
      <path d="M364 34 l2 5 5 2-5 2-2 5-2-5-5-2 5-2Z" />
    </g>
  </g>
  <g inkscape:groupmode="layer" inkscape:label="02 floating village depth" id="cv-route-02-layer">
    <g transform="translate(62 132) scale(0.72)" opacity="0.78">
      <ellipse cx="0" cy="0" rx="35" ry="14" fill="#fffdf8" stroke="#3a2461" stroke-width="2.4" />
      <circle cx="-20" cy="-8" r="16" fill="#fffdf8" stroke="#3a2461" stroke-width="2.4" />
      <circle cx="2" cy="-14" r="22" fill="#fffdf8" stroke="#3a2461" stroke-width="2.4" />
      <circle cx="24" cy="-7" r="15" fill="#fffdf8" stroke="#3a2461" stroke-width="2.4" />
      <path d="M-31 6 Q0 25 31 6" fill="#b9d9ee" opacity="0.58" />
    </g>
    <g transform="translate(62 125) scale(0.72)">
      <rect x="-19" y="-34" width="38" height="35" rx="12" fill="#f4b5c9" stroke="#3a2461" stroke-width="2.5" />
      <path d="M-24 -31 Q0 -55 24 -31 Q11 -36 0 -34 Q-11 -36 -24 -31Z" fill="#d887b1" stroke="#3a2461" stroke-width="2.4" />
      <rect x="-5" y="-16" width="10" height="17" rx="5" fill="#75558f" />
      <circle cx="2" cy="-8" r="1.4" fill="#ffe493" />
      <rect x="-14" y="-25" width="8" height="8" rx="3" fill="#fff4b8" stroke="#3a2461" stroke-width="1.4" />
      <rect x="7" y="-25" width="8" height="8" rx="3" fill="#fff4b8" stroke="#3a2461" stroke-width="1.4" />
    </g>
    <g transform="translate(337 120) scale(0.68)" opacity="0.72">
      <ellipse cx="0" cy="0" rx="35" ry="14" fill="#fffdf8" stroke="#3a2461" stroke-width="2.4" />
      <circle cx="-20" cy="-8" r="16" fill="#fffdf8" stroke="#3a2461" stroke-width="2.4" />
      <circle cx="2" cy="-14" r="22" fill="#fffdf8" stroke="#3a2461" stroke-width="2.4" />
      <circle cx="24" cy="-7" r="15" fill="#fffdf8" stroke="#3a2461" stroke-width="2.4" />
      <path d="M-31 6 Q0 25 31 6" fill="#b9d9ee" opacity="0.58" />
    </g>
    <g transform="translate(337 113) scale(0.68)">
      <rect x="-19" y="-34" width="38" height="35" rx="12" fill="#b8dff1" stroke="#3a2461" stroke-width="2.5" />
      <path d="M-24 -31 Q0 -55 24 -31 Q11 -36 0 -34 Q-11 -36 -24 -31Z" fill="#79b8dc" stroke="#3a2461" stroke-width="2.4" />
      <rect x="-5" y="-16" width="10" height="17" rx="5" fill="#75558f" />
      <circle cx="2" cy="-8" r="1.4" fill="#ffe493" />
      <rect x="-14" y="-25" width="8" height="8" rx="3" fill="#fff4b8" stroke="#3a2461" stroke-width="1.4" />
      <rect x="7" y="-25" width="8" height="8" rx="3" fill="#fff4b8" stroke="#3a2461" stroke-width="1.4" />
    </g>
    <path d="M93 123 C145 103 205 107 261 124" fill="none" stroke="#ffffff" stroke-width="8" stroke-linecap="round" opacity="0.5" />
    <path d="M184 116 Q211 91 238 116 Q226 108 211 108 Q196 108 184 116Z" fill="#dbc5ef" stroke="#3a2461" stroke-width="2" opacity="0.82" />
  </g>
  <g inkscape:groupmode="layer" inkscape:label="03 cloud-island route surface" id="cv-route-03-layer">
    <path d="M0 193 Q90 165 174 188 Q210 196 238 189 Q319 163 400 190 V250 H0Z" fill="#fbfcf8" stroke="#3a2461" stroke-width="2.4" />
    <path d="M0 218 Q95 193 179 211 Q219 220 260 209 Q333 190 400 213 V250 H0Z" fill="#cce5f3" opacity="0.66" />
    <path d="M216 250 C205 220 193 197 177 177 C164 160 154 150 142 139" fill="none" stroke="#f2d29c" stroke-width="22" stroke-linecap="round" />
    <path d="M216 250 C236 222 258 202 286 187 C307 176 328 170 350 167" fill="none" stroke="#c6dff1" stroke-width="22" stroke-linecap="round" />
    <path d="M216 250 C205 220 193 197 177 177 M216 250 C236 222 258 202 286 187" fill="none" stroke="#ffffff" stroke-width="3" stroke-linecap="round" opacity="0.82" />
  </g>
  <g inkscape:groupmode="layer" inkscape:label="04 Cloud Village framing" id="cv-route-04-layer">
    <g transform="translate(15 184) scale(0.56)" opacity="0.94">
      <ellipse cx="0" cy="0" rx="35" ry="14" fill="#fffdf8" stroke="#3a2461" stroke-width="2.4" />
      <circle cx="-20" cy="-8" r="16" fill="#fffdf8" stroke="#3a2461" stroke-width="2.4" />
      <circle cx="2" cy="-14" r="22" fill="#fffdf8" stroke="#3a2461" stroke-width="2.4" />
      <circle cx="24" cy="-7" r="15" fill="#fffdf8" stroke="#3a2461" stroke-width="2.4" />
      <path d="M-31 6 Q0 25 31 6" fill="#b9d9ee" opacity="0.58" />
    </g>
    <g transform="translate(390 181) scale(0.58)" opacity="0.94">
      <ellipse cx="0" cy="0" rx="35" ry="14" fill="#fffdf8" stroke="#3a2461" stroke-width="2.4" />
      <circle cx="-20" cy="-8" r="16" fill="#fffdf8" stroke="#3a2461" stroke-width="2.4" />
      <circle cx="2" cy="-14" r="22" fill="#fffdf8" stroke="#3a2461" stroke-width="2.4" />
      <circle cx="24" cy="-7" r="15" fill="#fffdf8" stroke="#3a2461" stroke-width="2.4" />
      <path d="M-31 6 Q0 25 31 6" fill="#b9d9ee" opacity="0.58" />
    </g>
    <path d="M12 136 Q200 102 388 136" fill="none" stroke="#75558f" stroke-width="2" opacity="0.65" />
    <g fill="#bfe8f6" stroke="#3a2461" stroke-width="1.4">
      <path d="M35 128 q9-9 18 0 q-9 8-18 0" />
      <path d="M346 124 q9-9 18 0 q-9 8-18 0" />
    </g>
  </g>
  <g inkscape:groupmode="layer" inkscape:label="05 bridge and meadow route clues" id="dr-clues-layer">
    <path d="M112 142 C126 130 148 130 164 142" fill="none" stroke="#8b5a3c" stroke-width="6" stroke-linecap="round" />
    <path d="M112 144 H165 M119 138 V151 M132 134 V149 M146 134 V149 M159 138 V151" stroke="#3a2461" stroke-width="2" />
    <g fill="#f39ab7" stroke="#3a2461" stroke-width="1.5">
      <circle cx="303" cy="169" r="5" />
      <circle cx="327" cy="157" r="4.5" />
      <circle cx="347" cy="166" r="4" />
    </g>
    <g fill="#f7c54a" stroke="#3a2461" stroke-width="1.4">
      <path d="M283 145 l2 5 5 2-5 2-2 5-2-5-5-2 5-2Z" />
    </g>
    <path d="M318 136 q8-8 16 0 q-8 7-16 0 M342 144 q7-7 14 0 q-7 6-14 0" fill="#bfe8f6" stroke="#3a2461" stroke-width="1.5" />
  </g>
  <g inkscape:groupmode="layer" inkscape:label="06 carried sunshine berry basket" id="dr-basket-layer">
    <ellipse cx="217" cy="231" rx="44" ry="7" fill="#3a2461" opacity="0.14" filter="url(#dr-shadow)" />
    <path d="M188 190 Q217 161 246 190" fill="none" stroke="#8b5a3c" stroke-width="7" stroke-linecap="round" />
    <path d="M183 190 H251 L244 222 Q217 231 190 222Z" fill="#dba95e" stroke="#3a2461" stroke-width="3" />
    <path d="M190 201 H245 M194 212 H241 M202 190 L204 225 M217 189 V228 M233 190 L231 225" fill="none" stroke="#9f6d3f" stroke-width="1.8" />
    <g fill="#f26f6f" stroke="#3a2461" stroke-width="1.6">
      <circle cx="200" cy="187" r="7" />
      <circle cx="215" cy="182" r="7" />
      <circle cx="230" cy="187" r="7" />
      <circle cx="242" cy="183" r="6" />
    </g>
  </g>
  <g inkscape:groupmode="layer" inkscape:label="07 Princess Poppy chooses" id="dr-poppy-layer">
    <ellipse cx="102" cy="232" rx="36" ry="7" fill="#3a2461" opacity="0.15" filter="url(#dr-shadow)" />
    <path d="M79 181 C68 188 66 199 72 205 M125 181 C137 177 148 169 153 158" fill="none" stroke="#f6d3b3" stroke-width="6.5" stroke-linecap="round" />
    <circle cx="154" cy="156" r="4" fill="#f6d3b3" stroke="#3a2461" stroke-width="1.7" />
    <path d="M78 172 C81 160 89 154 102 154 C115 154 123 161 126 174 L130 218 C113 223 90 223 73 217Z" fill="#f36fa3" stroke="#3a2461" stroke-width="3.4" />
    <path d="M92 219 v10 M114 219 v10" stroke="#5b4677" stroke-width="7" stroke-linecap="round" />
    <path d="M85 231 h15 M107 231 h15" stroke="#3a2461" stroke-width="5" stroke-linecap="round" />
    <circle cx="102" cy="136" r="20" fill="#f6d3b3" stroke="#3a2461" stroke-width="3.3" />
    <path d="M83 135 C79 118 90 109 104 109 C117 109 125 119 122 135 C116 126 109 122 99 122 C93 122 88 127 83 135Z" fill="#8a5a34" stroke="#3a2461" stroke-width="3" />
    <path d="M85 129 q-8 8-2 18 M121 129 q8 8 2 18" fill="none" stroke="#8a5a34" stroke-width="5" stroke-linecap="round" />
    <circle cx="95" cy="137" r="2.2" fill="#3a2461" />
    <circle cx="109" cy="137" r="2.2" fill="#3a2461" />
    <ellipse cx="102" cy="146" rx="2.7" ry="3.2" fill="#3a2461" />
    <path d="M81 117 H124 L119 109 H86Z" fill="#e8c07a" stroke="#3a2461" stroke-width="2.7" />
    <path d="M89 109 L94 98 L102 107 L109 97 L116 109Z" fill="#f6c343" stroke="#3a2461" stroke-width="2.4" />
  </g>
  <g inkscape:groupmode="layer" inkscape:label="08 equal safe-choice sparkles" id="dr-sparkle-layer">
    <g fill="#f7c54a" stroke="#3a2461" stroke-width="1.5">
      <path d="M150 111 l3 7 7 3-7 3-3 7-3-7-7-3 7-3Z" />
      <path d="M326 111 l3 7 7 3-7 3-3 7-3-7-7-3 7-3Z" />
    </g>
  </g>
  <g inkscape:groupmode="layer" inkscape:label="09 foreground cloud wisps" id="cv-route-09-layer">
    <g fill="#d8ecf6" stroke="#3a2461" stroke-width="1.8" opacity="0.94">
      <circle cx="-4" cy="248" r="30" />
      <circle cx="28" cy="247" r="22" />
      <circle cx="54" cy="252" r="19" />
      <circle cx="404" cy="247" r="31" />
      <circle cx="371" cy="248" r="23" />
      <circle cx="345" cy="253" r="18" />
    </g>
    <g fill="#ffffff" opacity="0.7">
      <ellipse cx="30" cy="240" rx="24" ry="7" />
      <ellipse cx="372" cy="239" rx="25" ry="7" />
    </g>
  </g>
</svg>