<?xml version='1.0' encoding='UTF-8'?>
<svg xmlns="http://www.w3.org/2000/svg" xmlns:inkscape="http://www.inkscape.org/namespaces/inkscape" width="400" height="250" viewBox="0 0 400 250" version="1.1">
  <defs>
    <linearGradient id="db-sky" x1="0" y1="0" x2="0" y2="1">
      <stop offset="0" stop-color="#d9eef8" />
      <stop offset="1" stop-color="#f9e5cf" />
    </linearGradient>
    <linearGradient id="db-water" x1="0" y1="0" x2="1" y2="0">
      <stop offset="0" stop-color="#9dd4e5" />
      <stop offset="0.5" stop-color="#d8f0f5" />
      <stop offset="1" stop-color="#8fc8db" />
    </linearGradient>
    <filter id="db-shadow" x="-30%" y="-30%" width="160%" height="170%">
      <feGaussianBlur stdDeviation="2.3" />
    </filter>
    <linearGradient id="cv-bridge-sky" x1="0" y1="0" x2="0" y2="1">
      <stop offset="0" stop-color="#91cff0" />
      <stop offset="0.58" stop-color="#d9eef8" />
      <stop offset="1" stop-color="#f9e5cf" />
    </linearGradient>
  </defs>
  <g inkscape:groupmode="layer" inkscape:label="01 Cloud Village bridge sky" id="cv-bridge-01-layer">
    <rect width="400" height="250" fill="url(#cv-bridge-sky)" />
    <circle cx="68" cy="43" r="27" fill="#ffe39a" opacity="0.38" />
    <circle cx="68" cy="43" r="15" fill="#fff5ca" />
    <g transform="translate(128 69) scale(0.48)" opacity="0.55">
      <ellipse cx="0" cy="0" rx="35" ry="14" fill="#fffdf8" stroke="#3a2461" stroke-width="2.4" />
      <circle cx="-20" cy="-8" r="16" fill="#fffdf8" stroke="#3a2461" stroke-width="2.4" />
      <circle cx="2" cy="-14" r="22" fill="#fffdf8" stroke="#3a2461" stroke-width="2.4" />
      <circle cx="24" cy="-7" r="15" fill="#fffdf8" stroke="#3a2461" stroke-width="2.4" />
      <path d="M-31 6 Q0 25 31 6" fill="#b9d9ee" opacity="0.58" />
    </g>
    <g transform="translate(310 85) scale(0.4)" opacity="0.45">
      <ellipse cx="0" cy="0" rx="35" ry="14" fill="#fffdf8" stroke="#3a2461" stroke-width="2.4" />
      <circle cx="-20" cy="-8" r="16" fill="#fffdf8" stroke="#3a2461" stroke-width="2.4" />
      <circle cx="2" cy="-14" r="22" fill="#fffdf8" stroke="#3a2461" stroke-width="2.4" />
      <circle cx="24" cy="-7" r="15" fill="#fffdf8" stroke="#3a2461" stroke-width="2.4" />
      <path d="M-31 6 Q0 25 31 6" fill="#b9d9ee" opacity="0.58" />
    </g>
    <g fill="#fff7ca" stroke="#3a2461" stroke-width="1.2" opacity="0.85">
      <path d="M164 42 l3 7 7 3-7 3-3 7-3-7-7-3 7-3Z" />
      <path d="M246 72 l2 5 5 2-5 2-2 5-2-5-5-2 5-2Z" />
      <path d="M364 34 l2 5 5 2-5 2-2 5-2-5-5-2 5-2Z" />
    </g>
  </g>
  <g inkscape:groupmode="layer" inkscape:label="02 floating village depth" id="cv-bridge-02-layer">
    <g transform="translate(62 132) scale(0.72)" opacity="0.78">
      <ellipse cx="0" cy="0" rx="35" ry="14" fill="#fffdf8" stroke="#3a2461" stroke-width="2.4" />
      <circle cx="-20" cy="-8" r="16" fill="#fffdf8" stroke="#3a2461" stroke-width="2.4" />
      <circle cx="2" cy="-14" r="22" fill="#fffdf8" stroke="#3a2461" stroke-width="2.4" />
      <circle cx="24" cy="-7" r="15" fill="#fffdf8" stroke="#3a2461" stroke-width="2.4" />
      <path d="M-31 6 Q0 25 31 6" fill="#b9d9ee" opacity="0.58" />
    </g>
    <g transform="translate(62 125) scale(0.72)">
      <rect x="-19" y="-34" width="38" height="35" rx="12" fill="#f4b5c9" stroke="#3a2461" stroke-width="2.5" />
      <path d="M-24 -31 Q0 -55 24 -31 Q11 -36 0 -34 Q-11 -36 -24 -31Z" fill="#d887b1" stroke="#3a2461" stroke-width="2.4" />
      <rect x="-5" y="-16" width="10" height="17" rx="5" fill="#75558f" />
      <circle cx="2" cy="-8" r="1.4" fill="#ffe493" />
      <rect x="-14" y="-25" width="8" height="8" rx="3" fill="#fff4b8" stroke="#3a2461" stroke-width="1.4" />
      <rect x="7" y="-25" width="8" height="8" rx="3" fill="#fff4b8" stroke="#3a2461" stroke-width="1.4" />
    </g>
    <g transform="translate(337 120) scale(0.68)" opacity="0.72">
      <ellipse cx="0" cy="0" rx="35" ry="14" fill="#fffdf8" stroke="#3a2461" stroke-width="2.4" />
      <circle cx="-20" cy="-8" r="16" fill="#fffdf8" stroke="#3a2461" stroke-width="2.4" />
      <circle cx="2" cy="-14" r="22" fill="#fffdf8" stroke="#3a2461" stroke-width="2.4" />
      <circle cx="24" cy="-7" r="15" fill="#fffdf8" stroke="#3a2461" stroke-width="2.4" />
      <path d="M-31 6 Q0 25 31 6" fill="#b9d9ee" opacity="0.58" />
    </g>
    <g transform="translate(337 113) scale(0.68)">
      <rect x="-19" y="-34" width="38" height="35" rx="12" fill="#b8dff1" stroke="#3a2461" stroke-width="2.5" />
      <path d="M-24 -31 Q0 -55 24 -31 Q11 -36 0 -34 Q-11 -36 -24 -31Z" fill="#79b8dc" stroke="#3a2461" stroke-width="2.4" />
      <rect x="-5" y="-16" width="10" height="17" rx="5" fill="#75558f" />
      <circle cx="2" cy="-8" r="1.4" fill="#ffe493" />
      <rect x="-14" y="-25" width="8" height="8" rx="3" fill="#fff4b8" stroke="#3a2461" stroke-width="1.4" />
      <rect x="7" y="-25" width="8" height="8" rx="3" fill="#fff4b8" stroke="#3a2461" stroke-width="1.4" />
    </g>
    <path d="M93 123 C145 103 205 107 261 124" fill="none" stroke="#ffffff" stroke-width="8" stroke-linecap="round" opacity="0.5" />
    <path d="M184 116 Q211 91 238 116 Q226 108 211 108 Q196 108 184 116Z" fill="#dbc5ef" stroke="#3a2461" stroke-width="2" opacity="0.82" />
  </g>
  <g inkscape:groupmode="layer" inkscape:label="03 cloud-island route surface" id="cv-bridge-03-layer">
    <path d="M0 187 Q58 162 142 177 L153 250 H0Z" fill="#fdfdf8" stroke="#3a2461" stroke-width="2.5" />
    <path d="M251 178 Q331 158 400 185 V250 H245Z" fill="#fdfdf8" stroke="#3a2461" stroke-width="2.5" />
    <path d="M0 206 Q70 183 143 194 L147 250 H0Z M255 195 Q335 176 400 203 V250 H250Z" fill="#c9e2f2" opacity="0.72" />
    <path d="M145 210 Q200 190 255 210 V250 H145Z" fill="#9bcde9" opacity="0.48" />
    <path d="M163 230 Q202 219 239 230" fill="none" stroke="#ffffff" stroke-width="4" stroke-linecap="round" opacity="0.7" />
  </g>
  <g inkscape:groupmode="layer" inkscape:label="04 Cloud Village framing" id="cv-bridge-04-layer">
    <g fill="#ffffff" stroke="#3a2461" stroke-width="2" opacity="0.86">
      <circle cx="37" cy="168" r="18" />
      <circle cx="61" cy="162" r="22" />
      <circle cx="356" cy="161" r="21" />
      <circle cx="382" cy="171" r="17" />
    </g>
    <path d="M54 148 Q104 126 149 148 M253 146 Q307 121 356 145" fill="none" stroke="#dbc5ef" stroke-width="5" stroke-linecap="round" opacity="0.8" />
  </g>
  <g inkscape:groupmode="layer" inkscape:label="05 safe little wooden bridge" id="db-bridge-layer">
    <path d="M88 215 C147 184 250 184 319 215" fill="none" stroke="#8b5a3c" stroke-width="12" stroke-linecap="round" />
    <path d="M88 215 C147 184 250 184 319 215" fill="none" stroke="#dba95e" stroke-width="8" stroke-dasharray="20 5" stroke-linecap="butt" />
    <path d="M91 194 C151 166 248 166 316 194 M96 194 V220 M311 194 V220" fill="none" stroke="#3a2461" stroke-width="3" stroke-linecap="round" />
    <path d="M117 187 V209 M147 177 V201 M180 171 V196 M215 171 V196 M249 176 V201 M280 184 V209" stroke="#3a2461" stroke-width="2" />
    <g fill="#f7c54a" stroke="#3a2461" stroke-width="1.4">
      <path d="M331 190 l2 5 5 2-5 2-2 5-2-5-5-2 5-2Z" />
    </g>
  </g>
  <g inkscape:groupmode="layer" inkscape:label="06 hugged sunshine berry basket" id="db-basket-layer">
    <path d="M203 147 Q226 123 249 147" fill="none" stroke="#8b5a3c" stroke-width="6" stroke-linecap="round" />
    <path d="M199 147 H253 L248 174 Q226 181 204 174Z" fill="#dba95e" stroke="#3a2461" stroke-width="2.7" />
    <path d="M204 156 H248 M211 147 L212 176 M226 146 V179 M241 147 L239 176" fill="none" stroke="#9f6d3f" stroke-width="1.7" />
    <g fill="#f26f6f" stroke="#3a2461" stroke-width="1.5">
      <circle cx="212" cy="144" r="6" />
      <circle cx="225" cy="140" r="6" />
      <circle cx="238" cy="144" r="6" />
      <circle cx="247" cy="141" r="5" />
    </g>
  </g>
  <g inkscape:groupmode="layer" inkscape:label="07 Princess Poppy tiptoes" id="db-poppy-layer">
    <ellipse cx="188" cy="210" rx="39" ry="7" fill="#3a2461" opacity="0.15" filter="url(#db-shadow)" />
    <path d="M169 158 C180 150 194 150 205 158 M205 158 C214 152 220 150 225 151" fill="none" stroke="#f6d3b3" stroke-width="6" stroke-linecap="round" />
    <path d="M164 149 C167 137 175 131 188 131 C201 131 209 138 212 151 L216 194 C199 200 176 200 159 194Z" fill="#f36fa3" stroke="#3a2461" stroke-width="3.4" />
    <path d="M178 195 q-2 8-8 15 M200 195 q5 6 14 8" fill="none" stroke="#5b4677" stroke-width="7" stroke-linecap="round" />
    <path d="M161 211 h15 M207 205 h15" stroke="#3a2461" stroke-width="5" stroke-linecap="round" />
    <circle cx="188" cy="113" r="20" fill="#f6d3b3" stroke="#3a2461" stroke-width="3.3" />
    <path d="M169 112 C165 95 176 86 190 86 C203 86 211 96 208 112 C202 103 195 99 185 99 C179 99 174 104 169 112Z" fill="#8a5a34" stroke="#3a2461" stroke-width="3" />
    <path d="M171 106 q-8 8-2 18 M207 106 q8 8 2 18" fill="none" stroke="#8a5a34" stroke-width="5" stroke-linecap="round" />
    <circle cx="181" cy="114" r="2.2" fill="#3a2461" />
    <circle cx="195" cy="114" r="2.2" fill="#3a2461" />
    <path d="M182 123 q6 4 12 0" fill="none" stroke="#3a2461" stroke-width="2.2" stroke-linecap="round" />
    <path d="M167 94 H210 L205 86 H172Z" fill="#e8c07a" stroke="#3a2461" stroke-width="2.7" />
    <path d="M175 86 L180 75 L188 84 L195 74 L202 86Z" fill="#f6c343" stroke="#3a2461" stroke-width="2.4" />
  </g>
  <g inkscape:groupmode="layer" inkscape:label="08 gentle wobble marks" id="db-wobble-layer">
    <path d="M123 161 q8-8 16 0 M284 166 q8-8 16 0" fill="none" stroke="#3a2461" stroke-width="2" stroke-linecap="round" opacity="0.56" />
    <g fill="#f7c54a" stroke="#3a2461" stroke-width="1.4">
      <path d="M151 140 l2 5 5 2-5 2-2 5-2-5-5-2 5-2Z" />
    </g>
  </g>
  <g inkscape:groupmode="layer" inkscape:label="09 foreground cloud wisps" id="cv-bridge-09-layer">
    <g fill="#d8ecf6" stroke="#3a2461" stroke-width="1.8" opacity="0.94">
      <circle cx="-4" cy="248" r="30" />
      <circle cx="28" cy="247" r="22" />
      <circle cx="54" cy="252" r="19" />
      <circle cx="404" cy="247" r="31" />
      <circle cx="371" cy="248" r="23" />
      <circle cx="345" cy="253" r="18" />
    </g>
    <g fill="#ffffff" opacity="0.7">
      <ellipse cx="30" cy="240" rx="24" ry="7" />
      <ellipse cx="372" cy="239" rx="25" ry="7" />
    </g>
  </g>
</svg>