<?xml version='1.0' encoding='UTF-8'?>
<svg xmlns="http://www.w3.org/2000/svg" xmlns:inkscape="http://www.inkscape.org/namespaces/inkscape" width="400" height="250" viewBox="0 0 400 250" version="1.1">
  <defs>
    <linearGradient id="dpt-sky" x1="0" y1="0" x2="0" y2="1">
      <stop offset="0" stop-color="#d9eef8" />
      <stop offset="1" stop-color="#f9e5cf" />
    </linearGradient>
    <filter id="dpt-shadow" x="-30%" y="-30%" width="160%" height="170%">
      <feGaussianBlur stdDeviation="2.3" />
    </filter>
    <linearGradient id="cv-protect-sky" x1="0" y1="0" x2="0" y2="1">
      <stop offset="0" stop-color="#91cff0" />
      <stop offset="0.58" stop-color="#d9eef8" />
      <stop offset="1" stop-color="#f9e5cf" />
    </linearGradient>
  </defs>
  <g inkscape:groupmode="layer" inkscape:label="01 Cloud Village protect sky" id="cv-protect-01-layer">
    <rect width="400" height="250" fill="url(#cv-protect-sky)" />
    <circle cx="68" cy="43" r="27" fill="#ffe39a" opacity="0.38" />
    <circle cx="68" cy="43" r="15" fill="#fff5ca" />
    <g transform="translate(128 69) scale(0.48)" opacity="0.55">
      <ellipse cx="0" cy="0" rx="35" ry="14" fill="#fffdf8" stroke="#3a2461" stroke-width="2.4" />
      <circle cx="-20" cy="-8" r="16" fill="#fffdf8" stroke="#3a2461" stroke-width="2.4" />
      <circle cx="2" cy="-14" r="22" fill="#fffdf8" stroke="#3a2461" stroke-width="2.4" />
      <circle cx="24" cy="-7" r="15" fill="#fffdf8" stroke="#3a2461" stroke-width="2.4" />
      <path d="M-31 6 Q0 25 31 6" fill="#b9d9ee" opacity="0.58" />
    </g>
    <g transform="translate(310 85) scale(0.4)" opacity="0.45">
      <ellipse cx="0" cy="0" rx="35" ry="14" fill="#fffdf8" stroke="#3a2461" stroke-width="2.4" />
      <circle cx="-20" cy="-8" r="16" fill="#fffdf8" stroke="#3a2461" stroke-width="2.4" />
      <circle cx="2" cy="-14" r="22" fill="#fffdf8" stroke="#3a2461" stroke-width="2.4" />
      <circle cx="24" cy="-7" r="15" fill="#fffdf8" stroke="#3a2461" stroke-width="2.4" />
      <path d="M-31 6 Q0 25 31 6" fill="#b9d9ee" opacity="0.58" />
    </g>
    <g fill="#fff7ca" stroke="#3a2461" stroke-width="1.2" opacity="0.85">
      <path d="M164 42 l3 7 7 3-7 3-3 7-3-7-7-3 7-3Z" />
      <path d="M246 72 l2 5 5 2-5 2-2 5-2-5-5-2 5-2Z" />
      <path d="M364 34 l2 5 5 2-5 2-2 5-2-5-5-2 5-2Z" />
    </g>
  </g>
  <g inkscape:groupmode="layer" inkscape:label="02 floating village depth" id="cv-protect-02-layer">
    <g transform="translate(62 132) scale(0.72)" opacity="0.78">
      <ellipse cx="0" cy="0" rx="35" ry="14" fill="#fffdf8" stroke="#3a2461" stroke-width="2.4" />
      <circle cx="-20" cy="-8" r="16" fill="#fffdf8" stroke="#3a2461" stroke-width="2.4" />
      <circle cx="2" cy="-14" r="22" fill="#fffdf8" stroke="#3a2461" stroke-width="2.4" />
      <circle cx="24" cy="-7" r="15" fill="#fffdf8" stroke="#3a2461" stroke-width="2.4" />
      <path d="M-31 6 Q0 25 31 6" fill="#b9d9ee" opacity="0.58" />
    </g>
    <g transform="translate(62 125) scale(0.72)">
      <rect x="-19" y="-34" width="38" height="35" rx="12" fill="#f4b5c9" stroke="#3a2461" stroke-width="2.5" />
      <path d="M-24 -31 Q0 -55 24 -31 Q11 -36 0 -34 Q-11 -36 -24 -31Z" fill="#d887b1" stroke="#3a2461" stroke-width="2.4" />
      <rect x="-5" y="-16" width="10" height="17" rx="5" fill="#75558f" />
      <circle cx="2" cy="-8" r="1.4" fill="#ffe493" />
      <rect x="-14" y="-25" width="8" height="8" rx="3" fill="#fff4b8" stroke="#3a2461" stroke-width="1.4" />
      <rect x="7" y="-25" width="8" height="8" rx="3" fill="#fff4b8" stroke="#3a2461" stroke-width="1.4" />
    </g>
    <g transform="translate(337 120) scale(0.68)" opacity="0.72">
      <ellipse cx="0" cy="0" rx="35" ry="14" fill="#fffdf8" stroke="#3a2461" stroke-width="2.4" />
      <circle cx="-20" cy="-8" r="16" fill="#fffdf8" stroke="#3a2461" stroke-width="2.4" />
      <circle cx="2" cy="-14" r="22" fill="#fffdf8" stroke="#3a2461" stroke-width="2.4" />
      <circle cx="24" cy="-7" r="15" fill="#fffdf8" stroke="#3a2461" stroke-width="2.4" />
      <path d="M-31 6 Q0 25 31 6" fill="#b9d9ee" opacity="0.58" />
    </g>
    <g transform="translate(337 113) scale(0.68)">
      <rect x="-19" y="-34" width="38" height="35" rx="12" fill="#b8dff1" stroke="#3a2461" stroke-width="2.5" />
      <path d="M-24 -31 Q0 -55 24 -31 Q11 -36 0 -34 Q-11 -36 -24 -31Z" fill="#79b8dc" stroke="#3a2461" stroke-width="2.4" />
      <rect x="-5" y="-16" width="10" height="17" rx="5" fill="#75558f" />
      <circle cx="2" cy="-8" r="1.4" fill="#ffe493" />
      <rect x="-14" y="-25" width="8" height="8" rx="3" fill="#fff4b8" stroke="#3a2461" stroke-width="1.4" />
      <rect x="7" y="-25" width="8" height="8" rx="3" fill="#fff4b8" stroke="#3a2461" stroke-width="1.4" />
    </g>
    <path d="M93 123 C145 103 205 107 261 124" fill="none" stroke="#ffffff" stroke-width="8" stroke-linecap="round" opacity="0.5" />
    <g transform="translate(211 115)">
      <path d="M-35 0 Q0 -24 35 0 V29 H-35Z" fill="#fffaf1" stroke="#3a2461" stroke-width="2.7" />
      <path d="M-44 1 Q0 -31 44 1" fill="none" stroke="#f39ab7" stroke-width="8" stroke-linecap="round" />
      <path d="M-34 1 L-22 17 -9 1 4 17 17 1 30 17 40 1" fill="#ffe08b" stroke="#3a2461" stroke-width="1.5" stroke-linejoin="round" />
    </g>
  </g>
  <g inkscape:groupmode="layer" inkscape:label="03 cloud-island route surface" id="cv-protect-03-layer">
    <path d="M-18 184 Q62 151 144 176 Q211 139 282 171 Q347 151 418 181 V250 H-18Z" fill="#fffdf7" stroke="#3a2461" stroke-width="2.5" />
    <path d="M-18 211 Q64 182 146 201 Q218 170 290 200 Q351 182 418 207 V250 H-18Z" fill="#cbe4f2" opacity="0.72" />
    <path d="M96 250 Q145 210 204 197 Q264 184 325 201" fill="none" stroke="#f8e4b9" stroke-width="21" stroke-linecap="round" opacity="0.92" />
    <path d="M104 250 Q151 217 206 205 Q262 193 318 207" fill="none" stroke="#fff8df" stroke-width="3" stroke-linecap="round" opacity="0.9" />
  </g>
  <g inkscape:groupmode="layer" inkscape:label="04 Cloud Village framing" id="cv-protect-04-layer">
    <g transform="translate(15 184) scale(0.56)" opacity="0.94">
      <ellipse cx="0" cy="0" rx="35" ry="14" fill="#fffdf8" stroke="#3a2461" stroke-width="2.4" />
      <circle cx="-20" cy="-8" r="16" fill="#fffdf8" stroke="#3a2461" stroke-width="2.4" />
      <circle cx="2" cy="-14" r="22" fill="#fffdf8" stroke="#3a2461" stroke-width="2.4" />
      <circle cx="24" cy="-7" r="15" fill="#fffdf8" stroke="#3a2461" stroke-width="2.4" />
      <path d="M-31 6 Q0 25 31 6" fill="#b9d9ee" opacity="0.58" />
    </g>
    <g transform="translate(390 181) scale(0.58)" opacity="0.94">
      <ellipse cx="0" cy="0" rx="35" ry="14" fill="#fffdf8" stroke="#3a2461" stroke-width="2.4" />
      <circle cx="-20" cy="-8" r="16" fill="#fffdf8" stroke="#3a2461" stroke-width="2.4" />
      <circle cx="2" cy="-14" r="22" fill="#fffdf8" stroke="#3a2461" stroke-width="2.4" />
      <circle cx="24" cy="-7" r="15" fill="#fffdf8" stroke="#3a2461" stroke-width="2.4" />
      <path d="M-31 6 Q0 25 31 6" fill="#b9d9ee" opacity="0.58" />
    </g>
    <path d="M12 136 Q200 102 388 136" fill="none" stroke="#75558f" stroke-width="2" opacity="0.65" />
    <path d="M34 132 l12 20 12-24 12 19 12-23 12 18 M306 132 l12 20 12-24 12 19 12-23 12 18" fill="#f7c54a" stroke="#3a2461" stroke-width="1.5" stroke-linejoin="round" />
  </g>
  <g inkscape:groupmode="layer" inkscape:label="05 carry-high choice clue" id="dpt-high-layer">
    <path d="M100 143 Q124 115 148 143" fill="none" stroke="#8b5a3c" stroke-width="6" stroke-linecap="round" />
    <path d="M96 143 H152 L146 171 Q124 178 102 171Z" fill="#dba95e" stroke="#3a2461" stroke-width="2.7" />
    <path d="M102 152 H146 M109 143 L110 173 M124 142 V176 M139 143 L138 173" fill="none" stroke="#9f6d3f" stroke-width="1.6" />
    <g fill="#f26f6f" stroke="#3a2461" stroke-width="1.4">
      <circle cx="109" cy="140" r="5.5" />
      <circle cx="123" cy="136" r="5.5" />
      <circle cx="137" cy="140" r="5.5" />
    </g>
    <path d="M124 127 V93 M116 103 L124 91 L132 103" fill="none" stroke="#f7c54a" stroke-width="4" stroke-linecap="round" stroke-linejoin="round" />
    <g fill="#f7c54a" stroke="#3a2461" stroke-width="1.4">
      <path d="M91 120 l2 5 5 2-5 2-2 5-2-5-5-2 5-2Z" />
      <path d="M153 111 l2 5 5 2-5 2-2 5-2-5-5-2 5-2Z" />
    </g>
  </g>
  <g inkscape:groupmode="layer" inkscape:label="06 little wagon choice clue" id="dpt-wagon-layer">
    <path d="M255 165 H310 L302 194 H264Z" fill="#e98080" stroke="#3a2461" stroke-width="3" />
    <path d="M259 166 l-18-18" stroke="#3a2461" stroke-width="4" stroke-linecap="round" />
    <circle cx="270" cy="199" r="8" fill="#f7c54a" stroke="#3a2461" stroke-width="2.5" />
    <circle cx="296" cy="199" r="8" fill="#f7c54a" stroke="#3a2461" stroke-width="2.5" />
    <path d="M265 161 Q282 139 299 161" fill="none" stroke="#8b5a3c" stroke-width="5" />
    <path d="M264 161 H302 L298 179 Q283 184 268 179Z" fill="#dba95e" stroke="#3a2461" stroke-width="2.2" />
    <g fill="#f26f6f" stroke="#3a2461" stroke-width="1.2">
      <circle cx="273" cy="158" r="4.5" />
      <circle cx="283" cy="154" r="4.5" />
      <circle cx="293" cy="158" r="4.5" />
    </g>
  </g>
  <g inkscape:groupmode="layer" inkscape:label="07 Princess Poppy decides" id="dpt-poppy-layer">
    <ellipse cx="196" cy="232" rx="37" ry="7" fill="#3a2461" opacity="0.15" filter="url(#dpt-shadow)" />
    <path d="M173 181 C164 175 158 168 155 160 M219 181 C228 175 234 168 237 160" fill="none" stroke="#f6d3b3" stroke-width="6.5" stroke-linecap="round" />
    <path d="M172 172 C175 160 183 154 196 154 C209 154 217 161 220 174 L224 218 C207 223 184 223 167 217Z" fill="#f36fa3" stroke="#3a2461" stroke-width="3.4" />
    <path d="M186 219 v10 M208 219 v10" stroke="#5b4677" stroke-width="7" stroke-linecap="round" />
    <path d="M179 231 h15 M201 231 h15" stroke="#3a2461" stroke-width="5" stroke-linecap="round" />
    <circle cx="196" cy="136" r="20" fill="#f6d3b3" stroke="#3a2461" stroke-width="3.3" />
    <path d="M177 135 C173 118 184 109 198 109 C211 109 219 119 216 135 C210 126 203 122 193 122 C187 122 182 127 177 135Z" fill="#8a5a34" stroke="#3a2461" stroke-width="3" />
    <path d="M179 129 q-8 8-2 18 M215 129 q8 8 2 18" fill="none" stroke="#8a5a34" stroke-width="5" stroke-linecap="round" />
    <circle cx="189" cy="137" r="2.2" fill="#3a2461" />
    <circle cx="203" cy="137" r="2.2" fill="#3a2461" />
    <ellipse cx="196" cy="146" rx="2.7" ry="3.2" fill="#3a2461" />
    <path d="M175 117 H218 L213 109 H180Z" fill="#e8c07a" stroke="#3a2461" stroke-width="2.7" />
    <path d="M183 109 L188 98 L196 107 L203 97 L210 109Z" fill="#f6c343" stroke="#3a2461" stroke-width="2.4" />
  </g>
  <g inkscape:groupmode="layer" inkscape:label="08 equal choice sparkles" id="dpt-sparkle-layer">
    <g fill="#f7c54a" stroke="#3a2461" stroke-width="1.4">
      <path d="M92 153 l2 5 5 2-5 2-2 5-2-5-5-2 5-2Z" />
      <path d="M319 153 l2 5 5 2-5 2-2 5-2-5-5-2 5-2Z" />
    </g>
  </g>
  <g inkscape:groupmode="layer" inkscape:label="09 foreground cloud wisps" id="cv-protect-09-layer">
    <g fill="#d8ecf6" stroke="#3a2461" stroke-width="1.8" opacity="0.94">
      <circle cx="-4" cy="248" r="30" />
      <circle cx="28" cy="247" r="22" />
      <circle cx="54" cy="252" r="19" />
      <circle cx="404" cy="247" r="31" />
      <circle cx="371" cy="248" r="23" />
      <circle cx="345" cy="253" r="18" />
    </g>
    <g fill="#ffffff" opacity="0.7">
      <ellipse cx="30" cy="240" rx="24" ry="7" />
      <ellipse cx="372" cy="239" rx="25" ry="7" />
    </g>
  </g>
</svg>