<svg xmlns="http://www.w3.org/2000/svg" viewBox="0 0 100 100" width="100" height="100">
  <path d="M50 52 L12 36 Q22 46 15 52 Q27 50 21 61 Q34 55 31 66 Q42 57 50 63 Z" fill="#6b5aa0" stroke="#3a2461" stroke-width="3" stroke-linejoin="round"/>
  <path d="M50 52 L88 36 Q78 46 85 52 Q73 50 79 61 Q66 55 69 66 Q58 57 50 63 Z" fill="#6b5aa0" stroke="#3a2461" stroke-width="3" stroke-linejoin="round"/>
  <polygon points="42,40 45,29 51,39" fill="#7c6bb5" stroke="#3a2461" stroke-width="3" stroke-linejoin="round"/>
  <polygon points="58,40 55,29 49,39" fill="#7c6bb5" stroke="#3a2461" stroke-width="3" stroke-linejoin="round"/>
  <ellipse cx="50" cy="52" rx="12" ry="15" fill="#7c6bb5" stroke="#3a2461" stroke-width="3"/>
  <circle cx="45" cy="49" r="2.6" fill="#ffffff"/>
  <circle cx="55" cy="49" r="2.6" fill="#ffffff"/>
  <circle cx="45" cy="49" r="1.2" fill="#3a2461"/>
  <circle cx="55" cy="49" r="1.2" fill="#3a2461"/>
</svg>
