<svg xmlns="http://www.w3.org/2000/svg" viewBox="0 0 560 315" role="img" aria-labelledby="title description">
  <title id="title">A little house with a triangle roof</title>
  <desc id="description">A sunny yard with a house, a clear triangle roof, and a square window.</desc>
  <rect width="560" height="315" rx="28" fill="#89d8e8"/>
  <path d="M0 237c93-26 174-19 254 2 95 24 190 14 306-10v86H0z" fill="#59b87a"/>
  <circle cx="83" cy="72" r="38" fill="#ffd166" stroke="#3a2461" stroke-width="8"/>
  <g stroke="#3a2461" stroke-width="8" stroke-linejoin="round">
    <rect x="193" y="138" width="213" height="132" rx="8" fill="#ffe08a"/>
    <path d="M166 145 300 43l134 102z" fill="#f47f79"/>
    <rect x="226" y="181" width="58" height="58" rx="4" fill="#8ac7f5"/>
    <path d="M255 183v54M228 210h54" fill="none" stroke-width="6"/>
    <rect x="329" y="181" width="48" height="89" rx="6" fill="#8f6bc8"/>
    <circle cx="365" cy="226" r="5" fill="#ffd166" stroke-width="3"/>
  </g>
  <g fill="#ffffff" opacity="0.9">
    <circle cx="469" cy="74" r="22"/>
    <circle cx="498" cy="68" r="30"/>
    <circle cx="528" cy="78" r="20"/>
  </g>
  <g fill="#f7a8c4" stroke="#3a2461" stroke-width="5">
    <circle cx="111" cy="247" r="13"/>
    <circle cx="139" cy="236" r="12"/>
    <circle cx="159" cy="258" r="11"/>
  </g>
</svg>
