<?xml version="1.0" encoding="UTF-8" standalone="no"?>
<svg
   width="400"
   height="250"
   viewBox="0 0 400 250"
   version="1.1"
   id="svg48"
   xmlns="http://www.w3.org/2000/svg"
   xmlns:svg="http://www.w3.org/2000/svg">
  <defs
     id="defs2">
    <linearGradient
       id="bush-sky"
       x1="0"
       y1="0"
       x2="0"
       y2="1">
      <stop
         offset="0"
         stop-color="#d9eef8"
         id="stop1" />
      <stop
         offset="1"
         stop-color="#f7ead7"
         id="stop2" />
    </linearGradient>
    <filter
       id="bush-shadow"
       x="-0.080000003"
       y="-0.41142859"
       width="1.16"
       height="1.8228572">
      <feGaussianBlur
         stdDeviation="2.4"
         id="feGaussianBlur2" />
    </filter>
  </defs>
  <g
     id="bush-sky-layer">
    <rect
       width="400"
       height="250"
       fill="url(#bush-sky)"
       id="rect2" />
    <circle
       cx="72"
       cy="43"
       r="22"
       fill="#ffe39a"
       opacity="0.48"
       id="circle2" />
    <circle
       cx="72"
       cy="43"
       r="13"
       fill="#fff5ca"
       opacity="0.88"
       id="circle3" />
    <path
       d="M278 48 C293 37 312 40 319 52 C329 42 348 44 354 58 C369 57 378 66 374 75 H268 C264 63 269 54 278 48Z"
       fill="#fff"
       opacity="0.42"
       id="path3" />
  </g>
  <g
     id="bush-depth-layer">
    <path
       d="M0 119 C48 92 94 99 138 113 C185 88 233 95 273 112 C317 89 361 95 400 115 V191 H0Z"
       fill="#bad99b"
       id="path4" />
    <path
       d="M0 144 C47 122 90 128 128 142 C174 117 223 124 261 145 C309 120 358 126 400 145 V202 H0Z"
       fill="#91c486"
       id="path5" />
    <g
       fill="#67a478"
       stroke="#3a2461"
       stroke-width="2"
       stroke-linejoin="round"
       opacity="0.7"
       id="g9">
      <path
         d="M18 133 L37 81 L55 133Z"
         id="path6" />
      <path
         d="M56 135 L78 73 L100 135Z"
         id="path7" />
      <path
         d="M289 135 L312 74 L335 135Z"
         id="path8" />
      <path
         d="M343 137 L366 82 L389 137Z"
         id="path9" />
    </g>
    <g
       fill="#4f8e6d"
       opacity="0.46"
       id="g11">
      <circle
         cx="140"
         cy="136"
         r="24"
         id="circle9" />
      <circle
         cx="184"
         cy="139"
         r="18"
         id="circle10" />
      <circle
         cx="247"
         cy="136"
         r="25"
         id="circle11" />
    </g>
  </g>
  <g
     id="bush-ground-layer">
    <path
       d="M0 166 C64 149 123 157 176 172 C230 150 303 150 400 167 V250 H0Z"
       fill="#78b78b"
       id="path11" />
    <path
       d="M0 208 C84 183 159 198 223 210 C292 186 348 191 400 206 V250 H0Z"
       fill="#529970"
       id="path12" />
    <path
       d="M173 250 C192 226 219 211 257 198 C292 186 328 187 361 196 C327 201 298 212 278 226 C263 237 255 245 251 250Z"
       fill="#f1d7a7"
       stroke="#3a2461"
       stroke-width="2.2"
       opacity="0.92"
       id="path13" />
  </g>
  <g
     id="bush-tree-layer">
    <path
       d="M31 210 C36 171 35 132 44 99"
       fill="none"
       stroke="#8b5a3c"
       stroke-width="12"
       stroke-linecap="round"
       id="path14" />
    <path
       d="M43 139 C57 126 71 120 85 121"
       fill="none"
       stroke="#8b5a3c"
       stroke-width="6"
       stroke-linecap="round"
       id="path15" />
    <g
       fill="#76b681"
       stroke="#3a2461"
       stroke-width="2.7"
       id="g18">
      <circle
         cx="45"
         cy="88"
         r="29"
         id="circle15" />
      <circle
         cx="24"
         cy="112"
         r="21"
         id="circle16" />
      <circle
         cx="70"
         cy="111"
         r="25"
         id="circle17" />
      <circle
         cx="89"
         cy="137"
         r="18"
         id="circle18" />
    </g>
    <path
       d="M371 210 C368 177 368 145 362 113"
       fill="none"
       stroke="#8b5a3c"
       stroke-width="10"
       stroke-linecap="round"
       id="path18" />
    <g
       fill="#6eaa7d"
       stroke="#3a2461"
       stroke-width="2.5"
       id="g21">
      <circle
         cx="361"
         cy="96"
         r="27"
         id="circle19" />
      <circle
         cx="337"
         cy="117"
         r="21"
         id="circle20" />
      <circle
         cx="383"
         cy="122"
         r="24"
         id="circle21" />
    </g>
  </g>
  <g
     id="bush-focal-layer">
    <ellipse
       cx="302"
       cy="230"
       rx="66"
       ry="8"
       fill="#3a2461"
       opacity="0.14"
       filter="url(#bush-shadow)"
       id="ellipse21" />
    <path
       d="M253 218 C240 194 252 174 273 170 C277 150 301 143 317 158 C333 145 357 158 354 179 C373 187 372 213 354 222 C328 234 278 234 253 218Z"
       fill="#5aa173"
       stroke="#3a2461"
       stroke-width="3.5"
       stroke-linejoin="round"
       id="path21" />
    <g
       fill="#7fbd86"
       stroke="#3a2461"
       stroke-width="2.2"
       id="g27">
      <circle
         cx="270"
         cy="185"
         r="19"
         id="circle22" />
      <circle
         cx="300"
         cy="170"
         r="22"
         id="circle23" />
      <circle
         cx="332"
         cy="180"
         r="22"
         id="circle24" />
      <circle
         cx="349"
         cy="204"
         r="18"
         id="circle25" />
      <circle
         cx="279"
         cy="211"
         r="21"
         id="circle26" />
      <circle
         cx="318"
         cy="208"
         r="24"
         id="circle27" />
    </g>
    <g
       fill="#acd192"
       opacity="0.8"
       id="g30">
      <circle
         cx="265"
         cy="181"
         r="7"
         id="circle28" />
      <circle
         cx="297"
         cy="165"
         r="8"
         id="circle29" />
      <circle
         cx="335"
         cy="177"
         r="7"
         id="circle30" />
    </g>
    <path
       d="M278 181 C299 194 315 178 334 198 M265 206 C285 189 315 216 346 199"
       fill="none"
       stroke="#3a2461"
       stroke-width="2"
       stroke-linecap="round"
       opacity="0.55"
       id="path30" />
  </g>
  <g
     id="bush-biscuit-layer">
    <path
       d="M324 160 C332 144 347 139 354 126 C360 143 353 158 339 169"
       fill="none"
       stroke="#e8b04b"
       stroke-width="9"
       stroke-linecap="round"
       id="path31" />
    <path
       d="M350 129 q8-8 13-3"
       fill="none"
       stroke="#3a2461"
       stroke-width="2.2"
       stroke-linecap="round"
       id="path32" />
    <g
       fill="#f7c54a"
       stroke="#3a2461"
       stroke-width="1.4"
       id="g34">
      <path
         d="M361 112 l2.5 6 6 2.5-6 2.5-2.5 6-2.5-6-6-2.5 6-2.5Z"
         id="path33" />
      <path
         d="M239 169 l2 5 5 2-5 2-2 5-2-5-5-2 5-2Z"
         id="path34" />
    </g>
  </g>
  <g
     id="bush-poppy-layer">
    <ellipse
       cx="137"
       cy="232"
       rx="36"
       ry="7"
       fill="#3a2461"
       opacity="0.15"
       filter="url(#bush-shadow)"
       id="ellipse34" />
    <path
       d="M114 182 C103 188 101 198 106 205 M158 181 C170 178 178 169 180 160"
       fill="none"
       stroke="#f6d3b3"
       stroke-width="6.5"
       stroke-linecap="round"
       id="path35" />
    <circle
       cx="180"
       cy="158"
       r="4"
       fill="#f6d3b3"
       stroke="#3a2461"
       stroke-width="1.7"
       id="circle35" />
    <path
       d="M113 172 C116 160 124 154 136 154 C149 154 157 161 160 174 L164 218 C147 223 124 223 107 217Z"
       fill="#f36fa3"
       stroke="#3a2461"
       stroke-width="3.4"
       stroke-linejoin="round"
       id="path36" />
    <path
       d="M118 174 C127 182 146 182 155 174 L158 204 C143 210 124 210 111 204Z"
       fill="#fb8eb6"
       opacity="0.72"
       id="path37" />
    <path
       d="M126 219 v10 M148 219 v10"
       stroke="#5b4677"
       stroke-width="7"
       stroke-linecap="round"
       id="path38" />
    <path
       d="M119 231 h15 M141 231 h15"
       stroke="#3a2461"
       stroke-width="5"
       stroke-linecap="round"
       id="path39" />
    <circle
       cx="136"
       cy="136"
       r="20"
       fill="#f6d3b3"
       stroke="#3a2461"
       stroke-width="3.3"
       id="circle39" />
    <path
       d="M117 135 C113 118 124 109 138 109 C151 109 159 119 156 135 C150 126 143 122 133 122 C127 122 122 127 117 135Z"
       fill="#8a5a34"
       stroke="#3a2461"
       stroke-width="3"
       stroke-linejoin="round"
       id="path40" />
    <path
       d="M119 129 q-8 8-2 18 M155 129 q8 8 2 18"
       fill="none"
       stroke="#8a5a34"
       stroke-width="5"
       stroke-linecap="round"
       id="path41" />
    <circle
       cx="129"
       cy="137"
       r="2.2"
       fill="#3a2461"
       id="circle41" />
    <circle
       cx="143"
       cy="137"
       r="2.2"
       fill="#3a2461"
       id="circle42" />
    <ellipse
       cx="136"
       cy="146"
       rx="2.6"
       ry="3.1"
       fill="#3a2461"
       id="ellipse42" />
    <path
       d="M115 117 H158 L153 109 H120Z"
       fill="#e8c07a"
       stroke="#3a2461"
       stroke-width="2.7"
       stroke-linejoin="round"
       id="path42" />
    <path
       d="M123 109 L128 98 L136 107 L143 97 L150 109Z"
       fill="#f6c343"
       stroke="#3a2461"
       stroke-width="2.4"
       stroke-linejoin="round"
       id="path43" />
  </g>
  <g
     id="bush-foreground-layer">
    <path
       d="M0 234 C19 224 36 227 53 240 V250 H0Z"
       fill="#38795d"
       id="path44" />
    <path
       d="M400 232 C382 223 364 228 348 243 V250 H400Z"
       fill="#38795d"
       id="path45" />
    <g
       fill="#75b68a"
       stroke="#3a2461"
       stroke-width="1.7"
       id="g48">
      <ellipse
         cx="14"
         cy="230"
         rx="8"
         ry="15"
         transform="rotate(-28 14 230)"
         id="ellipse45" />
      <ellipse
         cx="33"
         cy="233"
         rx="8"
         ry="16"
         transform="rotate(22 33 233)"
         id="ellipse46" />
      <ellipse
         cx="373"
         cy="233"
         rx="8"
         ry="16"
         transform="rotate(-20 373 233)"
         id="ellipse47" />
      <ellipse
         cx="391"
         cy="228"
         rx="8"
         ry="15"
         transform="rotate(28 391 228)"
         id="ellipse48" />
    </g>
  </g>
</svg>
