<?xml version="1.0" encoding="UTF-8" standalone="no"?>
<svg
   width="400"
   height="250"
   viewBox="0 0 400 250"
   version="1.1"
   id="svg48"
   xmlns="http://www.w3.org/2000/svg"
   xmlns:svg="http://www.w3.org/2000/svg">
  <defs
     id="defs4">
    <linearGradient
       id="di-sky"
       x1="0"
       y1="0"
       x2="0"
       y2="1">
      <stop
         offset="0"
         stop-color="#d9eef8"
         id="stop1" />
      <stop
         offset="1"
         stop-color="#f9e5cf"
         id="stop2" />
    </linearGradient>
    <linearGradient
       id="di-path"
       x1="0"
       y1="0"
       x2="1"
       y2="1">
      <stop
         offset="0"
         stop-color="#fff4d6"
         id="stop3" />
      <stop
         offset="1"
         stop-color="#e5c18a"
         id="stop4" />
    </linearGradient>
    <filter
       id="di-shadow"
       x="-0.076666665"
       y="-0.39428571"
       width="1.1533333"
       height="1.7885714">
      <feGaussianBlur
         stdDeviation="2.3"
         id="feGaussianBlur4" />
    </filter>
  </defs>
  <g
     id="di-sky-layer">
    <rect
       width="400"
       height="250"
       fill="url(#di-sky)"
       id="rect4" />
    <circle
       cx="72"
       cy="43"
       r="25"
       fill="#ffe39a"
       opacity="0.52"
       id="circle4" />
    <circle
       cx="72"
       cy="43"
       r="14"
       fill="#fff5ca"
       id="circle5" />
    <path
       d="M276 48 C291 37 310 40 318 52 C329 42 348 44 354 58 C369 57 378 66 374 75 H267 C264 63 269 54 276 48Z"
       fill="#fff"
       opacity="0.44"
       id="path5" />
  </g>
  <g
     id="di-depth-layer">
    <path
       d="M0 118 C47 92 94 99 138 113 C185 88 233 95 273 112 C317 89 361 95 400 115 V191 H0Z"
       fill="#bad99b"
       id="path6" />
    <path
       d="M0 144 C47 121 90 128 128 142 C174 117 223 124 261 145 C309 120 358 126 400 145 V202 H0Z"
       fill="#91c486"
       id="path7" />
    <g
       fill="#67a478"
       stroke="#3a2461"
       stroke-width="2"
       opacity="0.7"
       id="g11">
      <path
         d="M15 134 L36 78 L57 134Z"
         id="path8" />
      <path
         d="M54 135 L77 72 L100 135Z"
         id="path9" />
      <path
         d="M292 136 L315 73 L338 136Z"
         id="path10" />
      <path
         d="M342 137 L366 80 L390 137Z"
         id="path11" />
    </g>
  </g>
  <g
     id="di-ground-layer">
    <path
       d="M0 166 C64 149 123 157 176 172 C230 150 303 150 400 167 V250 H0Z"
       fill="#78b78b"
       id="path12" />
    <path
       d="M0 208 C84 183 159 198 223 210 C292 186 348 191 400 206 V250 H0Z"
       fill="#529970"
       id="path13" />
    <path
       d="M168 250 C185 226 213 209 250 197 C290 184 328 187 365 197 C329 202 299 213 278 227 C262 238 255 246 251 250Z"
       fill="url(#di-path)"
       stroke="#3a2461"
       stroke-width="2.2"
       id="path14" />
  </g>
  <g
     id="di-tree-layer">
    <path
       d="M31 211 C36 171 35 132 44 98"
       fill="none"
       stroke="#8b5a3c"
       stroke-width="12"
       stroke-linecap="round"
       id="path15" />
    <g
       fill="#76b681"
       stroke="#3a2461"
       stroke-width="2.7"
       id="g17">
      <circle
         cx="45"
         cy="87"
         r="29"
         id="circle15" />
      <circle
         cx="23"
         cy="112"
         r="21"
         id="circle16" />
      <circle
         cx="70"
         cy="111"
         r="25"
         id="circle17" />
    </g>
    <path
       d="M370 210 C367 176 367 145 361 112"
       fill="none"
       stroke="#8b5a3c"
       stroke-width="10"
       stroke-linecap="round"
       id="path17" />
    <g
       fill="#6eaa7d"
       stroke="#3a2461"
       stroke-width="2.5"
       id="g20">
      <circle
         cx="360"
         cy="95"
         r="27"
         id="circle18" />
      <circle
         cx="337"
         cy="117"
         r="21"
         id="circle19" />
      <circle
         cx="383"
         cy="121"
         r="24"
         id="circle20" />
    </g>
  </g>
  <g
     id="di-flags-layer">
    <path
       d="M118 65 C171 44 231 44 286 65"
       fill="none"
       stroke="#3a2461"
       stroke-width="2.2"
       id="path20" />
    <path
       d="M129 61 l9 16 9-16Z"
       fill="#f36fa3"
       stroke="#3a2461"
       stroke-width="1.8"
       id="path21" />
    <path
       d="M174 50 l9 16 9-16Z"
       fill="#f7c54a"
       stroke="#3a2461"
       stroke-width="1.8"
       id="path22" />
    <path
       d="M220 50 l9 16 9-16Z"
       fill="#9fc7e8"
       stroke="#3a2461"
       stroke-width="1.8"
       id="path23" />
    <path
       d="M264 59 l9 16 9-16Z"
       fill="#a777bb"
       stroke="#3a2461"
       stroke-width="1.8"
       id="path24" />
    <g
       fill="#f7c54a"
       stroke="#3a2461"
       stroke-width="1.5"
       id="g26">
      <path
         d="M190 103 l3 7 7 3-7 3-3 7-3-7-7-3 7-3Z"
         id="path25" />
      <path
         d="M305 140 l2 5 5 2-5 2-2 5-2-5-5-2 5-2Z"
         id="path26" />
    </g>
  </g>
  <g
     id="di-basket-layer">
    <ellipse
       cx="278"
       cy="231"
       rx="49"
       ry="8"
       fill="#3a2461"
       opacity="0.14"
       filter="url(#di-shadow)"
       id="ellipse26" />
    <path
       d="M244 194 Q278 159 312 194"
       fill="none"
       stroke="#8b5a3c"
       stroke-width="8"
       stroke-linecap="round"
       id="path27" />
    <path
       d="M239 194 H317 L309 228 Q278 238 247 228Z"
       fill="#dba95e"
       stroke="#3a2461"
       stroke-width="3.2"
       stroke-linejoin="round"
       id="path28" />
    <path
       d="M246 204 H311 M250 216 H307 M258 194 L260 231 M278 193 V233 M298 194 L296 231"
       fill="none"
       stroke="#9f6d3f"
       stroke-width="2"
       opacity="0.72"
       id="path29" />
    <g
       fill="#f26f6f"
       stroke="#3a2461"
       stroke-width="1.8"
       id="g32">
      <circle
         cx="258"
         cy="190"
         r="8"
         id="circle29" />
      <circle
         cx="274"
         cy="186"
         r="8"
         id="circle30" />
      <circle
         cx="291"
         cy="190"
         r="8"
         id="circle31" />
      <circle
         cx="304"
         cy="185"
         r="7"
         id="circle32" />
    </g>
    <g
       fill="#f7c54a"
       stroke="#3a2461"
       stroke-width="1.3"
       id="g33">
      <path
         d="M278 167 l2.5 6 6 2.5-6 2.5-2.5 6-2.5-6-6-2.5 6-2.5Z"
         id="path32" />
      <path
         d="M320 181 l2 5 5 2-5 2-2 5-2-5-5-2 5-2Z"
         id="path33" />
    </g>
  </g>
  <g
     id="di-poppy-layer">
    <ellipse
       cx="134"
       cy="232"
       rx="36"
       ry="7"
       fill="#3a2461"
       opacity="0.15"
       filter="url(#di-shadow)"
       id="ellipse33" />
    <path
       d="M111 181 C99 184 95 194 100 202 M157 181 C169 184 174 193 171 201"
       fill="none"
       stroke="#f6d3b3"
       stroke-width="6.5"
       stroke-linecap="round"
       id="path34" />
    <path
       d="M110 172 C113 160 121 154 134 154 C147 154 155 161 158 174 L162 218 C145 223 122 223 105 217Z"
       fill="#f36fa3"
       stroke="#3a2461"
       stroke-width="3.4"
       id="path35" />
    <path
       d="M124 219 v10 M146 219 v10"
       stroke="#5b4677"
       stroke-width="7"
       stroke-linecap="round"
       id="path36" />
    <path
       d="M117 231 h15 M139 231 h15"
       stroke="#3a2461"
       stroke-width="5"
       stroke-linecap="round"
       id="path37" />
    <circle
       cx="134"
       cy="136"
       r="20"
       fill="#f6d3b3"
       stroke="#3a2461"
       stroke-width="3.3"
       id="circle37" />
    <path
       d="M115 135 C111 118 122 109 136 109 C149 109 157 119 154 135 C148 126 141 122 131 122 C125 122 120 127 115 135Z"
       fill="#8a5a34"
       stroke="#3a2461"
       stroke-width="3"
       id="path38" />
    <path
       d="M117 129 q-8 8-2 18 M153 129 q8 8 2 18"
       fill="none"
       stroke="#8a5a34"
       stroke-width="5"
       stroke-linecap="round"
       id="path39" />
    <circle
       cx="127"
       cy="137"
       r="2.1"
       fill="#3a2461"
       id="circle39" />
    <circle
       cx="141"
       cy="137"
       r="2.1"
       fill="#3a2461"
       id="circle40" />
    <path
       d="M128 146 q6 5 12 0"
       fill="none"
       stroke="#3a2461"
       stroke-width="2.2"
       stroke-linecap="round"
       id="path40" />
    <path
       d="M113 117 H156 L151 109 H118Z"
       fill="#e8c07a"
       stroke="#3a2461"
       stroke-width="2.7"
       id="path41" />
    <path
       d="M121 109 L126 98 L134 107 L141 97 L148 109Z"
       fill="#f6c343"
       stroke="#3a2461"
       stroke-width="2.4"
       id="path42" />
  </g>
  <g
     id="di-connection-layer">
    <path
       d="M162 177 C185 165 208 166 231 180"
       fill="none"
       stroke="#fff3d4"
       stroke-width="4"
       stroke-linecap="round"
       opacity="0.8"
       id="path43" />
    <g
       fill="#f39ab7"
       stroke="#3a2461"
       stroke-width="1.4"
       id="g44">
      <circle
         cx="92"
         cy="214"
         r="3.5"
         id="circle43" />
      <circle
         cx="331"
         cy="211"
         r="3.5"
         id="circle44" />
    </g>
  </g>
  <g
     id="di-foreground-layer">
    <path
       d="M0 234 C19 224 36 227 53 240 V250 H0Z"
       fill="#38795d"
       id="path44" />
    <path
       d="M400 232 C382 223 364 228 348 243 V250 H400Z"
       fill="#38795d"
       id="path45" />
    <g
       fill="#75b68a"
       stroke="#3a2461"
       stroke-width="1.7"
       id="g48">
      <ellipse
         cx="14"
         cy="230"
         rx="8"
         ry="15"
         transform="rotate(-28 14 230)"
         id="ellipse45" />
      <ellipse
         cx="33"
         cy="233"
         rx="8"
         ry="16"
         transform="rotate(22 33 233)"
         id="ellipse46" />
      <ellipse
         cx="373"
         cy="233"
         rx="8"
         ry="16"
         transform="rotate(-20 373 233)"
         id="ellipse47" />
      <ellipse
         cx="391"
         cy="228"
         rx="8"
         ry="15"
         transform="rotate(28 391 228)"
         id="ellipse48" />
    </g>
  </g>
</svg>
