<?xml version="1.0" encoding="UTF-8" standalone="no"?>
<svg
   width="400"
   height="250"
   viewBox="0 0 400 250"
   version="1.1"
   id="svg63"
   xmlns="http://www.w3.org/2000/svg"
   xmlns:svg="http://www.w3.org/2000/svg">
  <defs
     id="defs5">
    <linearGradient
       id="dm-sky"
       x1="0"
       y1="0"
       x2="0"
       y2="1">
      <stop
         offset="0"
         stop-color="#d9eef8"
         id="stop1" />
      <stop
         offset="1"
         stop-color="#f9e5cf"
         id="stop2" />
    </linearGradient>
    <filter
       id="dm-shadow"
       x="-0.068999999"
       y="-0.39428571"
       width="1.138"
       height="1.7885714">
      <feGaussianBlur
         stdDeviation="2.3"
         id="feGaussianBlur2" />
    </filter>
    <linearGradient
       id="cv-meadow-sky"
       x1="0"
       y1="0"
       x2="0"
       y2="1">
      <stop
         offset="0"
         stop-color="#91cff0"
         id="stop3" />
      <stop
         offset="0.58"
         stop-color="#d9eef8"
         id="stop4" />
      <stop
         offset="1"
         stop-color="#f9e5cf"
         id="stop5" />
    </linearGradient>
  </defs>
  <g
     id="cv-meadow-01-layer">
    <rect
       width="400"
       height="250"
       fill="url(#cv-meadow-sky)"
       id="rect5" />
    <circle
       cx="68"
       cy="43"
       r="27"
       fill="#ffe39a"
       opacity="0.38"
       id="circle5" />
    <circle
       cx="68"
       cy="43"
       r="15"
       fill="#fff5ca"
       id="circle6" />
    <g
       transform="translate(128 69) scale(0.48)"
       opacity="0.55"
       id="g9">
      <ellipse
         cx="0"
         cy="0"
         rx="35"
         ry="14"
         fill="#fffdf8"
         stroke="#3a2461"
         stroke-width="2.4"
         id="ellipse6" />
      <circle
         cx="-20"
         cy="-8"
         r="16"
         fill="#fffdf8"
         stroke="#3a2461"
         stroke-width="2.4"
         id="circle7" />
      <circle
         cx="2"
         cy="-14"
         r="22"
         fill="#fffdf8"
         stroke="#3a2461"
         stroke-width="2.4"
         id="circle8" />
      <circle
         cx="24"
         cy="-7"
         r="15"
         fill="#fffdf8"
         stroke="#3a2461"
         stroke-width="2.4"
         id="circle9" />
      <path
         d="M-31 6 Q0 25 31 6"
         fill="#b9d9ee"
         opacity="0.58"
         id="path9" />
    </g>
    <g
       transform="translate(310 85) scale(0.4)"
       opacity="0.45"
       id="g12">
      <ellipse
         cx="0"
         cy="0"
         rx="35"
         ry="14"
         fill="#fffdf8"
         stroke="#3a2461"
         stroke-width="2.4"
         id="ellipse9" />
      <circle
         cx="-20"
         cy="-8"
         r="16"
         fill="#fffdf8"
         stroke="#3a2461"
         stroke-width="2.4"
         id="circle10" />
      <circle
         cx="2"
         cy="-14"
         r="22"
         fill="#fffdf8"
         stroke="#3a2461"
         stroke-width="2.4"
         id="circle11" />
      <circle
         cx="24"
         cy="-7"
         r="15"
         fill="#fffdf8"
         stroke="#3a2461"
         stroke-width="2.4"
         id="circle12" />
      <path
         d="M-31 6 Q0 25 31 6"
         fill="#b9d9ee"
         opacity="0.58"
         id="path12" />
    </g>
    <g
       fill="#fff7ca"
       stroke="#3a2461"
       stroke-width="1.2"
       opacity="0.85"
       id="g15">
      <path
         d="M164 42 l3 7 7 3-7 3-3 7-3-7-7-3 7-3Z"
         id="path13" />
      <path
         d="M246 72 l2 5 5 2-5 2-2 5-2-5-5-2 5-2Z"
         id="path14" />
      <path
         d="M364 34 l2 5 5 2-5 2-2 5-2-5-5-2 5-2Z"
         id="path15" />
    </g>
  </g>
  <g
     id="cv-meadow-02-layer">
    <g
       transform="translate(62 132) scale(0.72)"
       opacity="0.78"
       id="g17">
      <ellipse
         cx="0"
         cy="0"
         rx="35"
         ry="14"
         fill="#fffdf8"
         stroke="#3a2461"
         stroke-width="2.4"
         id="ellipse15" />
      <circle
         cx="-20"
         cy="-8"
         r="16"
         fill="#fffdf8"
         stroke="#3a2461"
         stroke-width="2.4"
         id="circle15" />
      <circle
         cx="2"
         cy="-14"
         r="22"
         fill="#fffdf8"
         stroke="#3a2461"
         stroke-width="2.4"
         id="circle16" />
      <circle
         cx="24"
         cy="-7"
         r="15"
         fill="#fffdf8"
         stroke="#3a2461"
         stroke-width="2.4"
         id="circle17" />
      <path
         d="M-31 6 Q0 25 31 6"
         fill="#b9d9ee"
         opacity="0.58"
         id="path17" />
    </g>
    <g
       transform="translate(62 125) scale(0.72)"
       id="g20">
      <rect
         x="-19"
         y="-34"
         width="38"
         height="35"
         rx="12"
         fill="#f4b5c9"
         stroke="#3a2461"
         stroke-width="2.5"
         id="rect17" />
      <path
         d="M-24 -31 Q0 -55 24 -31 Q11 -36 0 -34 Q-11 -36 -24 -31Z"
         fill="#d887b1"
         stroke="#3a2461"
         stroke-width="2.4"
         id="path18" />
      <rect
         x="-5"
         y="-16"
         width="10"
         height="17"
         rx="5"
         fill="#75558f"
         id="rect18" />
      <circle
         cx="2"
         cy="-8"
         r="1.4"
         fill="#ffe493"
         id="circle18" />
      <rect
         x="-14"
         y="-25"
         width="8"
         height="8"
         rx="3"
         fill="#fff4b8"
         stroke="#3a2461"
         stroke-width="1.4"
         id="rect19" />
      <rect
         x="7"
         y="-25"
         width="8"
         height="8"
         rx="3"
         fill="#fff4b8"
         stroke="#3a2461"
         stroke-width="1.4"
         id="rect20" />
    </g>
    <g
       transform="translate(337 120) scale(0.68)"
       opacity="0.72"
       id="g22">
      <ellipse
         cx="0"
         cy="0"
         rx="35"
         ry="14"
         fill="#fffdf8"
         stroke="#3a2461"
         stroke-width="2.4"
         id="ellipse20" />
      <circle
         cx="-20"
         cy="-8"
         r="16"
         fill="#fffdf8"
         stroke="#3a2461"
         stroke-width="2.4"
         id="circle20" />
      <circle
         cx="2"
         cy="-14"
         r="22"
         fill="#fffdf8"
         stroke="#3a2461"
         stroke-width="2.4"
         id="circle21" />
      <circle
         cx="24"
         cy="-7"
         r="15"
         fill="#fffdf8"
         stroke="#3a2461"
         stroke-width="2.4"
         id="circle22" />
      <path
         d="M-31 6 Q0 25 31 6"
         fill="#b9d9ee"
         opacity="0.58"
         id="path22" />
    </g>
    <g
       transform="translate(337 113) scale(0.68)"
       id="g25">
      <rect
         x="-19"
         y="-34"
         width="38"
         height="35"
         rx="12"
         fill="#b8dff1"
         stroke="#3a2461"
         stroke-width="2.5"
         id="rect22" />
      <path
         d="M-24 -31 Q0 -55 24 -31 Q11 -36 0 -34 Q-11 -36 -24 -31Z"
         fill="#79b8dc"
         stroke="#3a2461"
         stroke-width="2.4"
         id="path23" />
      <rect
         x="-5"
         y="-16"
         width="10"
         height="17"
         rx="5"
         fill="#75558f"
         id="rect23" />
      <circle
         cx="2"
         cy="-8"
         r="1.4"
         fill="#ffe493"
         id="circle23" />
      <rect
         x="-14"
         y="-25"
         width="8"
         height="8"
         rx="3"
         fill="#fff4b8"
         stroke="#3a2461"
         stroke-width="1.4"
         id="rect24" />
      <rect
         x="7"
         y="-25"
         width="8"
         height="8"
         rx="3"
         fill="#fff4b8"
         stroke="#3a2461"
         stroke-width="1.4"
         id="rect25" />
    </g>
    <path
       d="M93 123 C145 103 205 107 261 124"
       fill="none"
       stroke="#ffffff"
       stroke-width="8"
       stroke-linecap="round"
       opacity="0.5"
       id="path25" />
    <path
       d="M184 116 Q211 91 238 116 Q226 108 211 108 Q196 108 184 116Z"
       fill="#dbc5ef"
       stroke="#3a2461"
       stroke-width="2"
       opacity="0.82"
       id="path26" />
  </g>
  <g
     id="cv-meadow-03-layer">
    <path
       d="M-18 184 Q62 151 144 176 Q211 139 282 171 Q347 151 418 181 V250 H-18Z"
       fill="#e9f4db"
       stroke="#3a2461"
       stroke-width="2.5"
       id="path27" />
    <path
       d="M-18 211 Q64 182 146 201 Q218 170 290 200 Q351 182 418 207 V250 H-18Z"
       fill="#cbe4f2"
       opacity="0.72"
       id="path28" />
    <path
       d="M96 250 Q145 210 204 197 Q264 184 325 201"
       fill="none"
       stroke="#f8e4b9"
       stroke-width="21"
       stroke-linecap="round"
       opacity="0.92"
       id="path29" />
    <path
       d="M104 250 Q151 217 206 205 Q262 193 318 207"
       fill="none"
       stroke="#fff8df"
       stroke-width="3"
       stroke-linecap="round"
       opacity="0.9"
       id="path30" />
  </g>
  <g
     id="cv-meadow-04-layer">
    <g
       fill="#f39ab7"
       stroke="#3a2461"
       stroke-width="1.5"
       id="g33">
      <circle
         cx="42"
         cy="192"
         r="7"
         id="circle30" />
      <circle
         cx="70"
         cy="179"
         r="6"
         id="circle31" />
      <circle
         cx="340"
         cy="183"
         r="7"
         id="circle32" />
      <circle
         cx="370"
         cy="195"
         r="6"
         id="circle33" />
    </g>
    <g
       stroke="#6aa77f"
       stroke-width="3"
       id="g34">
      <path
         d="M42 199 v24 M70 185 v32 M340 190 v30 M370 201 v22"
         id="path33" />
    </g>
    <g
       fill="#ffe08b"
       stroke="#3a2461"
       stroke-width="1.4"
       id="g35">
      <path
         d="M20 177 l3 7 7 3-7 3-3 7-3-7-7-3 7-3Z"
         id="path34" />
      <path
         d="M385 164 l3 7 7 3-7 3-3 7-3-7-7-3 7-3Z"
         id="path35" />
    </g>
  </g>
  <g
     id="dm-butterfly-layer">
    <g
       fill="#bfe8f6"
       stroke="#3a2461"
       stroke-width="1.7"
       id="g37">
      <path
         d="M110 124 q-12-12-19 1 q9 12 19 2 q10 10 19-2 q-7-13-19-1Z"
         id="path36" />
      <path
         d="M303 132 q-11-11-18 1 q8 11 18 2 q9 9 18-2 q-7-12-18-1Z"
         id="path37" />
    </g>
    <g
       fill="#f4b5cc"
       stroke="#3a2461"
       stroke-width="1.7"
       id="g38">
      <path
         d="M230 96 q-10-10-16 1 q7 10 16 2 q8 8 16-2 q-6-11-16-1Z"
         id="path38" />
    </g>
    <path
       d="M110 120 v12 M303 128 v11 M230 92 v12"
       stroke="#3a2461"
       stroke-width="1.5"
       id="path39" />
    <path
       d="M104 113 q3-6 6 0 M110 113 q3-6 6 0 M297 121 q3-6 6 0 M303 121 q3-6 6 0"
       fill="none"
       stroke="#3a2461"
       stroke-width="1.2"
       stroke-linecap="round"
       id="path40" />
  </g>
  <g
     id="dm-basket-layer">
    <path
       d="M216 159 Q239 135 262 159"
       fill="none"
       stroke="#8b5a3c"
       stroke-width="6"
       stroke-linecap="round"
       id="path41" />
    <path
       d="M212 159 H266 L261 186 Q239 193 217 186Z"
       fill="#dba95e"
       stroke="#3a2461"
       stroke-width="2.7"
       id="path42" />
    <path
       d="M217 168 H261 M224 159 L225 188 M239 158 V191 M254 159 L252 188"
       fill="none"
       stroke="#9f6d3f"
       stroke-width="1.7"
       id="path43" />
    <g
       fill="#f26f6f"
       stroke="#3a2461"
       stroke-width="1.5"
       id="g46">
      <circle
         cx="225"
         cy="156"
         r="6"
         id="circle43" />
      <circle
         cx="238"
         cy="152"
         r="6"
         id="circle44" />
      <circle
         cx="251"
         cy="156"
         r="6"
         id="circle45" />
      <circle
         cx="260"
         cy="153"
         r="5"
         id="circle46" />
    </g>
  </g>
  <g
     id="dm-poppy-layer">
    <ellipse
       cx="181"
       cy="232"
       rx="40"
       ry="7"
       fill="#3a2461"
       opacity="0.15"
       filter="url(#dm-shadow)"
       id="ellipse46" />
    <path
       d="M162 181 C173 173 187 173 198 181 M198 181 C208 173 218 169 226 170"
       fill="none"
       stroke="#f6d3b3"
       stroke-width="6"
       stroke-linecap="round"
       id="path46" />
    <path
       d="M157 172 C160 160 168 154 181 154 C194 154 202 161 205 174 L209 218 C192 223 169 223 152 217Z"
       fill="#f36fa3"
       stroke="#3a2461"
       stroke-width="3.4"
       id="path47" />
    <path
       d="M171 219 q-2 8-8 12 M193 219 q6 5 14 8"
       fill="none"
       stroke="#5b4677"
       stroke-width="7"
       stroke-linecap="round"
       id="path48" />
    <path
       d="M154 232 h15 M200 229 h15"
       stroke="#3a2461"
       stroke-width="5"
       stroke-linecap="round"
       id="path49" />
    <circle
       cx="181"
       cy="136"
       r="20"
       fill="#f6d3b3"
       stroke="#3a2461"
       stroke-width="3.3"
       id="circle49" />
    <path
       d="M162 135 C158 118 169 109 183 109 C196 109 204 119 201 135 C195 126 188 122 178 122 C172 122 167 127 162 135Z"
       fill="#8a5a34"
       stroke="#3a2461"
       stroke-width="3"
       id="path50" />
    <path
       d="M164 129 q-8 8-2 18 M200 129 q8 8 2 18"
       fill="none"
       stroke="#8a5a34"
       stroke-width="5"
       stroke-linecap="round"
       id="path51" />
    <path
       d="M171 137 q4 4 8 0 M185 137 q4 4 8 0"
       fill="none"
       stroke="#3a2461"
       stroke-width="2"
       stroke-linecap="round"
       id="path52" />
    <path
       d="M175 146 q6 4 12 0"
       fill="none"
       stroke="#3a2461"
       stroke-width="2.2"
       stroke-linecap="round"
       id="path53" />
    <path
       d="M160 117 H203 L198 109 H165Z"
       fill="#e8c07a"
       stroke="#3a2461"
       stroke-width="2.7"
       id="path54" />
    <path
       d="M168 109 L173 98 L181 107 L188 97 L195 109Z"
       fill="#f6c343"
       stroke="#3a2461"
       stroke-width="2.4"
       id="path55" />
  </g>
  <g
     id="dm-motion-layer">
    <path
       d="M140 221 q-7 4-14 2 M220 220 q8 3 15 0"
       fill="none"
       stroke="#fff3d4"
       stroke-width="3"
       stroke-linecap="round"
       opacity="0.85"
       id="path56" />
    <g
       fill="#f7c54a"
       stroke="#3a2461"
       stroke-width="1.4"
       id="g57">
      <path
         d="M269 124 l2 5 5 2-5 2-2 5-2-5-5-2 5-2Z"
         id="path57" />
    </g>
  </g>
  <g
     id="cv-meadow-09-layer">
    <g
       fill="#d8ecf6"
       stroke="#3a2461"
       stroke-width="1.8"
       opacity="0.94"
       id="g62">
      <circle
         cx="-4"
         cy="248"
         r="30"
         id="circle57" />
      <circle
         cx="28"
         cy="247"
         r="22"
         id="circle58" />
      <circle
         cx="54"
         cy="252"
         r="19"
         id="circle59" />
      <circle
         cx="404"
         cy="247"
         r="31"
         id="circle60" />
      <circle
         cx="371"
         cy="248"
         r="23"
         id="circle61" />
      <circle
         cx="345"
         cy="253"
         r="18"
         id="circle62" />
    </g>
    <g
       fill="#ffffff"
       opacity="0.7"
       id="g63">
      <ellipse
         cx="30"
         cy="240"
         rx="24"
         ry="7"
         id="ellipse62" />
      <ellipse
         cx="372"
         cy="239"
         rx="25"
         ry="7"
         id="ellipse63" />
    </g>
  </g>
</svg>
