<?xml version="1.0" encoding="UTF-8" standalone="no"?>
<svg
   width="400"
   height="250"
   viewBox="0 0 400 250"
   version="1.1"
   id="svg51"
   xmlns="http://www.w3.org/2000/svg"
   xmlns:svg="http://www.w3.org/2000/svg">
  <defs
     id="defs4">
    <linearGradient
       id="ending-sky"
       x1="0"
       y1="0"
       x2="0"
       y2="1">
      <stop
         offset="0"
         stop-color="#d9eef8"
         id="stop1" />
      <stop
         offset="1"
         stop-color="#f9e3d2"
         id="stop2" />
    </linearGradient>
    <linearGradient
       id="ending-path"
       x1="0"
       y1="0"
       x2="1"
       y2="1">
      <stop
         offset="0"
         stop-color="#fff4d6"
         id="stop3" />
      <stop
         offset="1"
         stop-color="#e3be83"
         id="stop4" />
    </linearGradient>
    <filter
       id="ending-shadow"
       x="-0.077837841"
       y="-0.41142859"
       width="1.1556757"
       height="1.8228572">
      <feGaussianBlur
         stdDeviation="2.4"
         id="feGaussianBlur4" />
    </filter>
  </defs>
  <g
     id="ending-sky-layer">
    <rect
       width="400"
       height="250"
       fill="url(#ending-sky)"
       id="rect4" />
    <circle
       cx="72"
       cy="43"
       r="25"
       fill="#ffe39a"
       opacity="0.56"
       id="circle4" />
    <circle
       cx="72"
       cy="43"
       r="14"
       fill="#fff5ca"
       opacity="0.92"
       id="circle5" />
    <path
       d="M278 48 C293 37 312 40 319 52 C329 42 348 44 354 58 C369 57 378 66 374 75 H268 C264 63 269 54 278 48Z"
       fill="#fff"
       opacity="0.46"
       id="path5" />
  </g>
  <g
     id="ending-depth-layer">
    <path
       d="M0 137 C74 126 132 133 197 139 C264 128 329 126 400 138 V181 H0Z"
       fill="#a9c99b"
       id="path6" />
    <g
       stroke="#3a2461"
       stroke-width="2.6"
       stroke-linejoin="round"
       id="g14">
      <rect
         x="-8"
         y="101"
         width="106"
         height="76"
         rx="5"
         fill="#f4c3a1"
         id="rect6" />
      <path
         d="M-14 104 L45 59 L105 104Z"
         fill="#d96f7f"
         id="path7" />
      <rect
         x="17"
         y="121"
         width="20"
         height="24"
         rx="4"
         fill="#ffe9a6"
         id="rect7" />
      <rect
         x="59"
         y="121"
         width="20"
         height="24"
         rx="4"
         fill="#bfe3ef"
         id="rect8" />
      <rect
         x="126"
         y="88"
         width="96"
         height="89"
         rx="6"
         fill="#f4dda2"
         id="rect9" />
      <path
         d="M116 91 L174 50 L233 91Z"
         fill="#9477bb"
         id="path9" />
      <rect
         x="145"
         y="111"
         width="20"
         height="25"
         rx="4"
         fill="#bfe3ef"
         id="rect10" />
      <rect
         x="183"
         y="111"
         width="20"
         height="25"
         rx="4"
         fill="#ffe9a6"
         id="rect11" />
      <rect
         x="286"
         y="99"
         width="121"
         height="78"
         rx="5"
         fill="#efb4bd"
         id="rect12" />
      <path
         d="M278 102 L343 62 L411 102Z"
         fill="#6e9fb0"
         id="path12" />
      <rect
         x="307"
         y="120"
         width="20"
         height="24"
         rx="4"
         fill="#ffe9a6"
         id="rect13" />
      <rect
         x="351"
         y="120"
         width="20"
         height="24"
         rx="4"
         fill="#c9e7f1"
         id="rect14" />
    </g>
  </g>
  <g
     id="ending-ground-layer">
    <path
       d="M0 166 H400 V250 H0Z"
       fill="#93bd91"
       id="path14" />
    <path
       d="M88 250 C133 219 192 201 255 187 C291 179 330 180 367 190 C331 197 301 210 277 227 C261 239 252 246 247 250Z"
       fill="url(#ending-path)"
       stroke="#3a2461"
       stroke-width="2.2"
       id="path15" />
    <g
       fill="none"
       stroke="#c9a978"
       stroke-width="1.4"
       opacity="0.7"
       id="g16">
      <path
         d="M132 231 q17-9 35 0 M181 214 q19-9 39 0 M232 198 q19-8 42 0"
         id="path16" />
    </g>
  </g>
  <g
     id="ending-tree-layer">
    <path
       d="M40 210 V111 M365 210 V111"
       fill="none"
       stroke="#3a2461"
       stroke-width="5"
       stroke-linecap="round"
       id="path17" />
    <path
       d="M28 111 Q40 92 52 111Z M353 111 Q365 92 377 111Z"
       fill="#f6c343"
       stroke="#3a2461"
       stroke-width="2.5"
       id="path18" />
    <circle
       cx="40"
       cy="110"
       r="16"
       fill="#fff0b7"
       opacity="0.45"
       id="circle18" />
    <circle
       cx="365"
       cy="110"
       r="16"
       fill="#fff0b7"
       opacity="0.45"
       id="circle19" />
  </g>
  <g
     id="ending-celebration-layer">
    <path
       d="M120 61 C169 42 231 42 281 62"
       fill="none"
       stroke="#3a2461"
       stroke-width="2.2"
       id="path19" />
    <path
       d="M130 58 l8 14 8-14Z"
       fill="#f36fa3"
       stroke="#3a2461"
       stroke-width="1.8"
       id="path20" />
    <path
       d="M169 49 l8 14 8-14Z"
       fill="#f7c54a"
       stroke="#3a2461"
       stroke-width="1.8"
       id="path21" />
    <path
       d="M210 47 l8 14 8-14Z"
       fill="#9fc7e8"
       stroke="#3a2461"
       stroke-width="1.8"
       id="path22" />
    <path
       d="M251 51 l8 14 8-14Z"
       fill="#a777bb"
       stroke="#3a2461"
       stroke-width="1.8"
       id="path23" />
    <g
       fill="#f7c54a"
       stroke="#3a2461"
       stroke-width="1.5"
       id="g25">
      <path
         d="M112 102 l3 7 7 3-7 3-3 7-3-7-7-3 7-3Z"
         id="path24" />
      <path
         d="M286 105 l2.5 6 6 2.5-6 2.5-2.5 6-2.5-6-6-2.5 6-2.5Z"
         id="path25" />
    </g>
    <g
       fill="#bfe8f6"
       fill-opacity="0.45"
       stroke="#3a2461"
       stroke-width="1.5"
       id="g26">
      <circle
         cx="307"
         cy="142"
         r="9"
         id="circle25" />
      <circle
         cx="328"
         cy="126"
         r="6"
         id="circle26" />
    </g>
    <path
       d="M97 150 v-20 l15-4 v19"
       fill="none"
       stroke="#3a2461"
       stroke-width="2.8"
       stroke-linecap="round"
       stroke-linejoin="round"
       id="path26" />
    <ellipse
       cx="92"
       cy="151"
       rx="6"
       ry="4.5"
       fill="#f39ab7"
       stroke="#3a2461"
       stroke-width="1.8"
       id="ellipse26" />
    <ellipse
       cx="107"
       cy="146"
       rx="6"
       ry="4.5"
       fill="#f7c54a"
       stroke="#3a2461"
       stroke-width="1.8"
       id="ellipse27" />
  </g>
  <g
     id="ending-biscuit-layer">
    <ellipse
       cx="254"
       cy="232"
       rx="38"
       ry="7"
       fill="#3a2461"
       opacity="0.15"
       filter="url(#ending-shadow)"
       id="ellipse28" />
    <path
       d="M281 199 q20-18 18-38"
       fill="none"
       stroke="#e8b04b"
       stroke-width="8"
       stroke-linecap="round"
       id="path28" />
    <ellipse
       cx="254"
       cy="207"
       rx="32"
       ry="22"
       fill="#e8b04b"
       stroke="#3a2461"
       stroke-width="3.4"
       id="ellipse29" />
    <ellipse
       cx="252"
       cy="211"
       rx="18"
       ry="12"
       fill="#f4d28a"
       opacity="0.82"
       id="ellipse30" />
    <path
       d="M237 222 v9 M267 222 v9"
       stroke="#9c613d"
       stroke-width="8"
       stroke-linecap="round"
       id="path30" />
    <path
       d="M229 232 h17 M260 232 h17"
       stroke="#3a2461"
       stroke-width="5"
       stroke-linecap="round"
       id="path31" />
    <circle
       cx="228"
       cy="190"
       r="19"
       fill="#e8b04b"
       stroke="#3a2461"
       stroke-width="3.2"
       id="circle31" />
    <path
       d="M213 181 C205 185 206 201 216 204 L221 192Z M242 181 C250 186 248 201 239 204 L235 192Z"
       fill="#9c613d"
       stroke="#3a2461"
       stroke-width="2.4"
       stroke-linejoin="round"
       id="path32" />
    <ellipse
       cx="228"
       cy="196"
       rx="10"
       ry="7"
       fill="#f4d28a"
       id="ellipse32" />
    <path
       d="M218 189 q4 5 8 0 M232 189 q4 5 8 0"
       fill="none"
       stroke="#3a2461"
       stroke-width="2"
       stroke-linecap="round"
       id="path33" />
    <ellipse
       cx="228"
       cy="195"
       rx="2.8"
       ry="2.1"
       fill="#3a2461"
       id="ellipse33" />
    <path
       d="M228 198 q-5 5-9 0 M229 198 q4 5 9 0"
       fill="none"
       stroke="#3a2461"
       stroke-width="1.8"
       stroke-linecap="round"
       id="path34" />
  </g>
  <g
     id="ending-poppy-layer">
    <ellipse
       cx="158"
       cy="232"
       rx="37"
       ry="7"
       fill="#3a2461"
       opacity="0.15"
       filter="url(#ending-shadow)"
       id="ellipse34" />
    <path
       d="M135 178 C122 167 118 154 120 144 M180 178 C191 166 194 153 191 143"
       fill="none"
       stroke="#f6d3b3"
       stroke-width="6.5"
       stroke-linecap="round"
       id="path35" />
    <circle
       cx="120"
       cy="142"
       r="4"
       fill="#f6d3b3"
       stroke="#3a2461"
       stroke-width="1.7"
       id="circle35" />
    <circle
       cx="191"
       cy="141"
       r="4"
       fill="#f6d3b3"
       stroke="#3a2461"
       stroke-width="1.7"
       id="circle36" />
    <path
       d="M133 172 C136 160 144 154 156 154 C169 154 177 161 180 174 L184 218 C167 223 144 223 127 217Z"
       fill="#f36fa3"
       stroke="#3a2461"
       stroke-width="3.4"
       stroke-linejoin="round"
       id="path36" />
    <path
       d="M138 174 C147 182 166 182 175 174 L178 204 C163 210 144 210 131 204Z"
       fill="#fb8eb6"
       opacity="0.72"
       id="path37" />
    <path
       d="M146 219 v10 M168 219 v10"
       stroke="#5b4677"
       stroke-width="7"
       stroke-linecap="round"
       id="path38" />
    <path
       d="M139 231 h15 M161 231 h15"
       stroke="#3a2461"
       stroke-width="5"
       stroke-linecap="round"
       id="path39" />
    <circle
       cx="156"
       cy="136"
       r="20"
       fill="#f6d3b3"
       stroke="#3a2461"
       stroke-width="3.3"
       id="circle39" />
    <path
       d="M137 135 C133 118 144 109 158 109 C171 109 179 119 176 135 C170 126 163 122 153 122 C147 122 142 127 137 135Z"
       fill="#8a5a34"
       stroke="#3a2461"
       stroke-width="3"
       stroke-linejoin="round"
       id="path40" />
    <path
       d="M139 129 q-8 8-2 18 M175 129 q8 8 2 18"
       fill="none"
       stroke="#8a5a34"
       stroke-width="5"
       stroke-linecap="round"
       id="path41" />
    <path
       d="M146 136 q4 5 8 0 M160 136 q4 5 8 0"
       fill="none"
       stroke="#3a2461"
       stroke-width="2"
       stroke-linecap="round"
       id="path42" />
    <path
       d="M149 145 q7 7 14 0"
       fill="none"
       stroke="#3a2461"
       stroke-width="2.2"
       stroke-linecap="round"
       id="path43" />
    <path
       d="M135 117 H178 L173 109 H140Z"
       fill="#e8c07a"
       stroke="#3a2461"
       stroke-width="2.7"
       stroke-linejoin="round"
       id="path44" />
    <path
       d="M143 109 L148 98 L156 107 L163 97 L170 109Z"
       fill="#f6c343"
       stroke="#3a2461"
       stroke-width="2.4"
       stroke-linejoin="round"
       id="path45" />
  </g>
  <g
     id="ending-heart-layer">
    <path
       d="M204 150 C193 139 177 147 180 160 C184 174 204 184 204 184 C204 184 224 174 228 160 C231 147 215 139 204 150Z"
       fill="#f39ab7"
       stroke="#3a2461"
       stroke-width="2.5"
       opacity="0.9"
       id="path46" />
  </g>
  <g
     id="ending-foreground-layer">
    <path
       d="M0 238 H58 L52 250 H0Z M348 239 H400 V250 H354Z"
       fill="#b7654c"
       stroke="#3a2461"
       stroke-width="2"
       id="path47" />
    <g
       fill="#f7c54a"
       stroke="#3a2461"
       stroke-width="1.5"
       id="g51">
      <circle
         cx="13"
         cy="236"
         r="6"
         id="circle47" />
      <circle
         cx="31"
         cy="233"
         r="7"
         id="circle48" />
      <circle
         cx="48"
         cy="237"
         r="6"
         id="circle49" />
      <circle
         cx="363"
         cy="236"
         r="6"
         id="circle50" />
      <circle
         cx="382"
         cy="233"
         r="7"
         id="circle51" />
    </g>
  </g>
</svg>
