<?xml version="1.0" encoding="UTF-8" standalone="no"?>
<svg
   width="400"
   height="250"
   viewBox="0 0 400 250"
   version="1.1"
   id="svg65"
   xmlns="http://www.w3.org/2000/svg"
   xmlns:svg="http://www.w3.org/2000/svg">
  <defs
     id="defs5">
    <linearGradient
       id="dr-sky"
       x1="0"
       y1="0"
       x2="0"
       y2="1">
      <stop
         offset="0"
         stop-color="#d9eef8"
         id="stop1" />
      <stop
         offset="1"
         stop-color="#f9e5cf"
         id="stop2" />
    </linearGradient>
    <filter
       id="dr-shadow"
       x="-0.076666665"
       y="-0.39428571"
       width="1.1533333"
       height="1.7885714">
      <feGaussianBlur
         stdDeviation="2.3"
         id="feGaussianBlur2" />
    </filter>
    <linearGradient
       id="cv-route-sky"
       x1="0"
       y1="0"
       x2="0"
       y2="1">
      <stop
         offset="0"
         stop-color="#91cff0"
         id="stop3" />
      <stop
         offset="0.58"
         stop-color="#d9eef8"
         id="stop4" />
      <stop
         offset="1"
         stop-color="#f9e5cf"
         id="stop5" />
    </linearGradient>
  </defs>
  <g
     id="cv-route-01-layer">
    <rect
       width="400"
       height="250"
       fill="url(#cv-route-sky)"
       id="rect5" />
    <circle
       cx="68"
       cy="43"
       r="27"
       fill="#ffe39a"
       opacity="0.38"
       id="circle5" />
    <circle
       cx="68"
       cy="43"
       r="15"
       fill="#fff5ca"
       id="circle6" />
    <g
       transform="translate(128 69) scale(0.48)"
       opacity="0.55"
       id="g9">
      <ellipse
         cx="0"
         cy="0"
         rx="35"
         ry="14"
         fill="#fffdf8"
         stroke="#3a2461"
         stroke-width="2.4"
         id="ellipse6" />
      <circle
         cx="-20"
         cy="-8"
         r="16"
         fill="#fffdf8"
         stroke="#3a2461"
         stroke-width="2.4"
         id="circle7" />
      <circle
         cx="2"
         cy="-14"
         r="22"
         fill="#fffdf8"
         stroke="#3a2461"
         stroke-width="2.4"
         id="circle8" />
      <circle
         cx="24"
         cy="-7"
         r="15"
         fill="#fffdf8"
         stroke="#3a2461"
         stroke-width="2.4"
         id="circle9" />
      <path
         d="M-31 6 Q0 25 31 6"
         fill="#b9d9ee"
         opacity="0.58"
         id="path9" />
    </g>
    <g
       transform="translate(310 85) scale(0.4)"
       opacity="0.45"
       id="g12">
      <ellipse
         cx="0"
         cy="0"
         rx="35"
         ry="14"
         fill="#fffdf8"
         stroke="#3a2461"
         stroke-width="2.4"
         id="ellipse9" />
      <circle
         cx="-20"
         cy="-8"
         r="16"
         fill="#fffdf8"
         stroke="#3a2461"
         stroke-width="2.4"
         id="circle10" />
      <circle
         cx="2"
         cy="-14"
         r="22"
         fill="#fffdf8"
         stroke="#3a2461"
         stroke-width="2.4"
         id="circle11" />
      <circle
         cx="24"
         cy="-7"
         r="15"
         fill="#fffdf8"
         stroke="#3a2461"
         stroke-width="2.4"
         id="circle12" />
      <path
         d="M-31 6 Q0 25 31 6"
         fill="#b9d9ee"
         opacity="0.58"
         id="path12" />
    </g>
    <g
       fill="#fff7ca"
       stroke="#3a2461"
       stroke-width="1.2"
       opacity="0.85"
       id="g15">
      <path
         d="M164 42 l3 7 7 3-7 3-3 7-3-7-7-3 7-3Z"
         id="path13" />
      <path
         d="M246 72 l2 5 5 2-5 2-2 5-2-5-5-2 5-2Z"
         id="path14" />
      <path
         d="M364 34 l2 5 5 2-5 2-2 5-2-5-5-2 5-2Z"
         id="path15" />
    </g>
  </g>
  <g
     id="cv-route-02-layer">
    <g
       transform="translate(62 132) scale(0.72)"
       opacity="0.78"
       id="g17">
      <ellipse
         cx="0"
         cy="0"
         rx="35"
         ry="14"
         fill="#fffdf8"
         stroke="#3a2461"
         stroke-width="2.4"
         id="ellipse15" />
      <circle
         cx="-20"
         cy="-8"
         r="16"
         fill="#fffdf8"
         stroke="#3a2461"
         stroke-width="2.4"
         id="circle15" />
      <circle
         cx="2"
         cy="-14"
         r="22"
         fill="#fffdf8"
         stroke="#3a2461"
         stroke-width="2.4"
         id="circle16" />
      <circle
         cx="24"
         cy="-7"
         r="15"
         fill="#fffdf8"
         stroke="#3a2461"
         stroke-width="2.4"
         id="circle17" />
      <path
         d="M-31 6 Q0 25 31 6"
         fill="#b9d9ee"
         opacity="0.58"
         id="path17" />
    </g>
    <g
       transform="translate(62 125) scale(0.72)"
       id="g20">
      <rect
         x="-19"
         y="-34"
         width="38"
         height="35"
         rx="12"
         fill="#f4b5c9"
         stroke="#3a2461"
         stroke-width="2.5"
         id="rect17" />
      <path
         d="M-24 -31 Q0 -55 24 -31 Q11 -36 0 -34 Q-11 -36 -24 -31Z"
         fill="#d887b1"
         stroke="#3a2461"
         stroke-width="2.4"
         id="path18" />
      <rect
         x="-5"
         y="-16"
         width="10"
         height="17"
         rx="5"
         fill="#75558f"
         id="rect18" />
      <circle
         cx="2"
         cy="-8"
         r="1.4"
         fill="#ffe493"
         id="circle18" />
      <rect
         x="-14"
         y="-25"
         width="8"
         height="8"
         rx="3"
         fill="#fff4b8"
         stroke="#3a2461"
         stroke-width="1.4"
         id="rect19" />
      <rect
         x="7"
         y="-25"
         width="8"
         height="8"
         rx="3"
         fill="#fff4b8"
         stroke="#3a2461"
         stroke-width="1.4"
         id="rect20" />
    </g>
    <g
       transform="translate(337 120) scale(0.68)"
       opacity="0.72"
       id="g22">
      <ellipse
         cx="0"
         cy="0"
         rx="35"
         ry="14"
         fill="#fffdf8"
         stroke="#3a2461"
         stroke-width="2.4"
         id="ellipse20" />
      <circle
         cx="-20"
         cy="-8"
         r="16"
         fill="#fffdf8"
         stroke="#3a2461"
         stroke-width="2.4"
         id="circle20" />
      <circle
         cx="2"
         cy="-14"
         r="22"
         fill="#fffdf8"
         stroke="#3a2461"
         stroke-width="2.4"
         id="circle21" />
      <circle
         cx="24"
         cy="-7"
         r="15"
         fill="#fffdf8"
         stroke="#3a2461"
         stroke-width="2.4"
         id="circle22" />
      <path
         d="M-31 6 Q0 25 31 6"
         fill="#b9d9ee"
         opacity="0.58"
         id="path22" />
    </g>
    <g
       transform="translate(337 113) scale(0.68)"
       id="g25">
      <rect
         x="-19"
         y="-34"
         width="38"
         height="35"
         rx="12"
         fill="#b8dff1"
         stroke="#3a2461"
         stroke-width="2.5"
         id="rect22" />
      <path
         d="M-24 -31 Q0 -55 24 -31 Q11 -36 0 -34 Q-11 -36 -24 -31Z"
         fill="#79b8dc"
         stroke="#3a2461"
         stroke-width="2.4"
         id="path23" />
      <rect
         x="-5"
         y="-16"
         width="10"
         height="17"
         rx="5"
         fill="#75558f"
         id="rect23" />
      <circle
         cx="2"
         cy="-8"
         r="1.4"
         fill="#ffe493"
         id="circle23" />
      <rect
         x="-14"
         y="-25"
         width="8"
         height="8"
         rx="3"
         fill="#fff4b8"
         stroke="#3a2461"
         stroke-width="1.4"
         id="rect24" />
      <rect
         x="7"
         y="-25"
         width="8"
         height="8"
         rx="3"
         fill="#fff4b8"
         stroke="#3a2461"
         stroke-width="1.4"
         id="rect25" />
    </g>
    <path
       d="M93 123 C145 103 205 107 261 124"
       fill="none"
       stroke="#ffffff"
       stroke-width="8"
       stroke-linecap="round"
       opacity="0.5"
       id="path25" />
    <path
       d="M184 116 Q211 91 238 116 Q226 108 211 108 Q196 108 184 116Z"
       fill="#dbc5ef"
       stroke="#3a2461"
       stroke-width="2"
       opacity="0.82"
       id="path26" />
  </g>
  <g
     id="cv-route-03-layer">
    <path
       d="M0 193 Q90 165 174 188 Q210 196 238 189 Q319 163 400 190 V250 H0Z"
       fill="#fbfcf8"
       stroke="#3a2461"
       stroke-width="2.4"
       id="path27" />
    <path
       d="M0 218 Q95 193 179 211 Q219 220 260 209 Q333 190 400 213 V250 H0Z"
       fill="#cce5f3"
       opacity="0.66"
       id="path28" />
    <path
       d="M216 250 C205 220 193 197 177 177 C164 160 154 150 142 139"
       fill="none"
       stroke="#f2d29c"
       stroke-width="22"
       stroke-linecap="round"
       id="path29" />
    <path
       d="M216 250 C236 222 258 202 286 187 C307 176 328 170 350 167"
       fill="none"
       stroke="#c6dff1"
       stroke-width="22"
       stroke-linecap="round"
       id="path30" />
    <path
       d="M216 250 C205 220 193 197 177 177 M216 250 C236 222 258 202 286 187"
       fill="none"
       stroke="#ffffff"
       stroke-width="3"
       stroke-linecap="round"
       opacity="0.82"
       id="path31" />
  </g>
  <g
     id="cv-route-04-layer">
    <g
       transform="translate(15 184) scale(0.56)"
       opacity="0.94"
       id="g33">
      <ellipse
         cx="0"
         cy="0"
         rx="35"
         ry="14"
         fill="#fffdf8"
         stroke="#3a2461"
         stroke-width="2.4"
         id="ellipse31" />
      <circle
         cx="-20"
         cy="-8"
         r="16"
         fill="#fffdf8"
         stroke="#3a2461"
         stroke-width="2.4"
         id="circle31" />
      <circle
         cx="2"
         cy="-14"
         r="22"
         fill="#fffdf8"
         stroke="#3a2461"
         stroke-width="2.4"
         id="circle32" />
      <circle
         cx="24"
         cy="-7"
         r="15"
         fill="#fffdf8"
         stroke="#3a2461"
         stroke-width="2.4"
         id="circle33" />
      <path
         d="M-31 6 Q0 25 31 6"
         fill="#b9d9ee"
         opacity="0.58"
         id="path33" />
    </g>
    <g
       transform="translate(390 181) scale(0.58)"
       opacity="0.94"
       id="g36">
      <ellipse
         cx="0"
         cy="0"
         rx="35"
         ry="14"
         fill="#fffdf8"
         stroke="#3a2461"
         stroke-width="2.4"
         id="ellipse33" />
      <circle
         cx="-20"
         cy="-8"
         r="16"
         fill="#fffdf8"
         stroke="#3a2461"
         stroke-width="2.4"
         id="circle34" />
      <circle
         cx="2"
         cy="-14"
         r="22"
         fill="#fffdf8"
         stroke="#3a2461"
         stroke-width="2.4"
         id="circle35" />
      <circle
         cx="24"
         cy="-7"
         r="15"
         fill="#fffdf8"
         stroke="#3a2461"
         stroke-width="2.4"
         id="circle36" />
      <path
         d="M-31 6 Q0 25 31 6"
         fill="#b9d9ee"
         opacity="0.58"
         id="path36" />
    </g>
    <path
       d="M12 136 Q200 102 388 136"
       fill="none"
       stroke="#75558f"
       stroke-width="2"
       opacity="0.65"
       id="path37" />
    <g
       fill="#bfe8f6"
       stroke="#3a2461"
       stroke-width="1.4"
       id="g39">
      <path
         d="M35 128 q9-9 18 0 q-9 8-18 0"
         id="path38" />
      <path
         d="M346 124 q9-9 18 0 q-9 8-18 0"
         id="path39" />
    </g>
  </g>
  <g
     id="dr-clues-layer">
    <path
       d="M112 142 C126 130 148 130 164 142"
       fill="none"
       stroke="#8b5a3c"
       stroke-width="6"
       stroke-linecap="round"
       id="path40" />
    <path
       d="M112 144 H165 M119 138 V151 M132 134 V149 M146 134 V149 M159 138 V151"
       stroke="#3a2461"
       stroke-width="2"
       id="path41" />
    <g
       fill="#f39ab7"
       stroke="#3a2461"
       stroke-width="1.5"
       id="g43">
      <circle
         cx="303"
         cy="169"
         r="5"
         id="circle41" />
      <circle
         cx="327"
         cy="157"
         r="4.5"
         id="circle42" />
      <circle
         cx="347"
         cy="166"
         r="4"
         id="circle43" />
    </g>
    <g
       fill="#f7c54a"
       stroke="#3a2461"
       stroke-width="1.4"
       id="g44">
      <path
         d="M283 145 l2 5 5 2-5 2-2 5-2-5-5-2 5-2Z"
         id="path43" />
    </g>
    <path
       d="M318 136 q8-8 16 0 q-8 7-16 0 M342 144 q7-7 14 0 q-7 6-14 0"
       fill="#bfe8f6"
       stroke="#3a2461"
       stroke-width="1.5"
       id="path44" />
  </g>
  <g
     id="dr-basket-layer">
    <ellipse
       cx="217"
       cy="231"
       rx="44"
       ry="7"
       fill="#3a2461"
       opacity="0.14"
       filter="url(#dr-shadow)"
       id="ellipse44" />
    <path
       d="M188 190 Q217 161 246 190"
       fill="none"
       stroke="#8b5a3c"
       stroke-width="7"
       stroke-linecap="round"
       id="path45" />
    <path
       d="M183 190 H251 L244 222 Q217 231 190 222Z"
       fill="#dba95e"
       stroke="#3a2461"
       stroke-width="3"
       id="path46" />
    <path
       d="M190 201 H245 M194 212 H241 M202 190 L204 225 M217 189 V228 M233 190 L231 225"
       fill="none"
       stroke="#9f6d3f"
       stroke-width="1.8"
       id="path47" />
    <g
       fill="#f26f6f"
       stroke="#3a2461"
       stroke-width="1.6"
       id="g50">
      <circle
         cx="200"
         cy="187"
         r="7"
         id="circle47" />
      <circle
         cx="215"
         cy="182"
         r="7"
         id="circle48" />
      <circle
         cx="230"
         cy="187"
         r="7"
         id="circle49" />
      <circle
         cx="242"
         cy="183"
         r="6"
         id="circle50" />
    </g>
  </g>
  <g
     id="dr-poppy-layer">
    <ellipse
       cx="102"
       cy="232"
       rx="36"
       ry="7"
       fill="#3a2461"
       opacity="0.15"
       filter="url(#dr-shadow)"
       id="ellipse50" />
    <path
       d="M79 181 C68 188 66 199 72 205 M125 181 C137 177 148 169 153 158"
       fill="none"
       stroke="#f6d3b3"
       stroke-width="6.5"
       stroke-linecap="round"
       id="path50" />
    <circle
       cx="154"
       cy="156"
       r="4"
       fill="#f6d3b3"
       stroke="#3a2461"
       stroke-width="1.7"
       id="circle51" />
    <path
       d="M78 172 C81 160 89 154 102 154 C115 154 123 161 126 174 L130 218 C113 223 90 223 73 217Z"
       fill="#f36fa3"
       stroke="#3a2461"
       stroke-width="3.4"
       id="path51" />
    <path
       d="M92 219 v10 M114 219 v10"
       stroke="#5b4677"
       stroke-width="7"
       stroke-linecap="round"
       id="path52" />
    <path
       d="M85 231 h15 M107 231 h15"
       stroke="#3a2461"
       stroke-width="5"
       stroke-linecap="round"
       id="path53" />
    <circle
       cx="102"
       cy="136"
       r="20"
       fill="#f6d3b3"
       stroke="#3a2461"
       stroke-width="3.3"
       id="circle53" />
    <path
       d="M83 135 C79 118 90 109 104 109 C117 109 125 119 122 135 C116 126 109 122 99 122 C93 122 88 127 83 135Z"
       fill="#8a5a34"
       stroke="#3a2461"
       stroke-width="3"
       id="path54" />
    <path
       d="M85 129 q-8 8-2 18 M121 129 q8 8 2 18"
       fill="none"
       stroke="#8a5a34"
       stroke-width="5"
       stroke-linecap="round"
       id="path55" />
    <circle
       cx="95"
       cy="137"
       r="2.2"
       fill="#3a2461"
       id="circle55" />
    <circle
       cx="109"
       cy="137"
       r="2.2"
       fill="#3a2461"
       id="circle56" />
    <ellipse
       cx="102"
       cy="146"
       rx="2.7"
       ry="3.2"
       fill="#3a2461"
       id="ellipse56" />
    <path
       d="M81 117 H124 L119 109 H86Z"
       fill="#e8c07a"
       stroke="#3a2461"
       stroke-width="2.7"
       id="path56" />
    <path
       d="M89 109 L94 98 L102 107 L109 97 L116 109Z"
       fill="#f6c343"
       stroke="#3a2461"
       stroke-width="2.4"
       id="path57" />
  </g>
  <g
     id="dr-sparkle-layer">
    <g
       fill="#f7c54a"
       stroke="#3a2461"
       stroke-width="1.5"
       id="g59">
      <path
         d="M150 111 l3 7 7 3-7 3-3 7-3-7-7-3 7-3Z"
         id="path58" />
      <path
         d="M326 111 l3 7 7 3-7 3-3 7-3-7-7-3 7-3Z"
         id="path59" />
    </g>
  </g>
  <g
     id="cv-route-09-layer">
    <g
       fill="#d8ecf6"
       stroke="#3a2461"
       stroke-width="1.8"
       opacity="0.94"
       id="g64">
      <circle
         cx="-4"
         cy="248"
         r="30"
         id="circle59" />
      <circle
         cx="28"
         cy="247"
         r="22"
         id="circle60" />
      <circle
         cx="54"
         cy="252"
         r="19"
         id="circle61" />
      <circle
         cx="404"
         cy="247"
         r="31"
         id="circle62" />
      <circle
         cx="371"
         cy="248"
         r="23"
         id="circle63" />
      <circle
         cx="345"
         cy="253"
         r="18"
         id="circle64" />
    </g>
    <g
       fill="#ffffff"
       opacity="0.7"
       id="g65">
      <ellipse
         cx="30"
         cy="240"
         rx="24"
         ry="7"
         id="ellipse64" />
      <ellipse
         cx="372"
         cy="239"
         rx="25"
         ry="7"
         id="ellipse65" />
    </g>
  </g>
</svg>
