<?xml version="1.0" encoding="UTF-8" standalone="no"?>
<svg
   width="400"
   height="250"
   viewBox="0 0 400 250"
   version="1.1"
   id="svg43"
   xmlns="http://www.w3.org/2000/svg"
   xmlns:svg="http://www.w3.org/2000/svg">
  <defs
     id="defs4">
    <linearGradient
       id="where-sky"
       x1="0"
       y1="0"
       x2="0"
       y2="1">
      <stop
         offset="0"
         stop-color="#d9eef8"
         id="stop1" />
      <stop
         offset="1"
         stop-color="#f7ead7"
         id="stop2" />
    </linearGradient>
    <linearGradient
       id="where-path"
       x1="0"
       y1="0"
       x2="1"
       y2="1">
      <stop
         offset="0"
         stop-color="#fff4d6"
         id="stop3" />
      <stop
         offset="1"
         stop-color="#e3be83"
         id="stop4" />
    </linearGradient>
    <filter
       id="where-shadow"
       x="-0.080000003"
       y="-0.41142859"
       width="1.16"
       height="1.8228572">
      <feGaussianBlur
         stdDeviation="2.4"
         id="feGaussianBlur4" />
    </filter>
  </defs>
  <g
     id="where-sky-layer">
    <rect
       width="400"
       height="250"
       fill="url(#where-sky)"
       id="rect4" />
    <circle
       cx="71"
       cy="43"
       r="22"
       fill="#ffe39a"
       opacity="0.5"
       id="circle4" />
    <circle
       cx="71"
       cy="43"
       r="13"
       fill="#fff5ca"
       opacity="0.9"
       id="circle5" />
    <path
       d="M270 48 C287 37 306 40 314 52 C324 42 344 44 350 58 C365 57 374 66 370 75 H260 C257 63 262 54 270 48Z"
       fill="#fff"
       opacity="0.4"
       id="path5" />
  </g>
  <g
     id="where-depth-layer">
    <path
       d="M0 137 C74 126 132 133 197 139 C264 128 329 126 400 138 V181 H0Z"
       fill="#a9c99b"
       id="path6" />
    <g
       stroke="#3a2461"
       stroke-width="2.6"
       stroke-linejoin="round"
       id="g14">
      <rect
         x="-8"
         y="101"
         width="106"
         height="76"
         rx="5"
         fill="#f4c3a1"
         id="rect6" />
      <path
         d="M-14 104 L45 59 L105 104Z"
         fill="#d96f7f"
         id="path7" />
      <rect
         x="17"
         y="121"
         width="20"
         height="24"
         rx="4"
         fill="#ffe9a6"
         id="rect7" />
      <rect
         x="59"
         y="121"
         width="20"
         height="24"
         rx="4"
         fill="#bfe3ef"
         id="rect8" />
      <rect
         x="126"
         y="88"
         width="96"
         height="89"
         rx="6"
         fill="#f4dda2"
         id="rect9" />
      <path
         d="M116 91 L174 50 L233 91Z"
         fill="#9477bb"
         id="path9" />
      <rect
         x="145"
         y="111"
         width="20"
         height="25"
         rx="4"
         fill="#bfe3ef"
         id="rect10" />
      <rect
         x="183"
         y="111"
         width="20"
         height="25"
         rx="4"
         fill="#ffe9a6"
         id="rect11" />
      <rect
         x="286"
         y="99"
         width="121"
         height="78"
         rx="5"
         fill="#efb4bd"
         id="rect12" />
      <path
         d="M278 102 L343 62 L411 102Z"
         fill="#6e9fb0"
         id="path12" />
      <rect
         x="307"
         y="120"
         width="20"
         height="24"
         rx="4"
         fill="#ffe9a6"
         id="rect13" />
      <rect
         x="351"
         y="120"
         width="20"
         height="24"
         rx="4"
         fill="#c9e7f1"
         id="rect14" />
    </g>
  </g>
  <g
     id="where-path-layer">
    <path
       d="M0 166 H400 V250 H0Z"
       fill="#93bd91"
       id="path14" />
    <path
       d="M93 250 C138 222 201 205 252 194 C265 187 272 178 275 166 C288 182 311 191 351 197 C320 204 297 216 282 231 C272 240 266 247 263 250Z"
       fill="url(#where-path)"
       stroke="#3a2461"
       stroke-width="2.2"
       id="path15" />
    <path
       d="M202 230 C223 212 247 204 274 200 M283 198 C304 197 323 200 339 205"
       fill="none"
       stroke="#fff8df"
       stroke-width="3"
       stroke-linecap="round"
       opacity="0.65"
       id="path16" />
  </g>
  <g
     id="where-tree-layer">
    <path
       d="M42 210 V111"
       fill="none"
       stroke="#3a2461"
       stroke-width="5"
       stroke-linecap="round"
       id="path17" />
    <path
       d="M30 111 Q42 92 54 111Z"
       fill="#f6c343"
       stroke="#3a2461"
       stroke-width="2.5"
       id="path18" />
    <path
       d="M266 181 v-32 M266 153 h-28 l8-8 M266 163 h28 l-8-8"
       fill="none"
       stroke="#8b5a3c"
       stroke-width="5"
       stroke-linecap="round"
       stroke-linejoin="round"
       id="path19" />
  </g>
  <g
     id="where-sparkle-layer"
     fill="#f7c54a"
     stroke="#3a2461"
     stroke-width="1.5">
    <path
       d="M245 191 l3 7 7 3-7 3-3 7-3-7-7-3 7-3Z"
       id="path20" />
    <path
       d="M274 172 l2.5 6 6 2.5-6 2.5-2.5 6-2.5-6-6-2.5 6-2.5Z"
       id="path21" />
    <path
       d="M222 215 l2 5 5 2-5 2-2 5-2-5-5-2 5-2Z"
       id="path22" />
  </g>
  <g
     id="where-owl-layer">
    <path
       d="M317 137 C328 127 342 126 352 134 C364 143 363 161 351 170 C339 179 321 172 319 157Z"
       fill="#a777bb"
       stroke="#3a2461"
       stroke-width="3.2"
       id="path23" />
    <path
       d="M321 138 L326 126 L334 135 L343 126 L350 139"
       fill="#a777bb"
       stroke="#3a2461"
       stroke-width="2.6"
       stroke-linejoin="round"
       id="path24" />
    <path
       d="M321 150 C328 141 337 141 343 148 C350 141 358 144 360 151 C356 162 348 169 340 169 C331 169 323 161 321 150Z"
       fill="#d8bae1"
       id="path25" />
    <circle
       cx="332"
       cy="149"
       r="6.2"
       fill="#fff"
       stroke="#3a2461"
       stroke-width="2"
       id="circle25" />
    <circle
       cx="348"
       cy="149"
       r="6.2"
       fill="#fff"
       stroke="#3a2461"
       stroke-width="2"
       id="circle26" />
    <circle
       cx="333"
       cy="150"
       r="2.5"
       fill="#3a2461"
       id="circle27" />
    <circle
       cx="347"
       cy="150"
       r="2.5"
       fill="#3a2461"
       id="circle28" />
    <path
       d="M337 157 L341 162 L345 157Z"
       fill="#f6c343"
       stroke="#3a2461"
       stroke-width="1.6"
       stroke-linejoin="round"
       id="path28" />
    <path
       d="M329 170 l-2 7 M350 170 l3 7"
       stroke="#3a2461"
       stroke-width="2"
       stroke-linecap="round"
       id="path29" />
  </g>
  <g
     id="where-poppy-layer">
    <ellipse
       cx="137"
       cy="232"
       rx="36"
       ry="7"
       fill="#3a2461"
       opacity="0.15"
       filter="url(#where-shadow)"
       id="ellipse29" />
    <path
       d="M114 182 C103 188 101 198 106 205 M158 181 C170 178 178 169 180 160"
       fill="none"
       stroke="#f6d3b3"
       stroke-width="6.5"
       stroke-linecap="round"
       id="path30" />
    <circle
       cx="180"
       cy="158"
       r="4"
       fill="#f6d3b3"
       stroke="#3a2461"
       stroke-width="1.7"
       id="circle30" />
    <path
       d="M113 172 C116 160 124 154 136 154 C149 154 157 161 160 174 L164 218 C147 223 124 223 107 217Z"
       fill="#f36fa3"
       stroke="#3a2461"
       stroke-width="3.4"
       stroke-linejoin="round"
       id="path31" />
    <path
       d="M118 174 C127 182 146 182 155 174 L158 204 C143 210 124 210 111 204Z"
       fill="#fb8eb6"
       opacity="0.72"
       id="path32" />
    <path
       d="M126 219 v10 M148 219 v10"
       stroke="#5b4677"
       stroke-width="7"
       stroke-linecap="round"
       id="path33" />
    <path
       d="M119 231 h15 M141 231 h15"
       stroke="#3a2461"
       stroke-width="5"
       stroke-linecap="round"
       id="path34" />
    <circle
       cx="136"
       cy="136"
       r="20"
       fill="#f6d3b3"
       stroke="#3a2461"
       stroke-width="3.3"
       id="circle34" />
    <path
       d="M117 135 C113 118 124 109 138 109 C151 109 159 119 156 135 C150 126 143 122 133 122 C127 122 122 127 117 135Z"
       fill="#8a5a34"
       stroke="#3a2461"
       stroke-width="3"
       stroke-linejoin="round"
       id="path35" />
    <path
       d="M119 129 q-8 8-2 18 M155 129 q8 8 2 18"
       fill="none"
       stroke="#8a5a34"
       stroke-width="5"
       stroke-linecap="round"
       id="path36" />
    <circle
       cx="129"
       cy="137"
       r="2.2"
       fill="#3a2461"
       id="circle36" />
    <circle
       cx="143"
       cy="137"
       r="2.2"
       fill="#3a2461"
       id="circle37" />
    <ellipse
       cx="136"
       cy="146"
       rx="2.6"
       ry="3.1"
       fill="#3a2461"
       id="ellipse37" />
    <path
       d="M115 117 H158 L153 109 H120Z"
       fill="#e8c07a"
       stroke="#3a2461"
       stroke-width="2.7"
       stroke-linejoin="round"
       id="path37" />
    <path
       d="M123 109 L128 98 L136 107 L143 97 L150 109Z"
       fill="#f6c343"
       stroke="#3a2461"
       stroke-width="2.4"
       stroke-linejoin="round"
       id="path38" />
  </g>
  <g
     id="where-foreground-layer">
    <path
       d="M0 238 H58 L52 250 H0Z M348 239 H400 V250 H354Z"
       fill="#b7654c"
       stroke="#3a2461"
       stroke-width="2"
       id="path39" />
    <g
       fill="#f39ab7"
       stroke="#3a2461"
       stroke-width="1.5"
       id="g43">
      <circle
         cx="13"
         cy="236"
         r="6"
         id="circle39" />
      <circle
         cx="31"
         cy="233"
         r="7"
         id="circle40" />
      <circle
         cx="48"
         cy="237"
         r="6"
         id="circle41" />
      <circle
         cx="363"
         cy="236"
         r="6"
         id="circle42" />
      <circle
         cx="382"
         cy="233"
         r="7"
         id="circle43" />
    </g>
  </g>
</svg>
