<?xml version="1.0" encoding="UTF-8" standalone="no"?>
<svg
   width="400"
   height="250"
   viewBox="0 0 400 250"
   version="1.1"
   id="svg81"
   xmlns="http://www.w3.org/2000/svg"
   xmlns:svg="http://www.w3.org/2000/svg">
  <defs
     id="defs4">
    <linearGradient
       id="sky-wash"
       x1="0"
       y1="0"
       x2="0"
       y2="1">
      <stop
         offset="0"
         stop-color="#d9eef8"
         id="stop1" />
      <stop
         offset="1"
         stop-color="#f6e9d6"
         id="stop2" />
    </linearGradient>
    <linearGradient
       id="path-wash"
       x1="0"
       y1="0"
       x2="1"
       y2="1">
      <stop
         offset="0"
         stop-color="#f8edcf"
         id="stop3" />
      <stop
         offset="1"
         stop-color="#e5c38d"
         id="stop4" />
    </linearGradient>
    <filter
       id="soft-shadow"
       x="-0.082285718"
       y="-0.41142859"
       width="1.1645714"
       height="1.8228572">
      <feGaussianBlur
         stdDeviation="2.4"
         id="feGaussianBlur4" />
    </filter>
  </defs>
  <g
     id="layer-sky">
    <rect
       width="400"
       height="250"
       fill="url(#sky-wash)"
       id="rect4" />
    <circle
       cx="67"
       cy="43"
       r="22"
       fill="#ffe6a1"
       opacity="0.55"
       id="circle4" />
    <circle
       cx="67"
       cy="43"
       r="14"
       fill="#fff5c9"
       opacity="0.8"
       id="circle5" />
    <path
       d="M24 55 C43 44 62 47 70 60 C80 47 103 49 110 63 C128 60 139 70 135 82 H18 C12 70 15 62 24 55Z"
       fill="#ffffff"
       opacity="0.52"
       id="path5" />
    <path
       d="M278 47 C293 36 312 40 319 51 C329 41 348 44 353 57 C367 56 376 64 373 74 H267 C263 62 268 53 278 47Z"
       fill="#ffffff"
       opacity="0.42"
       id="path6" />
  </g>
  <g
     id="layer-distant">
    <path
       d="M0 119 C48 92 94 99 137 112 C186 85 233 94 271 111 C314 88 360 94 400 115 V190 H0Z"
       fill="#b9d99a"
       id="path7" />
    <path
       d="M0 142 C46 121 85 128 123 140 C170 115 222 122 260 143 C309 119 356 124 400 144 V200 H0Z"
       fill="#92c486"
       id="path8" />
    <g
       fill="#6ca77b"
       stroke="#3a2461"
       stroke-width="2"
       stroke-linejoin="round"
       opacity="0.72"
       id="g14">
      <path
         d="M18 129 L35 84 L52 129Z"
         id="path9" />
      <path
         d="M45 132 L65 74 L86 132Z"
         id="path10" />
      <path
         d="M88 131 L105 87 L123 131Z"
         id="path11" />
      <path
         d="M275 132 L295 78 L315 132Z"
         id="path12" />
      <path
         d="M309 132 L331 69 L353 132Z"
         id="path13" />
      <path
         d="M348 134 L368 82 L389 134Z"
         id="path14" />
    </g>
    <g
       fill="#4f8e6d"
       opacity="0.5"
       id="g18">
      <circle
         cx="14"
         cy="137"
         r="19"
         id="circle14" />
      <circle
         cx="147"
         cy="132"
         r="23"
         id="circle15" />
      <circle
         cx="181"
         cy="136"
         r="17"
         id="circle16" />
      <circle
         cx="245"
         cy="134"
         r="24"
         id="circle17" />
      <circle
         cx="397"
         cy="138"
         r="21"
         id="circle18" />
    </g>
  </g>
  <g
     id="layer-floor">
    <path
       d="M0 166 C64 147 123 156 174 171 C228 148 302 149 400 166 V250 H0Z"
       fill="#75b68a"
       id="path18" />
    <path
       d="M0 207 C85 181 161 198 222 209 C290 186 346 190 400 205 V250 H0Z"
       fill="#529970"
       id="path19" />
    <path
       d="M123 250 C137 223 166 206 211 191 C250 179 289 178 324 186 C281 190 249 202 225 219 C207 232 198 242 193 250Z"
       fill="url(#path-wash)"
       stroke="#3a2461"
       stroke-width="2.2"
       opacity="0.96"
       id="path20" />
    <path
       d="M159 244 C178 221 211 204 250 193"
       fill="none"
       stroke="#fff6d8"
       stroke-width="3"
       stroke-linecap="round"
       opacity="0.6"
       id="path21" />
    <g
       fill="#f7c54a"
       stroke="#3a2461"
       stroke-width="1.6"
       id="g23">
      <path
         d="M104 183 l3 7 7 3-7 3-3 7-3-7-7-3 7-3Z"
         id="path22" />
      <path
         d="M352 178 l2 5 5 2-5 2-2 5-2-5-5-2 5-2Z"
         id="path23" />
    </g>
    <g
       stroke="#3a2461"
       stroke-width="1.6"
       stroke-linecap="round"
       id="g26">
      <path
         d="M27 221 q7-13 14 0 M34 222 v-15"
         fill="none"
         id="path24" />
      <path
         d="M365 225 q7-14 14 0 M372 226 v-16"
         fill="none"
         id="path25" />
      <path
         d="M84 232 q6-11 12 0 M90 233 v-13"
         fill="none"
         id="path26" />
    </g>
    <g
       fill="#f39ab7"
       stroke="#3a2461"
       stroke-width="1.5"
       id="g28">
      <circle
         cx="34"
         cy="207"
         r="3.5"
         id="circle26" />
      <circle
         cx="90"
         cy="219"
         r="3"
         id="circle27" />
      <circle
         cx="372"
         cy="210"
         r="3.5"
         id="circle28" />
    </g>
  </g>
  <g
     id="layer-trees">
    <path
       d="M12 205 C17 169 9 128 21 94 C30 69 54 58 77 67 C96 75 103 94 94 112 C113 122 115 145 101 158 C86 172 69 163 59 151 C48 172 34 191 31 211Z"
       fill="#4d8e69"
       stroke="#3a2461"
       stroke-width="3.4"
       stroke-linejoin="round"
       id="path28" />
    <path
       d="M35 207 C39 170 42 137 48 103"
       fill="none"
       stroke="#8b5a3c"
       stroke-width="11"
       stroke-linecap="round"
       id="path29" />
    <path
       d="M47 137 C59 126 72 121 84 122 M42 157 C30 147 21 142 13 143"
       fill="none"
       stroke="#8b5a3c"
       stroke-width="6"
       stroke-linecap="round"
       id="path30" />
    <g
       fill="#78b77f"
       stroke="#3a2461"
       stroke-width="2.5"
       id="g33">
      <circle
         cx="45"
         cy="87"
         r="29"
         id="circle30" />
      <circle
         cx="24"
         cy="111"
         r="22"
         id="circle31" />
      <circle
         cx="70"
         cy="111"
         r="25"
         id="circle32" />
      <circle
         cx="89"
         cy="137"
         r="18"
         id="circle33" />
    </g>
    <g
       fill="#aad08f"
       opacity="0.9"
       id="g36">
      <circle
         cx="37"
         cy="78"
         r="11"
         id="circle34" />
      <circle
         cx="66"
         cy="102"
         r="10"
         id="circle35" />
      <circle
         cx="20"
         cy="105"
         r="8"
         id="circle36" />
    </g>
    <path
       d="M377 206 C373 171 381 136 373 105 C367 83 349 71 330 76 C313 81 305 97 310 113 C292 121 286 138 295 153 C305 169 326 170 339 156 C348 175 356 194 357 211Z"
       fill="#4d8e69"
       stroke="#3a2461"
       stroke-width="3.2"
       stroke-linejoin="round"
       id="path36" />
    <path
       d="M361 209 C357 174 355 146 351 113"
       fill="none"
       stroke="#8b5a3c"
       stroke-width="10"
       stroke-linecap="round"
       id="path37" />
    <g
       fill="#75b68a"
       stroke="#3a2461"
       stroke-width="2.4"
       id="g39">
      <circle
         cx="351"
         cy="95"
         r="27"
         id="circle37" />
      <circle
         cx="327"
         cy="117"
         r="21"
         id="circle38" />
      <circle
         cx="375"
         cy="122"
         r="24"
         id="circle39" />
    </g>
  </g>
  <g
     id="layer-log">
    <ellipse
       cx="292"
       cy="229"
       rx="72"
       ry="9"
       fill="#3a2461"
       opacity="0.16"
       filter="url(#soft-shadow)"
       id="ellipse39" />
    <path
       d="M246 186 C260 172 307 170 342 179 C356 183 363 195 359 207 C355 220 344 227 328 228 H254 C237 228 226 216 228 202 C229 195 237 190 246 186Z"
       fill="#a96f45"
       stroke="#3a2461"
       stroke-width="3.8"
       stroke-linejoin="round"
       id="path39" />
    <path
       d="M282 181 C302 185 323 184 346 191 M289 220 C311 214 333 215 352 207"
       fill="none"
       stroke="#d79b63"
       stroke-width="3"
       stroke-linecap="round"
       opacity="0.75"
       id="path40" />
    <path
       d="M230 202 C229 185 244 174 260 177 C276 180 285 193 281 208 C277 222 262 230 247 225 C237 222 231 214 230 202Z"
       fill="#6b402c"
       stroke="#3a2461"
       stroke-width="3.5"
       id="path41" />
    <path
       d="M238 201 C238 189 248 183 258 185 C270 188 276 197 272 208 C268 218 255 222 246 217 C241 214 238 208 238 201Z"
       fill="#392638"
       id="path42" />
    <path
       d="M320 181 q8-12 17-15 M309 180 q-2-12 4-19"
       fill="none"
       stroke="#3a2461"
       stroke-width="2.3"
       stroke-linecap="round"
       opacity="0.8"
       id="path43" />
    <g
       fill="#8fce9b"
       stroke="#3a2461"
       stroke-width="2"
       id="g45">
      <circle
         cx="338"
         cy="165"
         r="6"
         id="circle43" />
      <circle
         cx="347"
         cy="168"
         r="5"
         id="circle44" />
      <circle
         cx="314"
         cy="160"
         r="5"
         id="circle45" />
    </g>
  </g>
  <g
     id="layer-biscuit">
    <circle
       cx="255"
       cy="201"
       r="12.5"
       fill="#e8b04b"
       stroke="#3a2461"
       stroke-width="2.7"
       id="circle46" />
    <path
       d="M245 193 C239 196 239 207 246 211 L250 202Z M265 193 C271 197 270 207 264 211 L260 202Z"
       fill="#9c613d"
       stroke="#3a2461"
       stroke-width="2"
       stroke-linejoin="round"
       id="path46" />
    <ellipse
       cx="255"
       cy="205"
       rx="7"
       ry="5.5"
       fill="#f4d28a"
       id="ellipse46" />
    <circle
       cx="251"
       cy="199"
       r="1.7"
       fill="#3a2461"
       id="circle47" />
    <circle
       cx="260"
       cy="199"
       r="1.7"
       fill="#3a2461"
       id="circle48" />
    <circle
       cx="251.7"
       cy="198.4"
       r="0.55"
       fill="#ffffff"
       id="circle49" />
    <circle
       cx="260.7"
       cy="198.4"
       r="0.55"
       fill="#ffffff"
       id="circle50" />
    <ellipse
       cx="255.5"
       cy="204"
       rx="2.2"
       ry="1.7"
       fill="#3a2461"
       id="ellipse50" />
    <path
       d="M255 206 q-3 4-6 1 M256 206 q2 4 5 1"
       fill="none"
       stroke="#3a2461"
       stroke-width="1.4"
       stroke-linecap="round"
       id="path50" />
    <ellipse
       cx="244"
       cy="216"
       rx="5"
       ry="3.8"
       fill="#e8b04b"
       stroke="#3a2461"
       stroke-width="1.8"
       id="ellipse51" />
    <ellipse
       cx="267"
       cy="216"
       rx="5"
       ry="3.8"
       fill="#e8b04b"
       stroke="#3a2461"
       stroke-width="1.8"
       id="ellipse52" />
  </g>
  <g
     id="layer-owl">
    <path
       d="M304 168 C309 149 319 137 332 135"
       fill="none"
       stroke="#8b5a3c"
       stroke-width="7"
       stroke-linecap="round"
       id="path52" />
    <path
       d="M326 136 C333 126 348 125 358 133 C370 142 369 160 357 169 C346 178 326 171 324 156Z"
       fill="#a777bb"
       stroke="#3a2461"
       stroke-width="3.2"
       id="path53" />
    <path
       d="M330 137 L334 126 L342 135 L351 126 L356 139"
       fill="#a777bb"
       stroke="#3a2461"
       stroke-width="2.6"
       stroke-linejoin="round"
       id="path54" />
    <path
       d="M327 151 C319 154 313 162 308 172 C318 172 326 168 332 160Z"
       fill="#c49bd1"
       stroke="#3a2461"
       stroke-width="2.5"
       stroke-linejoin="round"
       id="path55" />
    <path
       d="M361 150 C369 153 373 161 375 168 C367 168 361 165 356 160Z"
       fill="#8f62a5"
       stroke="#3a2461"
       stroke-width="2.3"
       stroke-linejoin="round"
       id="path56" />
    <path
       d="M328 146 C335 139 343 139 350 146 C356 140 364 143 366 150 C362 161 353 168 345 168 C336 168 328 160 326 151Z"
       fill="#d8bae1"
       id="path57" />
    <circle
       cx="338"
       cy="149"
       r="6.2"
       fill="#ffffff"
       stroke="#3a2461"
       stroke-width="2"
       id="circle57" />
    <circle
       cx="354"
       cy="149"
       r="6.2"
       fill="#ffffff"
       stroke="#3a2461"
       stroke-width="2"
       id="circle58" />
    <circle
       cx="339"
       cy="150"
       r="2.5"
       fill="#3a2461"
       id="circle59" />
    <circle
       cx="353"
       cy="150"
       r="2.5"
       fill="#3a2461"
       id="circle60" />
    <circle
       cx="339.8"
       cy="149"
       r="0.7"
       fill="#ffffff"
       id="circle61" />
    <circle
       cx="353.8"
       cy="149"
       r="0.7"
       fill="#ffffff"
       id="circle62" />
    <path
       d="M343 156 L347 161 L351 156Z"
       fill="#f6c343"
       stroke="#3a2461"
       stroke-width="1.6"
       stroke-linejoin="round"
       id="path62" />
    <path
       d="M340 169 l-3 6 M351 169 l3 6"
       stroke="#3a2461"
       stroke-width="2"
       stroke-linecap="round"
       id="path63" />
  </g>
  <g
     id="layer-poppy">
    <ellipse
       cx="135"
       cy="229"
       rx="35"
       ry="7"
       fill="#3a2461"
       opacity="0.16"
       filter="url(#soft-shadow)"
       id="ellipse63" />
    <path
       d="M112 177 C102 184 101 196 106 203"
       fill="none"
       stroke="#f6d3b3"
       stroke-width="6.5"
       stroke-linecap="round"
       id="path64" />
    <path
       d="M157 185 C169 178 176 171 178 162"
       fill="none"
       stroke="#f6d3b3"
       stroke-width="6.5"
       stroke-linecap="round"
       id="path65" />
    <circle
       cx="178"
       cy="159"
       r="4"
       fill="#f6d3b3"
       stroke="#3a2461"
       stroke-width="1.7"
       id="circle65" />
    <path
       d="M113 171 C116 159 124 153 136 153 C149 153 157 160 160 173 L164 215 C148 221 124 221 108 215Z"
       fill="#f36fa3"
       stroke="#3a2461"
       stroke-width="3.4"
       stroke-linejoin="round"
       id="path66" />
    <path
       d="M118 173 C127 181 146 181 155 173 L158 202 C143 208 124 208 112 202Z"
       fill="#fb8eb6"
       opacity="0.72"
       id="path67" />
    <path
       d="M126 216 v10 M148 216 v10"
       stroke="#5b4677"
       stroke-width="7"
       stroke-linecap="round"
       id="path68" />
    <path
       d="M119 228 h15 M141 228 h15"
       stroke="#3a2461"
       stroke-width="5"
       stroke-linecap="round"
       id="path69" />
    <circle
       cx="136"
       cy="135"
       r="20"
       fill="#f6d3b3"
       stroke="#3a2461"
       stroke-width="3.3"
       id="circle69" />
    <path
       d="M117 134 C113 117 124 108 138 108 C151 108 159 118 156 134 C150 125 143 121 133 121 C127 121 122 126 117 134Z"
       fill="#8a5a34"
       stroke="#3a2461"
       stroke-width="3"
       stroke-linejoin="round"
       id="path70" />
    <path
       d="M119 128 q-8 8-2 18 M155 128 q8 8 2 18"
       fill="none"
       stroke="#8a5a34"
       stroke-width="5"
       stroke-linecap="round"
       id="path71" />
    <circle
       cx="129"
       cy="136"
       r="2.1"
       fill="#3a2461"
       id="circle71" />
    <circle
       cx="143"
       cy="136"
       r="2.1"
       fill="#3a2461"
       id="circle72" />
    <circle
       cx="129.7"
       cy="135.3"
       r="0.6"
       fill="#ffffff"
       id="circle73" />
    <circle
       cx="143.7"
       cy="135.3"
       r="0.6"
       fill="#ffffff"
       id="circle74" />
    <path
       d="M131 145 q6 4 12 0"
       fill="none"
       stroke="#3a2461"
       stroke-width="2.2"
       stroke-linecap="round"
       id="path74" />
    <ellipse
       cx="123"
       cy="143"
       rx="4"
       ry="2.2"
       fill="#ee9ba9"
       opacity="0.6"
       id="ellipse74" />
    <ellipse
       cx="149"
       cy="143"
       rx="4"
       ry="2.2"
       fill="#ee9ba9"
       opacity="0.6"
       id="ellipse75" />
    <path
       d="M115 116 H158 L153 108 H120Z"
       fill="#e8c07a"
       stroke="#3a2461"
       stroke-width="2.7"
       stroke-linejoin="round"
       id="path75" />
    <path
       d="M123 108 L128 97 L136 106 L143 96 L150 108Z"
       fill="#f6c343"
       stroke="#3a2461"
       stroke-width="2.4"
       stroke-linejoin="round"
       id="path76" />
    <circle
       cx="128"
       cy="102"
       r="2"
       fill="#f36fa3"
       id="circle76" />
    <circle
       cx="143"
       cy="101"
       r="2"
       fill="#8f62a5"
       id="circle77" />
  </g>
  <g
     id="layer-foreground">
    <path
       d="M0 233 C18 224 34 225 52 238 V250 H0Z"
       fill="#38795d"
       id="path77" />
    <path
       d="M400 229 C382 221 362 226 347 242 V250 H400Z"
       fill="#38795d"
       id="path78" />
    <g
       fill="#75b68a"
       stroke="#3a2461"
       stroke-width="1.7"
       id="g81">
      <ellipse
         cx="13"
         cy="229"
         rx="8"
         ry="15"
         transform="rotate(-28 13 229)"
         id="ellipse78" />
      <ellipse
         cx="31"
         cy="231"
         rx="8"
         ry="16"
         transform="rotate(22 31 231)"
         id="ellipse79" />
      <ellipse
         cx="373"
         cy="231"
         rx="8"
         ry="16"
         transform="rotate(-20 373 231)"
         id="ellipse80" />
      <ellipse
         cx="391"
         cy="226"
         rx="8"
         ry="15"
         transform="rotate(28 391 226)"
         id="ellipse81" />
    </g>
  </g>
</svg>
