<?xml version="1.0" encoding="UTF-8" standalone="no"?>
<svg
   width="400"
   height="250"
   viewBox="0 0 400 250"
   version="1.1"
   id="svg74"
   xmlns="http://www.w3.org/2000/svg"
   xmlns:svg="http://www.w3.org/2000/svg">
  <defs
     id="defs5">
    <linearGradient
       id="dew-sky"
       x1="0"
       y1="0"
       x2="0"
       y2="1">
      <stop
         offset="0"
         stop-color="#d9eef8"
         id="stop1" />
      <stop
         offset="1"
         stop-color="#f9dfcc"
         id="stop2" />
    </linearGradient>
    <filter
       id="dew-shadow"
       x="-0.074594593"
       y="-0.39428571"
       width="1.1491892"
       height="1.7885714">
      <feGaussianBlur
         stdDeviation="2.3"
         id="feGaussianBlur2" />
    </filter>
    <linearGradient
       id="cv-ending-wagon-sky"
       x1="0"
       y1="0"
       x2="0"
       y2="1">
      <stop
         offset="0"
         stop-color="#91cff0"
         id="stop3" />
      <stop
         offset="0.58"
         stop-color="#d9eef8"
         id="stop4" />
      <stop
         offset="1"
         stop-color="#f9e5cf"
         id="stop5" />
    </linearGradient>
  </defs>
  <g
     id="cv-ending-wagon-01-layer">
    <rect
       width="400"
       height="250"
       fill="url(#cv-ending-wagon-sky)"
       id="rect5" />
    <circle
       cx="326"
       cy="43"
       r="27"
       fill="#ffe39a"
       opacity="0.38"
       id="circle5" />
    <circle
       cx="326"
       cy="43"
       r="15"
       fill="#fff5ca"
       id="circle6" />
    <g
       transform="translate(128 69) scale(0.48)"
       opacity="0.55"
       id="g9">
      <ellipse
         cx="0"
         cy="0"
         rx="35"
         ry="14"
         fill="#fffdf8"
         stroke="#3a2461"
         stroke-width="2.4"
         id="ellipse6" />
      <circle
         cx="-20"
         cy="-8"
         r="16"
         fill="#fffdf8"
         stroke="#3a2461"
         stroke-width="2.4"
         id="circle7" />
      <circle
         cx="2"
         cy="-14"
         r="22"
         fill="#fffdf8"
         stroke="#3a2461"
         stroke-width="2.4"
         id="circle8" />
      <circle
         cx="24"
         cy="-7"
         r="15"
         fill="#fffdf8"
         stroke="#3a2461"
         stroke-width="2.4"
         id="circle9" />
      <path
         d="M-31 6 Q0 25 31 6"
         fill="#b9d9ee"
         opacity="0.58"
         id="path9" />
    </g>
    <g
       transform="translate(310 85) scale(0.4)"
       opacity="0.45"
       id="g12">
      <ellipse
         cx="0"
         cy="0"
         rx="35"
         ry="14"
         fill="#fffdf8"
         stroke="#3a2461"
         stroke-width="2.4"
         id="ellipse9" />
      <circle
         cx="-20"
         cy="-8"
         r="16"
         fill="#fffdf8"
         stroke="#3a2461"
         stroke-width="2.4"
         id="circle10" />
      <circle
         cx="2"
         cy="-14"
         r="22"
         fill="#fffdf8"
         stroke="#3a2461"
         stroke-width="2.4"
         id="circle11" />
      <circle
         cx="24"
         cy="-7"
         r="15"
         fill="#fffdf8"
         stroke="#3a2461"
         stroke-width="2.4"
         id="circle12" />
      <path
         d="M-31 6 Q0 25 31 6"
         fill="#b9d9ee"
         opacity="0.58"
         id="path12" />
    </g>
    <g
       fill="#fff7ca"
       stroke="#3a2461"
       stroke-width="1.2"
       opacity="0.85"
       id="g15">
      <path
         d="M164 42 l3 7 7 3-7 3-3 7-3-7-7-3 7-3Z"
         id="path13" />
      <path
         d="M246 72 l2 5 5 2-5 2-2 5-2-5-5-2 5-2Z"
         id="path14" />
      <path
         d="M364 34 l2 5 5 2-5 2-2 5-2-5-5-2 5-2Z"
         id="path15" />
    </g>
  </g>
  <g
     id="cv-ending-wagon-02-layer">
    <g
       transform="translate(62 132) scale(0.72)"
       opacity="0.78"
       id="g17">
      <ellipse
         cx="0"
         cy="0"
         rx="35"
         ry="14"
         fill="#fffdf8"
         stroke="#3a2461"
         stroke-width="2.4"
         id="ellipse15" />
      <circle
         cx="-20"
         cy="-8"
         r="16"
         fill="#fffdf8"
         stroke="#3a2461"
         stroke-width="2.4"
         id="circle15" />
      <circle
         cx="2"
         cy="-14"
         r="22"
         fill="#fffdf8"
         stroke="#3a2461"
         stroke-width="2.4"
         id="circle16" />
      <circle
         cx="24"
         cy="-7"
         r="15"
         fill="#fffdf8"
         stroke="#3a2461"
         stroke-width="2.4"
         id="circle17" />
      <path
         d="M-31 6 Q0 25 31 6"
         fill="#b9d9ee"
         opacity="0.58"
         id="path17" />
    </g>
    <g
       transform="translate(62 125) scale(0.72)"
       id="g20">
      <rect
         x="-19"
         y="-34"
         width="38"
         height="35"
         rx="12"
         fill="#f4b5c9"
         stroke="#3a2461"
         stroke-width="2.5"
         id="rect17" />
      <path
         d="M-24 -31 Q0 -55 24 -31 Q11 -36 0 -34 Q-11 -36 -24 -31Z"
         fill="#d887b1"
         stroke="#3a2461"
         stroke-width="2.4"
         id="path18" />
      <rect
         x="-5"
         y="-16"
         width="10"
         height="17"
         rx="5"
         fill="#75558f"
         id="rect18" />
      <circle
         cx="2"
         cy="-8"
         r="1.4"
         fill="#ffe493"
         id="circle18" />
      <rect
         x="-14"
         y="-25"
         width="8"
         height="8"
         rx="3"
         fill="#fff4b8"
         stroke="#3a2461"
         stroke-width="1.4"
         id="rect19" />
      <rect
         x="7"
         y="-25"
         width="8"
         height="8"
         rx="3"
         fill="#fff4b8"
         stroke="#3a2461"
         stroke-width="1.4"
         id="rect20" />
    </g>
    <g
       transform="translate(337 120) scale(0.68)"
       opacity="0.72"
       id="g22">
      <ellipse
         cx="0"
         cy="0"
         rx="35"
         ry="14"
         fill="#fffdf8"
         stroke="#3a2461"
         stroke-width="2.4"
         id="ellipse20" />
      <circle
         cx="-20"
         cy="-8"
         r="16"
         fill="#fffdf8"
         stroke="#3a2461"
         stroke-width="2.4"
         id="circle20" />
      <circle
         cx="2"
         cy="-14"
         r="22"
         fill="#fffdf8"
         stroke="#3a2461"
         stroke-width="2.4"
         id="circle21" />
      <circle
         cx="24"
         cy="-7"
         r="15"
         fill="#fffdf8"
         stroke="#3a2461"
         stroke-width="2.4"
         id="circle22" />
      <path
         d="M-31 6 Q0 25 31 6"
         fill="#b9d9ee"
         opacity="0.58"
         id="path22" />
    </g>
    <g
       transform="translate(337 113) scale(0.68)"
       id="g25">
      <rect
         x="-19"
         y="-34"
         width="38"
         height="35"
         rx="12"
         fill="#b8dff1"
         stroke="#3a2461"
         stroke-width="2.5"
         id="rect22" />
      <path
         d="M-24 -31 Q0 -55 24 -31 Q11 -36 0 -34 Q-11 -36 -24 -31Z"
         fill="#79b8dc"
         stroke="#3a2461"
         stroke-width="2.4"
         id="path23" />
      <rect
         x="-5"
         y="-16"
         width="10"
         height="17"
         rx="5"
         fill="#75558f"
         id="rect23" />
      <circle
         cx="2"
         cy="-8"
         r="1.4"
         fill="#ffe493"
         id="circle23" />
      <rect
         x="-14"
         y="-25"
         width="8"
         height="8"
         rx="3"
         fill="#fff4b8"
         stroke="#3a2461"
         stroke-width="1.4"
         id="rect24" />
      <rect
         x="7"
         y="-25"
         width="8"
         height="8"
         rx="3"
         fill="#fff4b8"
         stroke="#3a2461"
         stroke-width="1.4"
         id="rect25" />
    </g>
    <path
       d="M93 123 C145 103 205 107 261 124"
       fill="none"
       stroke="#ffffff"
       stroke-width="8"
       stroke-linecap="round"
       opacity="0.5"
       id="path25" />
    <g
       transform="translate(211 115)"
       id="g28">
      <path
         d="M-35 0 Q0 -24 35 0 V29 H-35Z"
         fill="#fffaf1"
         stroke="#3a2461"
         stroke-width="2.7"
         id="path26" />
      <path
         d="M-44 1 Q0 -31 44 1"
         fill="none"
         stroke="#f39ab7"
         stroke-width="8"
         stroke-linecap="round"
         id="path27" />
      <path
         d="M-34 1 L-22 17 -9 1 4 17 17 1 30 17 40 1"
         fill="#ffe08b"
         stroke="#3a2461"
         stroke-width="1.5"
         stroke-linejoin="round"
         id="path28" />
    </g>
  </g>
  <g
     id="cv-ending-wagon-03-layer">
    <path
       d="M-18 184 Q62 151 144 176 Q211 139 282 171 Q347 151 418 181 V250 H-18Z"
       fill="#fffdf7"
       stroke="#3a2461"
       stroke-width="2.5"
       id="path29" />
    <path
       d="M-18 211 Q64 182 146 201 Q218 170 290 200 Q351 182 418 207 V250 H-18Z"
       fill="#cbe4f2"
       opacity="0.72"
       id="path30" />
    <path
       d="M96 250 Q145 210 204 197 Q264 184 325 201"
       fill="none"
       stroke="#f8e4b9"
       stroke-width="21"
       stroke-linecap="round"
       opacity="0.92"
       id="path31" />
    <path
       d="M104 250 Q151 217 206 205 Q262 193 318 207"
       fill="none"
       stroke="#fff8df"
       stroke-width="3"
       stroke-linecap="round"
       opacity="0.9"
       id="path32" />
  </g>
  <g
     id="cv-ending-wagon-04-layer">
    <g
       transform="translate(15 184) scale(0.56)"
       opacity="0.94"
       id="g34">
      <ellipse
         cx="0"
         cy="0"
         rx="35"
         ry="14"
         fill="#fffdf8"
         stroke="#3a2461"
         stroke-width="2.4"
         id="ellipse32" />
      <circle
         cx="-20"
         cy="-8"
         r="16"
         fill="#fffdf8"
         stroke="#3a2461"
         stroke-width="2.4"
         id="circle32" />
      <circle
         cx="2"
         cy="-14"
         r="22"
         fill="#fffdf8"
         stroke="#3a2461"
         stroke-width="2.4"
         id="circle33" />
      <circle
         cx="24"
         cy="-7"
         r="15"
         fill="#fffdf8"
         stroke="#3a2461"
         stroke-width="2.4"
         id="circle34" />
      <path
         d="M-31 6 Q0 25 31 6"
         fill="#b9d9ee"
         opacity="0.58"
         id="path34" />
    </g>
    <g
       transform="translate(390 181) scale(0.58)"
       opacity="0.94"
       id="g37">
      <ellipse
         cx="0"
         cy="0"
         rx="35"
         ry="14"
         fill="#fffdf8"
         stroke="#3a2461"
         stroke-width="2.4"
         id="ellipse34" />
      <circle
         cx="-20"
         cy="-8"
         r="16"
         fill="#fffdf8"
         stroke="#3a2461"
         stroke-width="2.4"
         id="circle35" />
      <circle
         cx="2"
         cy="-14"
         r="22"
         fill="#fffdf8"
         stroke="#3a2461"
         stroke-width="2.4"
         id="circle36" />
      <circle
         cx="24"
         cy="-7"
         r="15"
         fill="#fffdf8"
         stroke="#3a2461"
         stroke-width="2.4"
         id="circle37" />
      <path
         d="M-31 6 Q0 25 31 6"
         fill="#b9d9ee"
         opacity="0.58"
         id="path37" />
    </g>
    <path
       d="M12 136 Q200 102 388 136"
       fill="none"
       stroke="#75558f"
       stroke-width="2"
       opacity="0.65"
       id="path38" />
    <path
       d="M34 132 l12 20 12-24 12 19 12-23 12 18 M306 132 l12 20 12-24 12 19 12-23 12 18"
       fill="#f7c54a"
       stroke="#3a2461"
       stroke-width="1.5"
       stroke-linejoin="round"
       id="path39" />
  </g>
  <g
     id="dew-wagon-layer">
    <ellipse
       cx="252"
       cy="231"
       rx="76"
       ry="9"
       fill="#3a2461"
       opacity="0.15"
       filter="url(#dew-shadow)"
       id="ellipse39" />
    <path
       d="M205 178 H315 L304 218 H220Z"
       fill="#e98080"
       stroke="#3a2461"
       stroke-width="3.4"
       id="path40" />
    <path
       d="M211 179 l-36-31"
       stroke="#3a2461"
       stroke-width="5"
       stroke-linecap="round"
       id="path41" />
    <circle
       cx="230"
       cy="225"
       r="12"
       fill="#f7c54a"
       stroke="#3a2461"
       stroke-width="3"
       id="circle41" />
    <circle
       cx="292"
       cy="225"
       r="12"
       fill="#f7c54a"
       stroke="#3a2461"
       stroke-width="3"
       id="circle42" />
    <circle
       cx="230"
       cy="225"
       r="4"
       fill="#3a2461"
       id="circle43" />
    <circle
       cx="292"
       cy="225"
       r="4"
       fill="#3a2461"
       id="circle44" />
    <path
       d="M230 171 Q259 139 288 171"
       fill="none"
       stroke="#8b5a3c"
       stroke-width="7"
       stroke-linecap="round"
       id="path44" />
    <path
       d="M225 171 H293 L286 205 Q259 214 232 205Z"
       fill="#dba95e"
       stroke="#3a2461"
       stroke-width="3"
       id="path45" />
    <path
       d="M232 182 H286 M237 194 H281 M244 171 L246 208 M259 170 V211 M275 171 L272 208"
       fill="none"
       stroke="#9f6d3f"
       stroke-width="1.8"
       id="path46" />
    <g
       fill="#f26f6f"
       stroke="#3a2461"
       stroke-width="1.6"
       id="g49">
      <circle
         cx="241"
         cy="167"
         r="7"
         id="circle46" />
      <circle
         cx="257"
         cy="162"
         r="7"
         id="circle47" />
      <circle
         cx="273"
         cy="167"
         r="7"
         id="circle48" />
      <circle
         cx="285"
         cy="163"
         r="6"
         id="circle49" />
    </g>
  </g>
  <g
     id="dew-poppy-layer">
    <ellipse
       cx="137"
       cy="232"
       rx="37"
       ry="7"
       fill="#3a2461"
       opacity="0.15"
       filter="url(#dew-shadow)"
       id="ellipse49" />
    <path
       d="M114 181 C105 173 102 162 105 153 M160 181 C171 173 177 160 176 149"
       fill="none"
       stroke="#f6d3b3"
       stroke-width="6.5"
       stroke-linecap="round"
       id="path49" />
    <circle
       cx="176"
       cy="147"
       r="4"
       fill="#f6d3b3"
       stroke="#3a2461"
       stroke-width="1.7"
       id="circle50" />
    <path
       d="M113 172 C116 160 124 154 137 154 C150 154 158 161 161 174 L165 218 C148 223 125 223 108 217Z"
       fill="#f36fa3"
       stroke="#3a2461"
       stroke-width="3.4"
       id="path50" />
    <path
       d="M127 219 v10 M149 219 v10"
       stroke="#5b4677"
       stroke-width="7"
       stroke-linecap="round"
       id="path51" />
    <path
       d="M120 231 h15 M142 231 h15"
       stroke="#3a2461"
       stroke-width="5"
       stroke-linecap="round"
       id="path52" />
    <circle
       cx="137"
       cy="136"
       r="20"
       fill="#f6d3b3"
       stroke="#3a2461"
       stroke-width="3.3"
       id="circle52" />
    <path
       d="M118 135 C114 118 125 109 139 109 C152 109 160 119 157 135 C151 126 144 122 134 122 C128 122 123 127 118 135Z"
       fill="#8a5a34"
       stroke="#3a2461"
       stroke-width="3"
       id="path53" />
    <path
       d="M120 129 q-8 8-2 18 M156 129 q8 8 2 18"
       fill="none"
       stroke="#8a5a34"
       stroke-width="5"
       stroke-linecap="round"
       id="path54" />
    <path
       d="M127 136 q4 5 8 0 M141 136 q4 5 8 0"
       fill="none"
       stroke="#3a2461"
       stroke-width="2"
       stroke-linecap="round"
       id="path55" />
    <path
       d="M130 145 q7 7 14 0"
       fill="none"
       stroke="#3a2461"
       stroke-width="2.2"
       stroke-linecap="round"
       id="path56" />
    <path
       d="M116 117 H159 L154 109 H121Z"
       fill="#e8c07a"
       stroke="#3a2461"
       stroke-width="2.7"
       id="path57" />
    <path
       d="M124 109 L129 98 L137 107 L144 97 L151 109Z"
       fill="#f6c343"
       stroke="#3a2461"
       stroke-width="2.4"
       id="path58" />
  </g>
  <g
     id="dew-biscuit-layer">
    <g
       transform="translate(137 57) scale(0.75)"
       id="g63">
      <path
         d="M290 199 q20-18 18-38"
         fill="none"
         stroke="#e8b04b"
         stroke-width="8"
         stroke-linecap="round"
         id="path59" />
      <ellipse
         cx="267"
         cy="205"
         rx="33"
         ry="23"
         fill="#e8b04b"
         stroke="#3a2461"
         stroke-width="3.4"
         id="ellipse59" />
      <ellipse
         cx="265"
         cy="210"
         rx="19"
         ry="13"
         fill="#f4d28a"
         opacity="0.82"
         id="ellipse60" />
      <path
         d="M248 221 v10 M279 221 v10"
         stroke="#9c613d"
         stroke-width="8"
         stroke-linecap="round"
         id="path60" />
      <path
         d="M239 232 h18 M271 232 h18"
         stroke="#3a2461"
         stroke-width="5"
         stroke-linecap="round"
         id="path61" />
      <circle
         cx="238"
         cy="188"
         r="19"
         fill="#e8b04b"
         stroke="#3a2461"
         stroke-width="3.2"
         id="circle61" />
      <path
         d="M223 179 C215 183 216 199 226 202 L231 190Z M252 179 C260 184 258 199 249 202 L245 190Z"
         fill="#9c613d"
         stroke="#3a2461"
         stroke-width="2.4"
         stroke-linejoin="round"
         id="path62" />
      <ellipse
         cx="238"
         cy="194"
         rx="10"
         ry="7"
         fill="#f4d28a"
         id="ellipse62" />
      <circle
         cx="232"
         cy="187"
         r="2.1"
         fill="#3a2461"
         id="circle62" />
      <circle
         cx="244"
         cy="187"
         r="2.1"
         fill="#3a2461"
         id="circle63" />
      <ellipse
         cx="238"
         cy="193"
         rx="2.8"
         ry="2.1"
         fill="#3a2461"
         id="ellipse63" />
      <path
         d="M238 196 q-5 5-9 0 M239 196 q4 5 9 0"
         fill="none"
         stroke="#3a2461"
         stroke-width="1.8"
         stroke-linecap="round"
         id="path63" />
    </g>
  </g>
  <g
     id="dew-confetti-layer">
    <path
       d="M186 215 q8 5 16 0 M318 141 q8-10 16 0"
       fill="none"
       stroke="#3a2461"
       stroke-width="2"
       stroke-linecap="round"
       opacity="0.62"
       id="path64" />
    <g
       fill="#f39ab7"
       id="g65">
      <circle
         cx="188"
         cy="123"
         r="3"
         id="circle64" />
      <circle
         cx="300"
         cy="129"
         r="3"
         id="circle65" />
    </g>
    <g
       fill="#9fc7e8"
       id="g67">
      <circle
         cx="207"
         cy="94"
         r="3"
         id="circle66" />
      <circle
         cx="282"
         cy="100"
         r="3"
         id="circle67" />
    </g>
    <g
       fill="#f7c54a"
       stroke="#3a2461"
       stroke-width="1.3"
       id="g68">
      <path
         d="M339 117 l2 5 5 2-5 2-2 5-2-5-5-2 5-2Z"
         id="path67" />
    </g>
  </g>
  <g
     id="cv-ending-wagon-09-layer">
    <g
       fill="#f7d6e3"
       stroke="#3a2461"
       stroke-width="1.8"
       opacity="0.94"
       id="g73">
      <circle
         cx="-4"
         cy="248"
         r="30"
         id="circle68" />
      <circle
         cx="28"
         cy="247"
         r="22"
         id="circle69" />
      <circle
         cx="54"
         cy="252"
         r="19"
         id="circle70" />
      <circle
         cx="404"
         cy="247"
         r="31"
         id="circle71" />
      <circle
         cx="371"
         cy="248"
         r="23"
         id="circle72" />
      <circle
         cx="345"
         cy="253"
         r="18"
         id="circle73" />
    </g>
    <g
       fill="#ffffff"
       opacity="0.7"
       id="g74">
      <ellipse
         cx="30"
         cy="240"
         rx="24"
         ry="7"
         id="ellipse73" />
      <ellipse
         cx="372"
         cy="239"
         rx="25"
         ry="7"
         id="ellipse74" />
    </g>
  </g>
</svg>
