<?xml version="1.0" encoding="UTF-8" standalone="no"?>
<svg
   width="400"
   height="250"
   viewBox="0 0 400 250"
   version="1.1"
   id="svg44"
   xmlns="http://www.w3.org/2000/svg"
   xmlns:svg="http://www.w3.org/2000/svg">
  <defs
     id="defs2">
    <linearGradient
       id="dr-sky"
       x1="0"
       y1="0"
       x2="0"
       y2="1">
      <stop
         offset="0"
         stop-color="#d9eef8"
         id="stop1" />
      <stop
         offset="1"
         stop-color="#f9e5cf"
         id="stop2" />
    </linearGradient>
    <filter
       id="dr-shadow"
       x="-0.076666665"
       y="-0.39428571"
       width="1.1533333"
       height="1.7885714">
      <feGaussianBlur
         stdDeviation="2.3"
         id="feGaussianBlur2" />
    </filter>
  </defs>
  <g
     id="dr-sky-layer">
    <rect
       width="400"
       height="250"
       fill="url(#dr-sky)"
       id="rect2" />
    <circle
       cx="72"
       cy="43"
       r="25"
       fill="#ffe39a"
       opacity="0.52"
       id="circle2" />
    <circle
       cx="72"
       cy="43"
       r="14"
       fill="#fff5ca"
       id="circle3" />
    <path
       d="M276 48 C291 37 310 40 318 52 C329 42 348 44 354 58 C369 57 378 66 374 75 H267 C264 63 269 54 276 48Z"
       fill="#fff"
       opacity="0.44"
       id="path3" />
  </g>
  <g
     id="dr-depth-layer">
    <path
       d="M0 118 C47 92 94 99 138 113 C185 88 233 95 273 112 C317 89 361 95 400 115 V191 H0Z"
       fill="#bad99b"
       id="path4" />
    <path
       d="M0 144 C47 121 90 128 128 142 C174 117 223 124 261 145 C309 120 358 126 400 145 V202 H0Z"
       fill="#91c486"
       id="path5" />
    <g
       fill="#67a478"
       stroke="#3a2461"
       stroke-width="2"
       opacity="0.7"
       id="g9">
      <path
         d="M15 134 L36 78 L57 134Z"
         id="path6" />
      <path
         d="M54 135 L77 72 L100 135Z"
         id="path7" />
      <path
         d="M292 136 L315 73 L338 136Z"
         id="path8" />
      <path
         d="M342 137 L366 80 L390 137Z"
         id="path9" />
    </g>
  </g>
  <g
     id="dr-ground-layer">
    <path
       d="M0 166 C64 149 123 157 176 172 C230 150 303 150 400 167 V250 H0Z"
       fill="#78b78b"
       id="path10" />
    <path
       d="M0 208 C84 183 159 198 223 210 C292 186 348 191 400 206 V250 H0Z"
       fill="#529970"
       id="path11" />
    <path
       d="M216 250 C205 220 193 197 177 177 C164 160 154 150 142 139"
       fill="none"
       stroke="#f2d29c"
       stroke-width="23"
       stroke-linecap="round"
       id="path12" />
    <path
       d="M216 250 C236 222 258 202 286 187 C307 176 328 170 350 167"
       fill="none"
       stroke="#cfe0b4"
       stroke-width="23"
       stroke-linecap="round"
       id="path13" />
    <path
       d="M216 250 C205 220 193 197 177 177 M216 250 C236 222 258 202 286 187"
       fill="none"
       stroke="#fff8df"
       stroke-width="3"
       stroke-linecap="round"
       opacity="0.72"
       id="path14" />
  </g>
  <g
     id="dr-tree-layer">
    <path
       d="M31 211 C36 171 35 132 44 98"
       fill="none"
       stroke="#8b5a3c"
       stroke-width="12"
       stroke-linecap="round"
       id="path15" />
    <g
       fill="#76b681"
       stroke="#3a2461"
       stroke-width="2.7"
       id="g17">
      <circle
         cx="45"
         cy="87"
         r="29"
         id="circle15" />
      <circle
         cx="23"
         cy="112"
         r="21"
         id="circle16" />
      <circle
         cx="70"
         cy="111"
         r="25"
         id="circle17" />
    </g>
    <path
       d="M370 210 C367 176 367 145 361 112"
       fill="none"
       stroke="#8b5a3c"
       stroke-width="10"
       stroke-linecap="round"
       id="path17" />
    <g
       fill="#6eaa7d"
       stroke="#3a2461"
       stroke-width="2.5"
       id="g20">
      <circle
         cx="360"
         cy="95"
         r="27"
         id="circle18" />
      <circle
         cx="337"
         cy="117"
         r="21"
         id="circle19" />
      <circle
         cx="383"
         cy="121"
         r="24"
         id="circle20" />
    </g>
  </g>
  <g
     id="dr-clues-layer">
    <path
       d="M112 142 C126 130 148 130 164 142"
       fill="none"
       stroke="#8b5a3c"
       stroke-width="6"
       stroke-linecap="round"
       id="path20" />
    <path
       d="M112 144 H165 M119 138 V151 M132 134 V149 M146 134 V149 M159 138 V151"
       stroke="#3a2461"
       stroke-width="2"
       id="path21" />
    <g
       fill="#f39ab7"
       stroke="#3a2461"
       stroke-width="1.5"
       id="g23">
      <circle
         cx="303"
         cy="169"
         r="5"
         id="circle21" />
      <circle
         cx="327"
         cy="157"
         r="4.5"
         id="circle22" />
      <circle
         cx="347"
         cy="166"
         r="4"
         id="circle23" />
    </g>
    <g
       fill="#f7c54a"
       stroke="#3a2461"
       stroke-width="1.4"
       id="g24">
      <path
         d="M283 145 l2 5 5 2-5 2-2 5-2-5-5-2 5-2Z"
         id="path23" />
    </g>
    <path
       d="M318 136 q8-8 16 0 q-8 7-16 0 M342 144 q7-7 14 0 q-7 6-14 0"
       fill="#bfe8f6"
       stroke="#3a2461"
       stroke-width="1.5"
       id="path24" />
  </g>
  <g
     id="dr-basket-layer">
    <ellipse
       cx="217"
       cy="231"
       rx="44"
       ry="7"
       fill="#3a2461"
       opacity="0.14"
       filter="url(#dr-shadow)"
       id="ellipse24" />
    <path
       d="M188 190 Q217 161 246 190"
       fill="none"
       stroke="#8b5a3c"
       stroke-width="7"
       stroke-linecap="round"
       id="path25" />
    <path
       d="M183 190 H251 L244 222 Q217 231 190 222Z"
       fill="#dba95e"
       stroke="#3a2461"
       stroke-width="3"
       id="path26" />
    <path
       d="M190 201 H245 M194 212 H241 M202 190 L204 225 M217 189 V228 M233 190 L231 225"
       fill="none"
       stroke="#9f6d3f"
       stroke-width="1.8"
       id="path27" />
    <g
       fill="#f26f6f"
       stroke="#3a2461"
       stroke-width="1.6"
       id="g30">
      <circle
         cx="200"
         cy="187"
         r="7"
         id="circle27" />
      <circle
         cx="215"
         cy="182"
         r="7"
         id="circle28" />
      <circle
         cx="230"
         cy="187"
         r="7"
         id="circle29" />
      <circle
         cx="242"
         cy="183"
         r="6"
         id="circle30" />
    </g>
  </g>
  <g
     id="dr-poppy-layer">
    <ellipse
       cx="102"
       cy="232"
       rx="36"
       ry="7"
       fill="#3a2461"
       opacity="0.15"
       filter="url(#dr-shadow)"
       id="ellipse30" />
    <path
       d="M79 181 C68 188 66 199 72 205 M125 181 C137 177 148 169 153 158"
       fill="none"
       stroke="#f6d3b3"
       stroke-width="6.5"
       stroke-linecap="round"
       id="path30" />
    <circle
       cx="154"
       cy="156"
       r="4"
       fill="#f6d3b3"
       stroke="#3a2461"
       stroke-width="1.7"
       id="circle31" />
    <path
       d="M78 172 C81 160 89 154 102 154 C115 154 123 161 126 174 L130 218 C113 223 90 223 73 217Z"
       fill="#f36fa3"
       stroke="#3a2461"
       stroke-width="3.4"
       id="path31" />
    <path
       d="M92 219 v10 M114 219 v10"
       stroke="#5b4677"
       stroke-width="7"
       stroke-linecap="round"
       id="path32" />
    <path
       d="M85 231 h15 M107 231 h15"
       stroke="#3a2461"
       stroke-width="5"
       stroke-linecap="round"
       id="path33" />
    <circle
       cx="102"
       cy="136"
       r="20"
       fill="#f6d3b3"
       stroke="#3a2461"
       stroke-width="3.3"
       id="circle33" />
    <path
       d="M83 135 C79 118 90 109 104 109 C117 109 125 119 122 135 C116 126 109 122 99 122 C93 122 88 127 83 135Z"
       fill="#8a5a34"
       stroke="#3a2461"
       stroke-width="3"
       id="path34" />
    <path
       d="M85 129 q-8 8-2 18 M121 129 q8 8 2 18"
       fill="none"
       stroke="#8a5a34"
       stroke-width="5"
       stroke-linecap="round"
       id="path35" />
    <circle
       cx="95"
       cy="137"
       r="2.2"
       fill="#3a2461"
       id="circle35" />
    <circle
       cx="109"
       cy="137"
       r="2.2"
       fill="#3a2461"
       id="circle36" />
    <ellipse
       cx="102"
       cy="146"
       rx="2.7"
       ry="3.2"
       fill="#3a2461"
       id="ellipse36" />
    <path
       d="M81 117 H124 L119 109 H86Z"
       fill="#e8c07a"
       stroke="#3a2461"
       stroke-width="2.7"
       id="path36" />
    <path
       d="M89 109 L94 98 L102 107 L109 97 L116 109Z"
       fill="#f6c343"
       stroke="#3a2461"
       stroke-width="2.4"
       id="path37" />
  </g>
  <g
     id="dr-sparkle-layer">
    <g
       fill="#f7c54a"
       stroke="#3a2461"
       stroke-width="1.5"
       id="g39">
      <path
         d="M150 111 l3 7 7 3-7 3-3 7-3-7-7-3 7-3Z"
         id="path38" />
      <path
         d="M326 111 l3 7 7 3-7 3-3 7-3-7-7-3 7-3Z"
         id="path39" />
    </g>
  </g>
  <g
     id="dr-foreground-layer">
    <path
       d="M0 234 C19 224 36 227 53 240 V250 H0Z"
       fill="#38795d"
       id="path40" />
    <path
       d="M400 232 C382 223 364 228 348 243 V250 H400Z"
       fill="#38795d"
       id="path41" />
    <g
       fill="#75b68a"
       stroke="#3a2461"
       stroke-width="1.7"
       id="g44">
      <ellipse
         cx="14"
         cy="230"
         rx="8"
         ry="15"
         transform="rotate(-28 14 230)"
         id="ellipse41" />
      <ellipse
         cx="33"
         cy="233"
         rx="8"
         ry="16"
         transform="rotate(22 33 233)"
         id="ellipse42" />
      <ellipse
         cx="373"
         cy="233"
         rx="8"
         ry="16"
         transform="rotate(-20 373 233)"
         id="ellipse43" />
      <ellipse
         cx="391"
         cy="228"
         rx="8"
         ry="15"
         transform="rotate(28 391 228)"
         id="ellipse44" />
    </g>
  </g>
</svg>
