<?xml version="1.0" encoding="UTF-8" standalone="no"?>
<svg
   width="400"
   height="250"
   viewBox="0 0 400 250"
   version="1.1"
   id="svg54"
   xmlns="http://www.w3.org/2000/svg"
   xmlns:svg="http://www.w3.org/2000/svg">
  <defs
     id="defs4">
    <linearGradient
       id="problem-sky"
       x1="0"
       y1="0"
       x2="0"
       y2="1">
      <stop
         offset="0"
         stop-color="#d9eef8"
         id="stop1" />
      <stop
         offset="1"
         stop-color="#f7ead7"
         id="stop2" />
    </linearGradient>
    <linearGradient
       id="problem-path"
       x1="0"
       y1="0"
       x2="1"
       y2="1">
      <stop
         offset="0"
         stop-color="#fff2d2"
         id="stop3" />
      <stop
         offset="1"
         stop-color="#e4c28c"
         id="stop4" />
    </linearGradient>
    <filter
       id="problem-shadow"
       x="-0.080000003"
       y="-0.41142859"
       width="1.16"
       height="1.8228572">
      <feGaussianBlur
         stdDeviation="2.4"
         id="feGaussianBlur4" />
    </filter>
  </defs>
  <g
     id="problem-sky-layer">
    <rect
       width="400"
       height="250"
       fill="url(#problem-sky)"
       id="rect4" />
    <circle
       cx="72"
       cy="43"
       r="22"
       fill="#ffe39a"
       opacity="0.48"
       id="circle4" />
    <circle
       cx="72"
       cy="43"
       r="13"
       fill="#fff5ca"
       opacity="0.88"
       id="circle5" />
    <path
       d="M278 48 C293 37 312 40 319 52 C329 42 348 44 354 58 C369 57 378 66 374 75 H268 C264 63 269 54 278 48Z"
       fill="#fff"
       opacity="0.42"
       id="path5" />
  </g>
  <g
     id="problem-depth-layer">
    <path
       d="M0 119 C48 92 94 99 138 113 C185 88 233 95 273 112 C317 89 361 95 400 115 V191 H0Z"
       fill="#bad99b"
       id="path6" />
    <path
       d="M0 144 C47 122 90 128 128 142 C174 117 223 124 261 145 C309 120 358 126 400 145 V202 H0Z"
       fill="#91c486"
       id="path7" />
    <g
       fill="#67a478"
       stroke="#3a2461"
       stroke-width="2"
       stroke-linejoin="round"
       opacity="0.7"
       id="g11">
      <path
         d="M19 132 L37 81 L55 132Z"
         id="path8" />
      <path
         d="M58 134 L78 73 L99 134Z"
         id="path9" />
      <path
         d="M294 134 L316 76 L338 134Z"
         id="path10" />
      <path
         d="M344 136 L366 82 L389 136Z"
         id="path11" />
    </g>
    <g
       fill="#4f8e6d"
       opacity="0.46"
       id="g13">
      <circle
         cx="140"
         cy="136"
         r="24"
         id="circle11" />
      <circle
         cx="183"
         cy="139"
         r="18"
         id="circle12" />
      <circle
         cx="247"
         cy="136"
         r="25"
         id="circle13" />
    </g>
  </g>
  <g
     id="problem-ground-layer">
    <path
       d="M0 166 C64 149 123 157 176 172 C230 150 303 150 400 167 V250 H0Z"
       fill="#78b78b"
       id="path13" />
    <path
       d="M0 208 C84 183 159 198 223 210 C292 186 348 191 400 206 V250 H0Z"
       fill="#529970"
       id="path14" />
    <path
       d="M184 250 C201 226 227 209 263 194 C297 181 334 181 366 190 C332 195 304 208 284 223 C268 235 260 244 255 250Z"
       fill="url(#problem-path)"
       stroke="#3a2461"
       stroke-width="2.2"
       id="path15" />
    <path
       d="M219 243 C240 220 271 203 307 192"
       fill="none"
       stroke="#fff7dd"
       stroke-width="3"
       stroke-linecap="round"
       opacity="0.62"
       id="path16" />
  </g>
  <g
     id="problem-tree-layer">
    <path
       d="M31 210 C36 171 35 132 44 99"
       fill="none"
       stroke="#8b5a3c"
       stroke-width="12"
       stroke-linecap="round"
       id="path17" />
    <path
       d="M43 139 C57 126 71 120 85 121"
       fill="none"
       stroke="#8b5a3c"
       stroke-width="6"
       stroke-linecap="round"
       id="path18" />
    <g
       fill="#76b681"
       stroke="#3a2461"
       stroke-width="2.7"
       id="g21">
      <circle
         cx="45"
         cy="88"
         r="29"
         id="circle18" />
      <circle
         cx="24"
         cy="112"
         r="21"
         id="circle19" />
      <circle
         cx="70"
         cy="111"
         r="25"
         id="circle20" />
      <circle
         cx="89"
         cy="137"
         r="18"
         id="circle21" />
    </g>
    <path
       d="M370 210 C367 177 367 145 361 113"
       fill="none"
       stroke="#8b5a3c"
       stroke-width="10"
       stroke-linecap="round"
       id="path21" />
    <g
       fill="#6eaa7d"
       stroke="#3a2461"
       stroke-width="2.5"
       id="g24">
      <circle
         cx="360"
         cy="96"
         r="27"
         id="circle22" />
      <circle
         cx="336"
         cy="117"
         r="21"
         id="circle23" />
      <circle
         cx="382"
         cy="122"
         r="24"
         id="circle24" />
    </g>
  </g>
  <g
     id="problem-paw-layer"
     fill="#9c613d"
     stroke="#3a2461"
     stroke-width="1.2">
    <g
       transform="translate(214 219) rotate(-14)"
       id="g27">
      <ellipse
         cy="3"
         rx="5.5"
         ry="4.4"
         id="ellipse24" />
      <circle
         cx="-5"
         cy="-3"
         r="2"
         id="circle25" />
      <circle
         cy="-5"
         r="2"
         id="circle26" />
      <circle
         cx="5"
         cy="-3"
         r="2"
         id="circle27" />
    </g>
    <g
       transform="translate(250 205) rotate(8)"
       id="g30">
      <ellipse
         cy="3"
         rx="5"
         ry="4"
         id="ellipse27" />
      <circle
         cx="-4.5"
         cy="-3"
         r="1.9"
         id="circle28" />
      <circle
         cy="-4.5"
         r="1.9"
         id="circle29" />
      <circle
         cx="4.5"
         cy="-3"
         r="1.9"
         id="circle30" />
    </g>
    <g
       transform="translate(286 212) rotate(-10)"
       id="g33">
      <ellipse
         cy="3"
         rx="4.6"
         ry="3.8"
         id="ellipse30" />
      <circle
         cx="-4"
         cy="-2.6"
         r="1.8"
         id="circle31" />
      <circle
         cy="-4.2"
         r="1.8"
         id="circle32" />
      <circle
         cx="4"
         cy="-2.6"
         r="1.8"
         id="circle33" />
    </g>
    <g
       transform="translate(320 196) rotate(12)"
       id="g36">
      <ellipse
         cy="3"
         rx="4.2"
         ry="3.5"
         id="ellipse33" />
      <circle
         cx="-3.8"
         cy="-2.4"
         r="1.6"
         id="circle34" />
      <circle
         cy="-3.8"
         r="1.6"
         id="circle35" />
      <circle
         cx="3.8"
         cy="-2.4"
         r="1.6"
         id="circle36" />
    </g>
  </g>
  <g
     id="problem-clue-layer">
    <path
       d="M336 172 q14-15 13-31"
       fill="none"
       stroke="#e8b04b"
       stroke-width="7"
       stroke-linecap="round"
       id="path36" />
    <path
       d="M346 142 q8-6 12-1"
       fill="none"
       stroke="#3a2461"
       stroke-width="2"
       stroke-linecap="round"
       id="path37" />
    <g
       fill="#f7c54a"
       stroke="#3a2461"
       stroke-width="1.5"
       id="g38">
      <path
         d="M343 121 l2.5 6 6 2.5-6 2.5-2.5 6-2.5-6-6-2.5 6-2.5Z"
         id="path38" />
    </g>
  </g>
  <g
     id="problem-poppy-layer">
    <ellipse
       cx="139"
       cy="232"
       rx="36"
       ry="7"
       fill="#3a2461"
       opacity="0.15"
       filter="url(#problem-shadow)"
       id="ellipse38" />
    <path
       d="M116 182 C105 187 102 197 107 204 M160 181 C172 178 179 170 182 160"
       fill="none"
       stroke="#f6d3b3"
       stroke-width="6.5"
       stroke-linecap="round"
       id="path39" />
    <circle
       cx="182"
       cy="158"
       r="4"
       fill="#f6d3b3"
       stroke="#3a2461"
       stroke-width="1.7"
       id="circle39" />
    <path
       d="M115 172 C118 160 126 154 138 154 C151 154 159 161 162 174 L166 218 C149 223 126 223 109 217Z"
       fill="#f36fa3"
       stroke="#3a2461"
       stroke-width="3.4"
       stroke-linejoin="round"
       id="path40" />
    <path
       d="M120 174 C129 182 148 182 157 174 L160 204 C145 210 126 210 113 204Z"
       fill="#fb8eb6"
       opacity="0.72"
       id="path41" />
    <path
       d="M128 219 v10 M150 219 v10"
       stroke="#5b4677"
       stroke-width="7"
       stroke-linecap="round"
       id="path42" />
    <path
       d="M121 231 h15 M143 231 h15"
       stroke="#3a2461"
       stroke-width="5"
       stroke-linecap="round"
       id="path43" />
    <circle
       cx="138"
       cy="136"
       r="20"
       fill="#f6d3b3"
       stroke="#3a2461"
       stroke-width="3.3"
       id="circle43" />
    <path
       d="M119 135 C115 118 126 109 140 109 C153 109 161 119 158 135 C152 126 145 122 135 122 C129 122 124 127 119 135Z"
       fill="#8a5a34"
       stroke="#3a2461"
       stroke-width="3"
       stroke-linejoin="round"
       id="path44" />
    <path
       d="M121 129 q-8 8-2 18 M157 129 q8 8 2 18"
       fill="none"
       stroke="#8a5a34"
       stroke-width="5"
       stroke-linecap="round"
       id="path45" />
    <circle
       cx="131"
       cy="137"
       r="2.2"
       fill="#3a2461"
       id="circle45" />
    <circle
       cx="145"
       cy="137"
       r="2.2"
       fill="#3a2461"
       id="circle46" />
    <path
       d="M129 147 q9-5 18 0"
       fill="none"
       stroke="#3a2461"
       stroke-width="2.2"
       stroke-linecap="round"
       id="path46" />
    <path
       d="M124 130 q5-4 10-1 M142 129 q5-3 10 1"
       fill="none"
       stroke="#3a2461"
       stroke-width="1.7"
       stroke-linecap="round"
       id="path47" />
    <path
       d="M117 117 H160 L155 109 H122Z"
       fill="#e8c07a"
       stroke="#3a2461"
       stroke-width="2.7"
       stroke-linejoin="round"
       id="path48" />
    <path
       d="M125 109 L130 98 L138 107 L145 97 L152 109Z"
       fill="#f6c343"
       stroke="#3a2461"
       stroke-width="2.4"
       stroke-linejoin="round"
       id="path49" />
  </g>
  <g
     id="problem-foreground-layer">
    <path
       d="M0 234 C19 224 36 227 53 240 V250 H0Z"
       fill="#38795d"
       id="path50" />
    <path
       d="M400 232 C382 223 364 228 348 243 V250 H400Z"
       fill="#38795d"
       id="path51" />
    <g
       fill="#75b68a"
       stroke="#3a2461"
       stroke-width="1.7"
       id="g54">
      <ellipse
         cx="14"
         cy="230"
         rx="8"
         ry="15"
         transform="rotate(-28 14 230)"
         id="ellipse51" />
      <ellipse
         cx="33"
         cy="233"
         rx="8"
         ry="16"
         transform="rotate(22 33 233)"
         id="ellipse52" />
      <ellipse
         cx="373"
         cy="233"
         rx="8"
         ry="16"
         transform="rotate(-20 373 233)"
         id="ellipse53" />
      <ellipse
         cx="391"
         cy="228"
         rx="8"
         ry="15"
         transform="rotate(28 391 228)"
         id="ellipse54" />
    </g>
  </g>
</svg>
