<?xml version="1.0" encoding="UTF-8" standalone="no"?>
<svg
   width="400"
   height="250"
   viewBox="0 0 400 250"
   version="1.1"
   id="svg54"
   xmlns="http://www.w3.org/2000/svg"
   xmlns:svg="http://www.w3.org/2000/svg">
  <defs
     id="defs4">
    <linearGradient
       id="intro-sky"
       x1="0"
       y1="0"
       x2="0"
       y2="1">
      <stop
         offset="0"
         stop-color="#d9eef8"
         id="stop1" />
      <stop
         offset="1"
         stop-color="#f7ead7"
         id="stop2" />
    </linearGradient>
    <linearGradient
       id="intro-path"
       x1="0"
       y1="0"
       x2="1"
       y2="1">
      <stop
         offset="0"
         stop-color="#fff3d4"
         id="stop3" />
      <stop
         offset="1"
         stop-color="#e6c58e"
         id="stop4" />
    </linearGradient>
    <filter
       id="intro-shadow"
       x="-0.080000003"
       y="-0.41142859"
       width="1.16"
       height="1.8228572">
      <feGaussianBlur
         stdDeviation="2.4"
         id="feGaussianBlur4" />
    </filter>
  </defs>
  <g
     id="intro-sky-layer">
    <rect
       width="400"
       height="250"
       fill="url(#intro-sky)"
       id="rect4" />
    <circle
       cx="76"
       cy="44"
       r="24"
       fill="#ffe39a"
       opacity="0.5"
       id="circle4" />
    <circle
       cx="76"
       cy="44"
       r="14"
       fill="#fff5ca"
       opacity="0.9"
       id="circle5" />
    <path
       d="M18 62 C34 47 55 50 64 62 C75 49 96 52 101 66 C116 65 125 73 121 83 H12 C7 73 9 67 18 62Z"
       fill="#fff"
       opacity="0.48"
       id="path5" />
    <path
       d="M282 48 C296 37 316 40 323 52 C334 42 351 45 357 58 C371 57 380 66 376 75 H272 C268 63 273 54 282 48Z"
       fill="#fff"
       opacity="0.38"
       id="path6" />
  </g>
  <g
     id="intro-depth-layer">
    <path
       d="M0 137 C74 126 132 133 197 139 C264 128 329 126 400 138 V181 H0Z"
       fill="#a9c99b"
       id="path7" />
    <g
       stroke="#3a2461"
       stroke-width="2.6"
       stroke-linejoin="round"
       id="g15">
      <rect
         x="-8"
         y="101"
         width="106"
         height="76"
         rx="5"
         fill="#f4c3a1"
         id="rect7" />
      <path
         d="M-14 104 L45 59 L105 104Z"
         fill="#d96f7f"
         id="path8" />
      <rect
         x="17"
         y="121"
         width="20"
         height="24"
         rx="4"
         fill="#ffe9a6"
         id="rect8" />
      <rect
         x="59"
         y="121"
         width="20"
         height="24"
         rx="4"
         fill="#bfe3ef"
         id="rect9" />
      <rect
         x="126"
         y="88"
         width="96"
         height="89"
         rx="6"
         fill="#f4dda2"
         id="rect10" />
      <path
         d="M116 91 L174 50 L233 91Z"
         fill="#9477bb"
         id="path10" />
      <rect
         x="145"
         y="111"
         width="20"
         height="25"
         rx="4"
         fill="#bfe3ef"
         id="rect11" />
      <rect
         x="183"
         y="111"
         width="20"
         height="25"
         rx="4"
         fill="#ffe9a6"
         id="rect12" />
      <rect
         x="286"
         y="99"
         width="121"
         height="78"
         rx="5"
         fill="#efb4bd"
         id="rect13" />
      <path
         d="M278 102 L343 62 L411 102Z"
         fill="#6e9fb0"
         id="path13" />
      <rect
         x="307"
         y="120"
         width="20"
         height="24"
         rx="4"
         fill="#ffe9a6"
         id="rect14" />
      <rect
         x="351"
         y="120"
         width="20"
         height="24"
         rx="4"
         fill="#c9e7f1"
         id="rect15" />
    </g>
    <g
       fill="#fff8c7"
       opacity="0.75"
       id="g20">
      <circle
         cx="27"
         cy="132"
         r="4"
         id="circle15" />
      <circle
         cx="69"
         cy="132"
         r="4"
         id="circle16" />
      <circle
         cx="155"
         cy="122"
         r="4"
         id="circle17" />
      <circle
         cx="193"
         cy="122"
         r="4"
         id="circle18" />
      <circle
         cx="317"
         cy="131"
         r="4"
         id="circle19" />
      <circle
         cx="361"
         cy="131"
         r="4"
         id="circle20" />
    </g>
  </g>
  <g
     id="intro-ground-layer">
    <path
       d="M0 166 H400 V250 H0Z"
       fill="#93bd91"
       id="path20" />
    <path
       d="M90 250 C128 219 184 198 252 181 C282 174 317 171 353 175 C315 185 286 199 263 218 C247 232 237 243 231 250Z"
       fill="url(#intro-path)"
       stroke="#3a2461"
       stroke-width="2.2"
       id="path21" />
    <g
       fill="none"
       stroke="#c9a978"
       stroke-width="1.4"
       opacity="0.7"
       id="g23">
      <path
         d="M129 232 q16-9 34 0 M169 214 q18-9 38 0 M214 198 q19-8 41 0 M264 184 q18-7 39 0"
         id="path22" />
      <path
         d="M151 226 l8 13 M194 207 l7 13 M242 190 l7 11 M292 179 l6 9"
         id="path23" />
    </g>
  </g>
  <g
     id="intro-tree-layer">
    <path
       d="M41 210 V111"
       fill="none"
       stroke="#3a2461"
       stroke-width="5"
       stroke-linecap="round"
       id="path24" />
    <path
       d="M29 111 Q41 92 53 111Z"
       fill="#f6c343"
       stroke="#3a2461"
       stroke-width="2.5"
       id="path25" />
    <circle
       cx="41"
       cy="110"
       r="16"
       fill="#fff0b7"
       opacity="0.45"
       id="circle25" />
    <rect
       x="321"
       y="151"
       width="69"
       height="22"
       rx="5"
       fill="#c47758"
       stroke="#3a2461"
       stroke-width="2.4"
       id="rect25" />
    <g
       fill="#f39ab7"
       stroke="#3a2461"
       stroke-width="1.4"
       id="g28">
      <circle
         cx="335"
         cy="151"
         r="7"
         id="circle26" />
      <circle
         cx="354"
         cy="147"
         r="8"
         id="circle27" />
      <circle
         cx="374"
         cy="151"
         r="7"
         id="circle28" />
    </g>
    <path
       d="M335 158 v10 M354 155 v13 M374 158 v10"
       stroke="#5e9c70"
       stroke-width="3"
       id="path28" />
  </g>
  <g
     id="intro-sparkle-layer"
     fill="#f7c54a"
     stroke="#3a2461"
     stroke-width="1.6">
    <path
       d="M188 115 l3 7 7 3-7 3-3 7-3-7-7-3 7-3Z"
       id="path29" />
    <path
       d="M240 91 l2.5 6 6 2.5-6 2.5-2.5 6-2.5-6-6-2.5 6-2.5Z"
       id="path30" />
    <path
       d="M304 145 l2 5 5 2-5 2-2 5-2-5-5-2 5-2Z"
       id="path31" />
  </g>
  <g
     id="intro-biscuit-layer">
    <ellipse
       cx="267"
       cy="229"
       rx="38"
       ry="7"
       fill="#3a2461"
       opacity="0.15"
       filter="url(#intro-shadow)"
       id="ellipse31" />
    <path
       d="M290 199 q20-18 18-38"
       fill="none"
       stroke="#e8b04b"
       stroke-width="8"
       stroke-linecap="round"
       id="path32" />
    <ellipse
       cx="267"
       cy="205"
       rx="33"
       ry="23"
       fill="#e8b04b"
       stroke="#3a2461"
       stroke-width="3.4"
       id="ellipse32" />
    <ellipse
       cx="265"
       cy="210"
       rx="19"
       ry="13"
       fill="#f4d28a"
       opacity="0.82"
       id="ellipse33" />
    <path
       d="M248 221 v10 M279 221 v10"
       stroke="#9c613d"
       stroke-width="8"
       stroke-linecap="round"
       id="path33" />
    <path
       d="M239 232 h18 M271 232 h18"
       stroke="#3a2461"
       stroke-width="5"
       stroke-linecap="round"
       id="path34" />
    <circle
       cx="238"
       cy="188"
       r="19"
       fill="#e8b04b"
       stroke="#3a2461"
       stroke-width="3.2"
       id="circle34" />
    <path
       d="M223 179 C215 183 216 199 226 202 L231 190Z M252 179 C260 184 258 199 249 202 L245 190Z"
       fill="#9c613d"
       stroke="#3a2461"
       stroke-width="2.4"
       stroke-linejoin="round"
       id="path35" />
    <ellipse
       cx="238"
       cy="194"
       rx="10"
       ry="7"
       fill="#f4d28a"
       id="ellipse35" />
    <circle
       cx="232"
       cy="187"
       r="2.1"
       fill="#3a2461"
       id="circle35" />
    <circle
       cx="244"
       cy="187"
       r="2.1"
       fill="#3a2461"
       id="circle36" />
    <ellipse
       cx="238"
       cy="193"
       rx="2.8"
       ry="2.1"
       fill="#3a2461"
       id="ellipse36" />
    <path
       d="M238 196 q-5 5-9 0 M239 196 q4 5 9 0"
       fill="none"
       stroke="#3a2461"
       stroke-width="1.8"
       stroke-linecap="round"
       id="path36" />
  </g>
  <g
     id="intro-poppy-layer">
    <ellipse
       cx="139"
       cy="232"
       rx="36"
       ry="7"
       fill="#3a2461"
       opacity="0.15"
       filter="url(#intro-shadow)"
       id="ellipse37" />
    <path
       d="M116 181 C104 185 100 194 104 202 M161 180 C173 183 179 192 177 200"
       fill="none"
       stroke="#f6d3b3"
       stroke-width="6.5"
       stroke-linecap="round"
       id="path37" />
    <path
       d="M115 172 C118 160 126 154 138 154 C151 154 159 161 162 174 L166 218 C149 223 126 223 109 217Z"
       fill="#f36fa3"
       stroke="#3a2461"
       stroke-width="3.4"
       stroke-linejoin="round"
       id="path38" />
    <path
       d="M120 174 C129 182 148 182 157 174 L160 204 C145 210 126 210 113 204Z"
       fill="#fb8eb6"
       opacity="0.72"
       id="path39" />
    <path
       d="M128 219 v10 M150 219 v10"
       stroke="#5b4677"
       stroke-width="7"
       stroke-linecap="round"
       id="path40" />
    <path
       d="M121 231 h15 M143 231 h15"
       stroke="#3a2461"
       stroke-width="5"
       stroke-linecap="round"
       id="path41" />
    <circle
       cx="138"
       cy="136"
       r="20"
       fill="#f6d3b3"
       stroke="#3a2461"
       stroke-width="3.3"
       id="circle41" />
    <path
       d="M119 135 C115 118 126 109 140 109 C153 109 161 119 158 135 C152 126 145 122 135 122 C129 122 124 127 119 135Z"
       fill="#8a5a34"
       stroke="#3a2461"
       stroke-width="3"
       stroke-linejoin="round"
       id="path42" />
    <path
       d="M121 129 q-8 8-2 18 M157 129 q8 8 2 18"
       fill="none"
       stroke="#8a5a34"
       stroke-width="5"
       stroke-linecap="round"
       id="path43" />
    <circle
       cx="131"
       cy="137"
       r="2.1"
       fill="#3a2461"
       id="circle43" />
    <circle
       cx="145"
       cy="137"
       r="2.1"
       fill="#3a2461"
       id="circle44" />
    <path
       d="M132 146 q6 5 12 0"
       fill="none"
       stroke="#3a2461"
       stroke-width="2.2"
       stroke-linecap="round"
       id="path44" />
    <ellipse
       cx="125"
       cy="144"
       rx="4"
       ry="2.2"
       fill="#ee9ba9"
       opacity="0.6"
       id="ellipse44" />
    <ellipse
       cx="151"
       cy="144"
       rx="4"
       ry="2.2"
       fill="#ee9ba9"
       opacity="0.6"
       id="ellipse45" />
    <path
       d="M117 117 H160 L155 109 H122Z"
       fill="#e8c07a"
       stroke="#3a2461"
       stroke-width="2.7"
       stroke-linejoin="round"
       id="path45" />
    <path
       d="M125 109 L130 98 L138 107 L145 97 L152 109Z"
       fill="#f6c343"
       stroke="#3a2461"
       stroke-width="2.4"
       stroke-linejoin="round"
       id="path46" />
  </g>
  <g
     id="intro-glance-layer">
    <path
       d="M160 161 C183 151 204 155 219 171"
       fill="none"
       stroke="#f8edcf"
       stroke-width="3"
       stroke-linecap="round"
       opacity="0.7"
       id="path47" />
  </g>
  <g
     id="intro-foreground-layer">
    <path
       d="M0 238 H58 L52 250 H0Z M348 239 H400 V250 H354Z"
       fill="#b7654c"
       stroke="#3a2461"
       stroke-width="2"
       id="path48" />
    <g
       fill="#f7c54a"
       stroke="#3a2461"
       stroke-width="1.5"
       id="g52">
      <circle
         cx="13"
         cy="236"
         r="6"
         id="circle48" />
      <circle
         cx="31"
         cy="233"
         r="7"
         id="circle49" />
      <circle
         cx="48"
         cy="237"
         r="6"
         id="circle50" />
      <circle
         cx="363"
         cy="236"
         r="6"
         id="circle51" />
      <circle
         cx="382"
         cy="233"
         r="7"
         id="circle52" />
    </g>
    <g
       fill="#6faa77"
       id="g54">
      <ellipse
         cx="21"
         cy="242"
         rx="7"
         ry="4"
         id="ellipse52" />
      <ellipse
         cx="41"
         cy="242"
         rx="7"
         ry="4"
         id="ellipse53" />
      <ellipse
         cx="372"
         cy="242"
         rx="7"
         ry="4"
         id="ellipse54" />
    </g>
  </g>
</svg>
