<?xml version="1.0" encoding="UTF-8" standalone="no"?>
<svg
   width="400"
   height="250"
   viewBox="0 0 400 250"
   version="1.1"
   id="svg57"
   xmlns="http://www.w3.org/2000/svg"
   xmlns:svg="http://www.w3.org/2000/svg">
  <defs
     id="defs4">
    <linearGradient
       id="ending-sky"
       x1="0"
       y1="0"
       x2="0"
       y2="1">
      <stop
         offset="0"
         stop-color="#d9eef8"
         id="stop1" />
      <stop
         offset="1"
         stop-color="#f9e3d2"
         id="stop2" />
    </linearGradient>
    <linearGradient
       id="ending-path"
       x1="0"
       y1="0"
       x2="1"
       y2="1">
      <stop
         offset="0"
         stop-color="#fff4d6"
         id="stop3" />
      <stop
         offset="1"
         stop-color="#e3be83"
         id="stop4" />
    </linearGradient>
    <filter
       id="ending-shadow"
       x="-0.077837841"
       y="-0.41142859"
       width="1.1556757"
       height="1.8228572">
      <feGaussianBlur
         stdDeviation="2.4"
         id="feGaussianBlur4" />
    </filter>
  </defs>
  <g
     id="ending-sky-layer">
    <rect
       width="400"
       height="250"
       fill="url(#ending-sky)"
       id="rect4" />
    <circle
       cx="72"
       cy="43"
       r="25"
       fill="#ffe39a"
       opacity="0.56"
       id="circle4" />
    <circle
       cx="72"
       cy="43"
       r="14"
       fill="#fff5ca"
       opacity="0.92"
       id="circle5" />
    <path
       d="M278 48 C293 37 312 40 319 52 C329 42 348 44 354 58 C369 57 378 66 374 75 H268 C264 63 269 54 278 48Z"
       fill="#fff"
       opacity="0.46"
       id="path5" />
  </g>
  <g
     id="ending-depth-layer">
    <path
       d="M0 119 C48 92 94 99 138 113 C185 88 233 95 273 112 C317 89 361 95 400 115 V191 H0Z"
       fill="#bad99b"
       id="path6" />
    <path
       d="M0 144 C47 122 90 128 128 142 C174 117 223 124 261 145 C309 120 358 126 400 145 V202 H0Z"
       fill="#91c486"
       id="path7" />
    <g
       fill="#67a478"
       stroke="#3a2461"
       stroke-width="2"
       stroke-linejoin="round"
       opacity="0.7"
       id="g11">
      <path
         d="M18 133 L37 81 L55 133Z"
         id="path8" />
      <path
         d="M56 135 L78 73 L100 135Z"
         id="path9" />
      <path
         d="M289 135 L312 74 L335 135Z"
         id="path10" />
      <path
         d="M343 137 L366 82 L389 137Z"
         id="path11" />
    </g>
    <g
       fill="#4f8e6d"
       opacity="0.46"
       id="g13">
      <circle
         cx="140"
         cy="136"
         r="24"
         id="circle11" />
      <circle
         cx="184"
         cy="139"
         r="18"
         id="circle12" />
      <circle
         cx="247"
         cy="136"
         r="25"
         id="circle13" />
    </g>
  </g>
  <g
     id="ending-ground-layer">
    <path
       d="M0 166 C64 149 123 157 176 172 C230 150 303 150 400 167 V250 H0Z"
       fill="#78b78b"
       id="path13" />
    <path
       d="M0 208 C84 183 159 198 223 210 C292 186 348 191 400 206 V250 H0Z"
       fill="#529970"
       id="path14" />
    <path
       d="M156 250 C177 224 211 207 252 194 C289 183 328 184 364 194 C328 199 298 211 275 226 C260 237 251 245 247 250Z"
       fill="url(#ending-path)"
       stroke="#3a2461"
       stroke-width="2.2"
       id="path15" />
    <path
       d="M194 242 C215 219 247 202 286 191"
       fill="none"
       stroke="#fff8df"
       stroke-width="3"
       stroke-linecap="round"
       opacity="0.66"
       id="path16" />
    <g
       fill="#f39ab7"
       stroke="#3a2461"
       stroke-width="1.4"
       id="g18">
      <circle
         cx="91"
         cy="211"
         r="3.6"
         id="circle16" />
      <circle
         cx="326"
         cy="215"
         r="3.4"
         id="circle17" />
      <circle
         cx="360"
         cy="197"
         r="3"
         id="circle18" />
    </g>
  </g>
  <g
     id="ending-tree-layer">
    <path
       d="M31 210 C36 171 35 132 44 99"
       fill="none"
       stroke="#8b5a3c"
       stroke-width="12"
       stroke-linecap="round"
       id="path18" />
    <path
       d="M43 139 C57 126 71 120 85 121"
       fill="none"
       stroke="#8b5a3c"
       stroke-width="6"
       stroke-linecap="round"
       id="path19" />
    <g
       fill="#76b681"
       stroke="#3a2461"
       stroke-width="2.7"
       id="g22">
      <circle
         cx="45"
         cy="88"
         r="29"
         id="circle19" />
      <circle
         cx="24"
         cy="112"
         r="21"
         id="circle20" />
      <circle
         cx="70"
         cy="111"
         r="25"
         id="circle21" />
      <circle
         cx="89"
         cy="137"
         r="18"
         id="circle22" />
    </g>
    <path
       d="M371 210 C368 177 368 145 362 113"
       fill="none"
       stroke="#8b5a3c"
       stroke-width="10"
       stroke-linecap="round"
       id="path22" />
    <g
       fill="#6eaa7d"
       stroke="#3a2461"
       stroke-width="2.5"
       id="g25">
      <circle
         cx="361"
         cy="96"
         r="27"
         id="circle23" />
      <circle
         cx="337"
         cy="117"
         r="21"
         id="circle24" />
      <circle
         cx="383"
         cy="122"
         r="24"
         id="circle25" />
    </g>
  </g>
  <g
     id="ending-celebration-layer">
    <path
       d="M120 61 C169 42 231 42 281 62"
       fill="none"
       stroke="#3a2461"
       stroke-width="2.2"
       id="path25" />
    <path
       d="M130 58 l8 14 8-14Z"
       fill="#f36fa3"
       stroke="#3a2461"
       stroke-width="1.8"
       id="path26" />
    <path
       d="M169 49 l8 14 8-14Z"
       fill="#f7c54a"
       stroke="#3a2461"
       stroke-width="1.8"
       id="path27" />
    <path
       d="M210 47 l8 14 8-14Z"
       fill="#9fc7e8"
       stroke="#3a2461"
       stroke-width="1.8"
       id="path28" />
    <path
       d="M251 51 l8 14 8-14Z"
       fill="#a777bb"
       stroke="#3a2461"
       stroke-width="1.8"
       id="path29" />
    <g
       fill="#f7c54a"
       stroke="#3a2461"
       stroke-width="1.5"
       id="g31">
      <path
         d="M112 102 l3 7 7 3-7 3-3 7-3-7-7-3 7-3Z"
         id="path30" />
      <path
         d="M286 105 l2.5 6 6 2.5-6 2.5-2.5 6-2.5-6-6-2.5 6-2.5Z"
         id="path31" />
    </g>
    <g
       fill="#bfe8f6"
       fill-opacity="0.45"
       stroke="#3a2461"
       stroke-width="1.5"
       id="g32">
      <circle
         cx="307"
         cy="142"
         r="9"
         id="circle31" />
      <circle
         cx="328"
         cy="126"
         r="6"
         id="circle32" />
    </g>
    <path
       d="M97 150 v-20 l15-4 v19"
       fill="none"
       stroke="#3a2461"
       stroke-width="2.8"
       stroke-linecap="round"
       stroke-linejoin="round"
       id="path32" />
    <ellipse
       cx="92"
       cy="151"
       rx="6"
       ry="4.5"
       fill="#f39ab7"
       stroke="#3a2461"
       stroke-width="1.8"
       id="ellipse32" />
    <ellipse
       cx="107"
       cy="146"
       rx="6"
       ry="4.5"
       fill="#f7c54a"
       stroke="#3a2461"
       stroke-width="1.8"
       id="ellipse33" />
  </g>
  <g
     id="ending-biscuit-layer">
    <ellipse
       cx="254"
       cy="232"
       rx="38"
       ry="7"
       fill="#3a2461"
       opacity="0.15"
       filter="url(#ending-shadow)"
       id="ellipse34" />
    <path
       d="M281 199 q20-18 18-38"
       fill="none"
       stroke="#e8b04b"
       stroke-width="8"
       stroke-linecap="round"
       id="path34" />
    <ellipse
       cx="254"
       cy="207"
       rx="32"
       ry="22"
       fill="#e8b04b"
       stroke="#3a2461"
       stroke-width="3.4"
       id="ellipse35" />
    <ellipse
       cx="252"
       cy="211"
       rx="18"
       ry="12"
       fill="#f4d28a"
       opacity="0.82"
       id="ellipse36" />
    <path
       d="M237 222 v9 M267 222 v9"
       stroke="#9c613d"
       stroke-width="8"
       stroke-linecap="round"
       id="path36" />
    <path
       d="M229 232 h17 M260 232 h17"
       stroke="#3a2461"
       stroke-width="5"
       stroke-linecap="round"
       id="path37" />
    <circle
       cx="228"
       cy="190"
       r="19"
       fill="#e8b04b"
       stroke="#3a2461"
       stroke-width="3.2"
       id="circle37" />
    <path
       d="M213 181 C205 185 206 201 216 204 L221 192Z M242 181 C250 186 248 201 239 204 L235 192Z"
       fill="#9c613d"
       stroke="#3a2461"
       stroke-width="2.4"
       stroke-linejoin="round"
       id="path38" />
    <ellipse
       cx="228"
       cy="196"
       rx="10"
       ry="7"
       fill="#f4d28a"
       id="ellipse38" />
    <path
       d="M218 189 q4 5 8 0 M232 189 q4 5 8 0"
       fill="none"
       stroke="#3a2461"
       stroke-width="2"
       stroke-linecap="round"
       id="path39" />
    <ellipse
       cx="228"
       cy="195"
       rx="2.8"
       ry="2.1"
       fill="#3a2461"
       id="ellipse39" />
    <path
       d="M228 198 q-5 5-9 0 M229 198 q4 5 9 0"
       fill="none"
       stroke="#3a2461"
       stroke-width="1.8"
       stroke-linecap="round"
       id="path40" />
  </g>
  <g
     id="ending-poppy-layer">
    <ellipse
       cx="158"
       cy="232"
       rx="37"
       ry="7"
       fill="#3a2461"
       opacity="0.15"
       filter="url(#ending-shadow)"
       id="ellipse40" />
    <path
       d="M135 178 C122 167 118 154 120 144 M180 178 C191 166 194 153 191 143"
       fill="none"
       stroke="#f6d3b3"
       stroke-width="6.5"
       stroke-linecap="round"
       id="path41" />
    <circle
       cx="120"
       cy="142"
       r="4"
       fill="#f6d3b3"
       stroke="#3a2461"
       stroke-width="1.7"
       id="circle41" />
    <circle
       cx="191"
       cy="141"
       r="4"
       fill="#f6d3b3"
       stroke="#3a2461"
       stroke-width="1.7"
       id="circle42" />
    <path
       d="M133 172 C136 160 144 154 156 154 C169 154 177 161 180 174 L184 218 C167 223 144 223 127 217Z"
       fill="#f36fa3"
       stroke="#3a2461"
       stroke-width="3.4"
       stroke-linejoin="round"
       id="path42" />
    <path
       d="M138 174 C147 182 166 182 175 174 L178 204 C163 210 144 210 131 204Z"
       fill="#fb8eb6"
       opacity="0.72"
       id="path43" />
    <path
       d="M146 219 v10 M168 219 v10"
       stroke="#5b4677"
       stroke-width="7"
       stroke-linecap="round"
       id="path44" />
    <path
       d="M139 231 h15 M161 231 h15"
       stroke="#3a2461"
       stroke-width="5"
       stroke-linecap="round"
       id="path45" />
    <circle
       cx="156"
       cy="136"
       r="20"
       fill="#f6d3b3"
       stroke="#3a2461"
       stroke-width="3.3"
       id="circle45" />
    <path
       d="M137 135 C133 118 144 109 158 109 C171 109 179 119 176 135 C170 126 163 122 153 122 C147 122 142 127 137 135Z"
       fill="#8a5a34"
       stroke="#3a2461"
       stroke-width="3"
       stroke-linejoin="round"
       id="path46" />
    <path
       d="M139 129 q-8 8-2 18 M175 129 q8 8 2 18"
       fill="none"
       stroke="#8a5a34"
       stroke-width="5"
       stroke-linecap="round"
       id="path47" />
    <path
       d="M146 136 q4 5 8 0 M160 136 q4 5 8 0"
       fill="none"
       stroke="#3a2461"
       stroke-width="2"
       stroke-linecap="round"
       id="path48" />
    <path
       d="M149 145 q7 7 14 0"
       fill="none"
       stroke="#3a2461"
       stroke-width="2.2"
       stroke-linecap="round"
       id="path49" />
    <path
       d="M135 117 H178 L173 109 H140Z"
       fill="#e8c07a"
       stroke="#3a2461"
       stroke-width="2.7"
       stroke-linejoin="round"
       id="path50" />
    <path
       d="M143 109 L148 98 L156 107 L163 97 L170 109Z"
       fill="#f6c343"
       stroke="#3a2461"
       stroke-width="2.4"
       stroke-linejoin="round"
       id="path51" />
  </g>
  <g
     id="ending-heart-layer">
    <path
       d="M204 150 C193 139 177 147 180 160 C184 174 204 184 204 184 C204 184 224 174 228 160 C231 147 215 139 204 150Z"
       fill="#f39ab7"
       stroke="#3a2461"
       stroke-width="2.5"
       opacity="0.9"
       id="path52" />
  </g>
  <g
     id="ending-foreground-layer">
    <path
       d="M0 234 C19 224 36 227 53 240 V250 H0Z"
       fill="#38795d"
       id="path53" />
    <path
       d="M400 232 C382 223 364 228 348 243 V250 H400Z"
       fill="#38795d"
       id="path54" />
    <g
       fill="#75b68a"
       stroke="#3a2461"
       stroke-width="1.7"
       id="g57">
      <ellipse
         cx="14"
         cy="230"
         rx="8"
         ry="15"
         transform="rotate(-28 14 230)"
         id="ellipse54" />
      <ellipse
         cx="33"
         cy="233"
         rx="8"
         ry="16"
         transform="rotate(22 33 233)"
         id="ellipse55" />
      <ellipse
         cx="373"
         cy="233"
         rx="8"
         ry="16"
         transform="rotate(-20 373 233)"
         id="ellipse56" />
      <ellipse
         cx="391"
         cy="228"
         rx="8"
         ry="15"
         transform="rotate(28 391 228)"
         id="ellipse57" />
    </g>
  </g>
</svg>
