<?xml version="1.0" encoding="UTF-8" standalone="no"?>
<svg
   width="400"
   height="250"
   viewBox="0 0 400 250"
   version="1.1"
   id="svg45"
   xmlns="http://www.w3.org/2000/svg"
   xmlns:svg="http://www.w3.org/2000/svg">
  <defs
     id="defs5">
    <linearGradient
       id="db-sky"
       x1="0"
       y1="0"
       x2="0"
       y2="1">
      <stop
         offset="0"
         stop-color="#d9eef8"
         id="stop1" />
      <stop
         offset="1"
         stop-color="#f9e5cf"
         id="stop2" />
    </linearGradient>
    <linearGradient
       id="db-water"
       x1="0"
       y1="0"
       x2="1"
       y2="0">
      <stop
         offset="0"
         stop-color="#9dd4e5"
         id="stop3" />
      <stop
         offset="0.5"
         stop-color="#d8f0f5"
         id="stop4" />
      <stop
         offset="1"
         stop-color="#8fc8db"
         id="stop5" />
    </linearGradient>
    <filter
       id="db-shadow"
       x="-0.070769229"
       y="-0.39428571"
       width="1.1415385"
       height="1.7885714">
      <feGaussianBlur
         stdDeviation="2.3"
         id="feGaussianBlur5" />
    </filter>
  </defs>
  <g
     id="db-sky-layer">
    <rect
       width="400"
       height="250"
       fill="url(#db-sky)"
       id="rect5" />
    <circle
       cx="72"
       cy="43"
       r="25"
       fill="#ffe39a"
       opacity="0.52"
       id="circle5" />
    <circle
       cx="72"
       cy="43"
       r="14"
       fill="#fff5ca"
       id="circle6" />
    <path
       d="M276 48 C291 37 310 40 318 52 C329 42 348 44 354 58 C369 57 378 66 374 75 H267 C264 63 269 54 276 48Z"
       fill="#fff"
       opacity="0.44"
       id="path6" />
  </g>
  <g
     id="db-depth-layer">
    <path
       d="M0 118 C47 92 94 99 138 113 C185 88 233 95 273 112 C317 89 361 95 400 115 V191 H0Z"
       fill="#bad99b"
       id="path7" />
    <path
       d="M0 144 C47 121 90 128 128 142 C174 117 223 124 261 145 C309 120 358 126 400 145 V202 H0Z"
       fill="#91c486"
       id="path8" />
    <g
       fill="#67a478"
       stroke="#3a2461"
       stroke-width="2"
       opacity="0.7"
       id="g12">
      <path
         d="M15 134 L36 78 L57 134Z"
         id="path9" />
      <path
         d="M54 135 L77 72 L100 135Z"
         id="path10" />
      <path
         d="M292 136 L315 73 L338 136Z"
         id="path11" />
      <path
         d="M342 137 L366 80 L390 137Z"
         id="path12" />
    </g>
  </g>
  <g
     id="db-ground-layer">
    <path
       d="M0 165 C64 149 123 157 176 172 C230 150 303 150 400 166 V250 H0Z"
       fill="#78b78b"
       id="path13" />
    <path
       d="M0 211 C74 190 132 194 180 208 C233 192 291 190 400 207 V250 H0Z"
       fill="#529970"
       id="path14" />
    <path
       d="M0 225 C82 203 145 209 201 225 C261 207 326 207 400 224 V250 H0Z"
       fill="url(#db-water)"
       stroke="#3a2461"
       stroke-width="2.2"
       id="path15" />
    <path
       d="M26 234 C82 220 128 224 166 235 M238 234 C286 221 334 222 383 233"
       fill="none"
       stroke="#fff"
       stroke-width="3"
       stroke-linecap="round"
       opacity="0.68"
       id="path16" />
  </g>
  <g
     id="db-tree-layer">
    <path
       d="M31 211 C36 171 35 132 44 98"
       fill="none"
       stroke="#8b5a3c"
       stroke-width="12"
       stroke-linecap="round"
       id="path17" />
    <g
       fill="#76b681"
       stroke="#3a2461"
       stroke-width="2.7"
       id="g19">
      <circle
         cx="45"
         cy="87"
         r="29"
         id="circle17" />
      <circle
         cx="23"
         cy="112"
         r="21"
         id="circle18" />
      <circle
         cx="70"
         cy="111"
         r="25"
         id="circle19" />
    </g>
    <path
       d="M370 210 C367 176 367 145 361 112"
       fill="none"
       stroke="#8b5a3c"
       stroke-width="10"
       stroke-linecap="round"
       id="path19" />
    <g
       fill="#6eaa7d"
       stroke="#3a2461"
       stroke-width="2.5"
       id="g22">
      <circle
         cx="360"
         cy="95"
         r="27"
         id="circle20" />
      <circle
         cx="337"
         cy="117"
         r="21"
         id="circle21" />
      <circle
         cx="383"
         cy="121"
         r="24"
         id="circle22" />
    </g>
  </g>
  <g
     id="db-bridge-layer">
    <path
       d="M88 215 C147 184 250 184 319 215"
       fill="none"
       stroke="#8b5a3c"
       stroke-width="12"
       stroke-linecap="round"
       id="path22" />
    <path
       d="M88 215 C147 184 250 184 319 215"
       fill="none"
       stroke="#dba95e"
       stroke-width="8"
       stroke-dasharray="20 5"
       stroke-linecap="butt"
       id="path23" />
    <path
       d="M91 194 C151 166 248 166 316 194 M96 194 V220 M311 194 V220"
       fill="none"
       stroke="#3a2461"
       stroke-width="3"
       stroke-linecap="round"
       id="path24" />
    <path
       d="M117 187 V209 M147 177 V201 M180 171 V196 M215 171 V196 M249 176 V201 M280 184 V209"
       stroke="#3a2461"
       stroke-width="2"
       id="path25" />
    <g
       fill="#f7c54a"
       stroke="#3a2461"
       stroke-width="1.4"
       id="g26">
      <path
         d="M331 190 l2 5 5 2-5 2-2 5-2-5-5-2 5-2Z"
         id="path26" />
    </g>
  </g>
  <g
     id="db-basket-layer">
    <path
       d="M203 147 Q226 123 249 147"
       fill="none"
       stroke="#8b5a3c"
       stroke-width="6"
       stroke-linecap="round"
       id="path27" />
    <path
       d="M199 147 H253 L248 174 Q226 181 204 174Z"
       fill="#dba95e"
       stroke="#3a2461"
       stroke-width="2.7"
       id="path28" />
    <path
       d="M204 156 H248 M211 147 L212 176 M226 146 V179 M241 147 L239 176"
       fill="none"
       stroke="#9f6d3f"
       stroke-width="1.7"
       id="path29" />
    <g
       fill="#f26f6f"
       stroke="#3a2461"
       stroke-width="1.5"
       id="g32">
      <circle
         cx="212"
         cy="144"
         r="6"
         id="circle29" />
      <circle
         cx="225"
         cy="140"
         r="6"
         id="circle30" />
      <circle
         cx="238"
         cy="144"
         r="6"
         id="circle31" />
      <circle
         cx="247"
         cy="141"
         r="5"
         id="circle32" />
    </g>
  </g>
  <g
     id="db-poppy-layer">
    <ellipse
       cx="188"
       cy="210"
       rx="39"
       ry="7"
       fill="#3a2461"
       opacity="0.15"
       filter="url(#db-shadow)"
       id="ellipse32" />
    <path
       d="M169 158 C180 150 194 150 205 158 M205 158 C214 152 220 150 225 151"
       fill="none"
       stroke="#f6d3b3"
       stroke-width="6"
       stroke-linecap="round"
       id="path32" />
    <path
       d="M164 149 C167 137 175 131 188 131 C201 131 209 138 212 151 L216 194 C199 200 176 200 159 194Z"
       fill="#f36fa3"
       stroke="#3a2461"
       stroke-width="3.4"
       id="path33" />
    <path
       d="M178 195 q-2 8-8 15 M200 195 q5 6 14 8"
       fill="none"
       stroke="#5b4677"
       stroke-width="7"
       stroke-linecap="round"
       id="path34" />
    <path
       d="M161 211 h15 M207 205 h15"
       stroke="#3a2461"
       stroke-width="5"
       stroke-linecap="round"
       id="path35" />
    <circle
       cx="188"
       cy="113"
       r="20"
       fill="#f6d3b3"
       stroke="#3a2461"
       stroke-width="3.3"
       id="circle35" />
    <path
       d="M169 112 C165 95 176 86 190 86 C203 86 211 96 208 112 C202 103 195 99 185 99 C179 99 174 104 169 112Z"
       fill="#8a5a34"
       stroke="#3a2461"
       stroke-width="3"
       id="path36" />
    <path
       d="M171 106 q-8 8-2 18 M207 106 q8 8 2 18"
       fill="none"
       stroke="#8a5a34"
       stroke-width="5"
       stroke-linecap="round"
       id="path37" />
    <circle
       cx="181"
       cy="114"
       r="2.2"
       fill="#3a2461"
       id="circle37" />
    <circle
       cx="195"
       cy="114"
       r="2.2"
       fill="#3a2461"
       id="circle38" />
    <path
       d="M182 123 q6 4 12 0"
       fill="none"
       stroke="#3a2461"
       stroke-width="2.2"
       stroke-linecap="round"
       id="path38" />
    <path
       d="M167 94 H210 L205 86 H172Z"
       fill="#e8c07a"
       stroke="#3a2461"
       stroke-width="2.7"
       id="path39" />
    <path
       d="M175 86 L180 75 L188 84 L195 74 L202 86Z"
       fill="#f6c343"
       stroke="#3a2461"
       stroke-width="2.4"
       id="path40" />
  </g>
  <g
     id="db-wobble-layer">
    <path
       d="M123 161 q8-8 16 0 M284 166 q8-8 16 0"
       fill="none"
       stroke="#3a2461"
       stroke-width="2"
       stroke-linecap="round"
       opacity="0.56"
       id="path41" />
    <g
       fill="#f7c54a"
       stroke="#3a2461"
       stroke-width="1.4"
       id="g42">
      <path
         d="M151 140 l2 5 5 2-5 2-2 5-2-5-5-2 5-2Z"
         id="path42" />
    </g>
  </g>
  <g
     id="db-foreground-layer">
    <path
       d="M0 239 C22 226 41 229 58 244 V250 H0Z"
       fill="#38795d"
       id="path43" />
    <path
       d="M400 238 C380 226 361 230 346 245 V250 H400Z"
       fill="#38795d"
       id="path44" />
    <path
       d="M18 244 q-5-24 2-38 M31 244 q5-29 14-43 M373 244 q-3-26 4-42 M388 244 q5-25 12-37"
       fill="none"
       stroke="#75b68a"
       stroke-width="4"
       stroke-linecap="round"
       id="path45" />
  </g>
</svg>
