<?xml version="1.0" encoding="UTF-8" standalone="no"?>
<svg
   width="400"
   height="250"
   viewBox="0 0 400 250"
   version="1.1"
   id="svg52"
   xmlns="http://www.w3.org/2000/svg"
   xmlns:svg="http://www.w3.org/2000/svg">
  <defs
     id="defs4">
    <linearGradient
       id="intro-sky"
       x1="0"
       y1="0"
       x2="0"
       y2="1">
      <stop
         offset="0"
         stop-color="#d9eef8"
         id="stop1" />
      <stop
         offset="1"
         stop-color="#f7ead7"
         id="stop2" />
    </linearGradient>
    <linearGradient
       id="intro-path"
       x1="0"
       y1="0"
       x2="1"
       y2="1">
      <stop
         offset="0"
         stop-color="#fff3d4"
         id="stop3" />
      <stop
         offset="1"
         stop-color="#e6c58e"
         id="stop4" />
    </linearGradient>
    <filter
       id="intro-shadow"
       x="-0.080000003"
       y="-0.41142859"
       width="1.16"
       height="1.8228572">
      <feGaussianBlur
         stdDeviation="2.4"
         id="feGaussianBlur4" />
    </filter>
  </defs>
  <g
     id="intro-sky-layer">
    <rect
       width="400"
       height="250"
       fill="url(#intro-sky)"
       id="rect4" />
    <circle
       cx="76"
       cy="44"
       r="24"
       fill="#ffe39a"
       opacity="0.5"
       id="circle4" />
    <circle
       cx="76"
       cy="44"
       r="14"
       fill="#fff5ca"
       opacity="0.9"
       id="circle5" />
    <path
       d="M18 62 C34 47 55 50 64 62 C75 49 96 52 101 66 C116 65 125 73 121 83 H12 C7 73 9 67 18 62Z"
       fill="#fff"
       opacity="0.48"
       id="path5" />
    <path
       d="M282 48 C296 37 316 40 323 52 C334 42 351 45 357 58 C371 57 380 66 376 75 H272 C268 63 273 54 282 48Z"
       fill="#fff"
       opacity="0.38"
       id="path6" />
  </g>
  <g
     id="intro-depth-layer">
    <path
       d="M0 120 C50 91 96 99 139 114 C186 88 233 95 274 112 C319 88 362 96 400 116 V192 H0Z"
       fill="#bad99b"
       id="path7" />
    <path
       d="M0 145 C48 121 91 130 126 143 C174 118 220 125 260 145 C310 120 358 127 400 146 V202 H0Z"
       fill="#91c486"
       id="path8" />
    <g
       fill="#67a478"
       stroke="#3a2461"
       stroke-width="2"
       stroke-linejoin="round"
       opacity="0.7"
       id="g12">
      <path
         d="M12 134 L31 82 L50 134Z"
         id="path9" />
      <path
         d="M49 135 L69 73 L91 135Z"
         id="path10" />
      <path
         d="M294 136 L316 75 L338 136Z"
         id="path11" />
      <path
         d="M342 137 L365 82 L388 137Z"
         id="path12" />
    </g>
    <g
       fill="#4f8e6d"
       opacity="0.46"
       id="g14">
      <circle
         cx="132"
         cy="137"
         r="23"
         id="circle12" />
      <circle
         cx="181"
         cy="138"
         r="18"
         id="circle13" />
      <circle
         cx="243"
         cy="136"
         r="25"
         id="circle14" />
    </g>
  </g>
  <g
     id="intro-ground-layer">
    <path
       d="M0 168 C65 149 124 157 178 172 C231 151 303 151 400 168 V250 H0Z"
       fill="#78b78b"
       id="path14" />
    <path
       d="M0 208 C82 184 158 198 225 211 C292 187 348 191 400 207 V250 H0Z"
       fill="#529970"
       id="path15" />
    <path
       d="M164 250 C174 228 200 210 234 196 C274 181 314 181 350 190 C312 195 280 207 256 222 C237 234 227 243 221 250Z"
       fill="url(#intro-path)"
       stroke="#3a2461"
       stroke-width="2.2"
       id="path16" />
    <g
       fill="#f39ab7"
       stroke="#3a2461"
       stroke-width="1.4"
       id="g18">
      <circle
         cx="91"
         cy="211"
         r="3.6"
         id="circle16" />
      <circle
         cx="316"
         cy="213"
         r="3.4"
         id="circle17" />
      <circle
         cx="360"
         cy="196"
         r="3"
         id="circle18" />
    </g>
    <g
       stroke="#3a2461"
       stroke-width="1.5"
       stroke-linecap="round"
       id="g19">
      <path
         d="M91 215 v12 M85 224 q6-12 12 0 M316 217 v12 M310 226 q6-12 12 0 M360 200 v10"
         fill="none"
         id="path18" />
    </g>
  </g>
  <g
     id="intro-tree-layer">
    <path
       d="M30 211 C35 171 33 132 43 99"
       fill="none"
       stroke="#8b5a3c"
       stroke-width="12"
       stroke-linecap="round"
       id="path19" />
    <path
       d="M42 139 C57 125 70 119 85 120"
       fill="none"
       stroke="#8b5a3c"
       stroke-width="6"
       stroke-linecap="round"
       id="path20" />
    <g
       fill="#76b681"
       stroke="#3a2461"
       stroke-width="2.7"
       id="g23">
      <circle
         cx="44"
         cy="88"
         r="29"
         id="circle20" />
      <circle
         cx="23"
         cy="112"
         r="21"
         id="circle21" />
      <circle
         cx="69"
         cy="111"
         r="25"
         id="circle22" />
      <circle
         cx="88"
         cy="137"
         r="18"
         id="circle23" />
    </g>
    <g
       fill="#acd192"
       opacity="0.88"
       id="g26">
      <circle
         cx="37"
         cy="79"
         r="11"
         id="circle24" />
      <circle
         cx="66"
         cy="101"
         r="10"
         id="circle25" />
      <circle
         cx="20"
         cy="105"
         r="8"
         id="circle26" />
    </g>
    <path
       d="M369 210 C365 177 366 145 360 113"
       fill="none"
       stroke="#8b5a3c"
       stroke-width="10"
       stroke-linecap="round"
       id="path26" />
    <g
       fill="#6eaa7d"
       stroke="#3a2461"
       stroke-width="2.5"
       id="g29">
      <circle
         cx="359"
         cy="96"
         r="27"
         id="circle27" />
      <circle
         cx="335"
         cy="117"
         r="21"
         id="circle28" />
      <circle
         cx="382"
         cy="122"
         r="24"
         id="circle29" />
    </g>
  </g>
  <g
     id="intro-sparkle-layer"
     fill="#f7c54a"
     stroke="#3a2461"
     stroke-width="1.6">
    <path
       d="M188 115 l3 7 7 3-7 3-3 7-3-7-7-3 7-3Z"
       id="path29" />
    <path
       d="M240 91 l2.5 6 6 2.5-6 2.5-2.5 6-2.5-6-6-2.5 6-2.5Z"
       id="path30" />
    <path
       d="M304 145 l2 5 5 2-5 2-2 5-2-5-5-2 5-2Z"
       id="path31" />
  </g>
  <g
     id="intro-biscuit-layer">
    <ellipse
       cx="267"
       cy="229"
       rx="38"
       ry="7"
       fill="#3a2461"
       opacity="0.15"
       filter="url(#intro-shadow)"
       id="ellipse31" />
    <path
       d="M290 199 q20-18 18-38"
       fill="none"
       stroke="#e8b04b"
       stroke-width="8"
       stroke-linecap="round"
       id="path32" />
    <ellipse
       cx="267"
       cy="205"
       rx="33"
       ry="23"
       fill="#e8b04b"
       stroke="#3a2461"
       stroke-width="3.4"
       id="ellipse32" />
    <ellipse
       cx="265"
       cy="210"
       rx="19"
       ry="13"
       fill="#f4d28a"
       opacity="0.82"
       id="ellipse33" />
    <path
       d="M248 221 v10 M279 221 v10"
       stroke="#9c613d"
       stroke-width="8"
       stroke-linecap="round"
       id="path33" />
    <path
       d="M239 232 h18 M271 232 h18"
       stroke="#3a2461"
       stroke-width="5"
       stroke-linecap="round"
       id="path34" />
    <circle
       cx="238"
       cy="188"
       r="19"
       fill="#e8b04b"
       stroke="#3a2461"
       stroke-width="3.2"
       id="circle34" />
    <path
       d="M223 179 C215 183 216 199 226 202 L231 190Z M252 179 C260 184 258 199 249 202 L245 190Z"
       fill="#9c613d"
       stroke="#3a2461"
       stroke-width="2.4"
       stroke-linejoin="round"
       id="path35" />
    <ellipse
       cx="238"
       cy="194"
       rx="10"
       ry="7"
       fill="#f4d28a"
       id="ellipse35" />
    <circle
       cx="232"
       cy="187"
       r="2.1"
       fill="#3a2461"
       id="circle35" />
    <circle
       cx="244"
       cy="187"
       r="2.1"
       fill="#3a2461"
       id="circle36" />
    <ellipse
       cx="238"
       cy="193"
       rx="2.8"
       ry="2.1"
       fill="#3a2461"
       id="ellipse36" />
    <path
       d="M238 196 q-5 5-9 0 M239 196 q4 5 9 0"
       fill="none"
       stroke="#3a2461"
       stroke-width="1.8"
       stroke-linecap="round"
       id="path36" />
  </g>
  <g
     id="intro-poppy-layer">
    <ellipse
       cx="139"
       cy="232"
       rx="36"
       ry="7"
       fill="#3a2461"
       opacity="0.15"
       filter="url(#intro-shadow)"
       id="ellipse37" />
    <path
       d="M116 181 C104 185 100 194 104 202 M161 180 C173 183 179 192 177 200"
       fill="none"
       stroke="#f6d3b3"
       stroke-width="6.5"
       stroke-linecap="round"
       id="path37" />
    <path
       d="M115 172 C118 160 126 154 138 154 C151 154 159 161 162 174 L166 218 C149 223 126 223 109 217Z"
       fill="#f36fa3"
       stroke="#3a2461"
       stroke-width="3.4"
       stroke-linejoin="round"
       id="path38" />
    <path
       d="M120 174 C129 182 148 182 157 174 L160 204 C145 210 126 210 113 204Z"
       fill="#fb8eb6"
       opacity="0.72"
       id="path39" />
    <path
       d="M128 219 v10 M150 219 v10"
       stroke="#5b4677"
       stroke-width="7"
       stroke-linecap="round"
       id="path40" />
    <path
       d="M121 231 h15 M143 231 h15"
       stroke="#3a2461"
       stroke-width="5"
       stroke-linecap="round"
       id="path41" />
    <circle
       cx="138"
       cy="136"
       r="20"
       fill="#f6d3b3"
       stroke="#3a2461"
       stroke-width="3.3"
       id="circle41" />
    <path
       d="M119 135 C115 118 126 109 140 109 C153 109 161 119 158 135 C152 126 145 122 135 122 C129 122 124 127 119 135Z"
       fill="#8a5a34"
       stroke="#3a2461"
       stroke-width="3"
       stroke-linejoin="round"
       id="path42" />
    <path
       d="M121 129 q-8 8-2 18 M157 129 q8 8 2 18"
       fill="none"
       stroke="#8a5a34"
       stroke-width="5"
       stroke-linecap="round"
       id="path43" />
    <circle
       cx="131"
       cy="137"
       r="2.1"
       fill="#3a2461"
       id="circle43" />
    <circle
       cx="145"
       cy="137"
       r="2.1"
       fill="#3a2461"
       id="circle44" />
    <path
       d="M132 146 q6 5 12 0"
       fill="none"
       stroke="#3a2461"
       stroke-width="2.2"
       stroke-linecap="round"
       id="path44" />
    <ellipse
       cx="125"
       cy="144"
       rx="4"
       ry="2.2"
       fill="#ee9ba9"
       opacity="0.6"
       id="ellipse44" />
    <ellipse
       cx="151"
       cy="144"
       rx="4"
       ry="2.2"
       fill="#ee9ba9"
       opacity="0.6"
       id="ellipse45" />
    <path
       d="M117 117 H160 L155 109 H122Z"
       fill="#e8c07a"
       stroke="#3a2461"
       stroke-width="2.7"
       stroke-linejoin="round"
       id="path45" />
    <path
       d="M125 109 L130 98 L138 107 L145 97 L152 109Z"
       fill="#f6c343"
       stroke="#3a2461"
       stroke-width="2.4"
       stroke-linejoin="round"
       id="path46" />
  </g>
  <g
     id="intro-glance-layer">
    <path
       d="M160 161 C183 151 204 155 219 171"
       fill="none"
       stroke="#f8edcf"
       stroke-width="3"
       stroke-linecap="round"
       opacity="0.7"
       id="path47" />
  </g>
  <g
     id="intro-foreground-layer">
    <path
       d="M0 234 C19 224 36 227 53 240 V250 H0Z"
       fill="#38795d"
       id="path48" />
    <path
       d="M400 232 C382 223 364 228 348 243 V250 H400Z"
       fill="#38795d"
       id="path49" />
    <g
       fill="#75b68a"
       stroke="#3a2461"
       stroke-width="1.7"
       id="g52">
      <ellipse
         cx="14"
         cy="230"
         rx="8"
         ry="15"
         transform="rotate(-28 14 230)"
         id="ellipse49" />
      <ellipse
         cx="33"
         cy="233"
         rx="8"
         ry="16"
         transform="rotate(22 33 233)"
         id="ellipse50" />
      <ellipse
         cx="373"
         cy="233"
         rx="8"
         ry="16"
         transform="rotate(-20 373 233)"
         id="ellipse51" />
      <ellipse
         cx="391"
         cy="228"
         rx="8"
         ry="15"
         transform="rotate(28 391 228)"
         id="ellipse52" />
    </g>
  </g>
</svg>
