<?xml version="1.0" encoding="UTF-8" standalone="no"?>
<svg
   width="400"
   height="250"
   viewBox="0 0 400 250"
   version="1.1"
   id="svg45"
   xmlns="http://www.w3.org/2000/svg"
   xmlns:svg="http://www.w3.org/2000/svg">
  <defs
     id="defs2">
    <linearGradient
       id="bush-sky"
       x1="0"
       y1="0"
       x2="0"
       y2="1">
      <stop
         offset="0"
         stop-color="#d9eef8"
         id="stop1" />
      <stop
         offset="1"
         stop-color="#f7ead7"
         id="stop2" />
    </linearGradient>
    <filter
       id="bush-shadow"
       x="-0.080000003"
       y="-0.41142859"
       width="1.16"
       height="1.8228572">
      <feGaussianBlur
         stdDeviation="2.4"
         id="feGaussianBlur2" />
    </filter>
  </defs>
  <g
     id="bush-sky-layer">
    <rect
       width="400"
       height="250"
       fill="url(#bush-sky)"
       id="rect2" />
    <circle
       cx="72"
       cy="43"
       r="22"
       fill="#ffe39a"
       opacity="0.48"
       id="circle2" />
    <circle
       cx="72"
       cy="43"
       r="13"
       fill="#fff5ca"
       opacity="0.88"
       id="circle3" />
    <path
       d="M278 48 C293 37 312 40 319 52 C329 42 348 44 354 58 C369 57 378 66 374 75 H268 C264 63 269 54 278 48Z"
       fill="#fff"
       opacity="0.42"
       id="path3" />
  </g>
  <g
     id="bush-depth-layer">
    <path
       d="M0 137 C74 126 132 133 197 139 C264 128 329 126 400 138 V181 H0Z"
       fill="#a9c99b"
       id="path4" />
    <g
       stroke="#3a2461"
       stroke-width="2.6"
       stroke-linejoin="round"
       id="g12">
      <rect
         x="-8"
         y="101"
         width="106"
         height="76"
         rx="5"
         fill="#f4c3a1"
         id="rect4" />
      <path
         d="M-14 104 L45 59 L105 104Z"
         fill="#d96f7f"
         id="path5" />
      <rect
         x="17"
         y="121"
         width="20"
         height="24"
         rx="4"
         fill="#ffe9a6"
         id="rect5" />
      <rect
         x="59"
         y="121"
         width="20"
         height="24"
         rx="4"
         fill="#bfe3ef"
         id="rect6" />
      <rect
         x="126"
         y="88"
         width="96"
         height="89"
         rx="6"
         fill="#f4dda2"
         id="rect7" />
      <path
         d="M116 91 L174 50 L233 91Z"
         fill="#9477bb"
         id="path7" />
      <rect
         x="145"
         y="111"
         width="20"
         height="25"
         rx="4"
         fill="#bfe3ef"
         id="rect8" />
      <rect
         x="183"
         y="111"
         width="20"
         height="25"
         rx="4"
         fill="#ffe9a6"
         id="rect9" />
      <rect
         x="286"
         y="99"
         width="121"
         height="78"
         rx="5"
         fill="#efb4bd"
         id="rect10" />
      <path
         d="M278 102 L343 62 L411 102Z"
         fill="#6e9fb0"
         id="path10" />
      <rect
         x="307"
         y="120"
         width="20"
         height="24"
         rx="4"
         fill="#ffe9a6"
         id="rect11" />
      <rect
         x="351"
         y="120"
         width="20"
         height="24"
         rx="4"
         fill="#c9e7f1"
         id="rect12" />
    </g>
  </g>
  <g
     id="bush-ground-layer">
    <path
       d="M0 166 H400 V250 H0Z"
       fill="#93bd91"
       id="path12" />
    <path
       d="M100 250 C147 222 205 201 268 185 C301 177 334 176 365 183 C332 191 302 205 280 223 C264 236 256 245 251 250Z"
       fill="#f1d7a7"
       stroke="#3a2461"
       stroke-width="2.2"
       id="path13" />
    <g
       fill="none"
       stroke="#c9a978"
       stroke-width="1.4"
       opacity="0.7"
       id="g14">
      <path
         d="M142 232 q16-9 34 0 M190 214 q18-9 38 0 M239 198 q19-8 41 0"
         id="path14" />
    </g>
  </g>
  <g
     id="bush-tree-layer">
    <path
       d="M41 210 V111"
       fill="none"
       stroke="#3a2461"
       stroke-width="5"
       stroke-linecap="round"
       id="path15" />
    <path
       d="M29 111 Q41 92 53 111Z"
       fill="#f6c343"
       stroke="#3a2461"
       stroke-width="2.5"
       id="path16" />
    <path
       d="M286 112 h106 v18 h-106Z"
       fill="#fff0c7"
       stroke="#3a2461"
       stroke-width="2.4"
       id="path17" />
    <path
       d="M286 112 h18 v18 h-18Z M322 112 h18 v18 h-18Z M358 112 h18 v18 h-18Z"
       fill="#f39ab7"
       id="path18" />
  </g>
  <g
     id="bush-focal-layer">
    <ellipse
       cx="302"
       cy="230"
       rx="66"
       ry="8"
       fill="#3a2461"
       opacity="0.14"
       filter="url(#bush-shadow)"
       id="ellipse18" />
    <path
       d="M253 218 C240 194 252 174 273 170 C277 150 301 143 317 158 C333 145 357 158 354 179 C373 187 372 213 354 222 C328 234 278 234 253 218Z"
       fill="#5aa173"
       stroke="#3a2461"
       stroke-width="3.5"
       stroke-linejoin="round"
       id="path19" />
    <g
       fill="#7fbd86"
       stroke="#3a2461"
       stroke-width="2.2"
       id="g24">
      <circle
         cx="270"
         cy="185"
         r="19"
         id="circle19" />
      <circle
         cx="300"
         cy="170"
         r="22"
         id="circle20" />
      <circle
         cx="332"
         cy="180"
         r="22"
         id="circle21" />
      <circle
         cx="349"
         cy="204"
         r="18"
         id="circle22" />
      <circle
         cx="279"
         cy="211"
         r="21"
         id="circle23" />
      <circle
         cx="318"
         cy="208"
         r="24"
         id="circle24" />
    </g>
    <g
       fill="#acd192"
       opacity="0.8"
       id="g27">
      <circle
         cx="265"
         cy="181"
         r="7"
         id="circle25" />
      <circle
         cx="297"
         cy="165"
         r="8"
         id="circle26" />
      <circle
         cx="335"
         cy="177"
         r="7"
         id="circle27" />
    </g>
    <path
       d="M278 181 C299 194 315 178 334 198 M265 206 C285 189 315 216 346 199"
       fill="none"
       stroke="#3a2461"
       stroke-width="2"
       stroke-linecap="round"
       opacity="0.55"
       id="path27" />
  </g>
  <g
     id="bush-biscuit-layer">
    <path
       d="M324 160 C332 144 347 139 354 126 C360 143 353 158 339 169"
       fill="none"
       stroke="#e8b04b"
       stroke-width="9"
       stroke-linecap="round"
       id="path28" />
    <path
       d="M350 129 q8-8 13-3"
       fill="none"
       stroke="#3a2461"
       stroke-width="2.2"
       stroke-linecap="round"
       id="path29" />
    <g
       fill="#f7c54a"
       stroke="#3a2461"
       stroke-width="1.4"
       id="g31">
      <path
         d="M361 112 l2.5 6 6 2.5-6 2.5-2.5 6-2.5-6-6-2.5 6-2.5Z"
         id="path30" />
      <path
         d="M239 169 l2 5 5 2-5 2-2 5-2-5-5-2 5-2Z"
         id="path31" />
    </g>
  </g>
  <g
     id="bush-poppy-layer">
    <ellipse
       cx="137"
       cy="232"
       rx="36"
       ry="7"
       fill="#3a2461"
       opacity="0.15"
       filter="url(#bush-shadow)"
       id="ellipse31" />
    <path
       d="M114 182 C103 188 101 198 106 205 M158 181 C170 178 178 169 180 160"
       fill="none"
       stroke="#f6d3b3"
       stroke-width="6.5"
       stroke-linecap="round"
       id="path32" />
    <circle
       cx="180"
       cy="158"
       r="4"
       fill="#f6d3b3"
       stroke="#3a2461"
       stroke-width="1.7"
       id="circle32" />
    <path
       d="M113 172 C116 160 124 154 136 154 C149 154 157 161 160 174 L164 218 C147 223 124 223 107 217Z"
       fill="#f36fa3"
       stroke="#3a2461"
       stroke-width="3.4"
       stroke-linejoin="round"
       id="path33" />
    <path
       d="M118 174 C127 182 146 182 155 174 L158 204 C143 210 124 210 111 204Z"
       fill="#fb8eb6"
       opacity="0.72"
       id="path34" />
    <path
       d="M126 219 v10 M148 219 v10"
       stroke="#5b4677"
       stroke-width="7"
       stroke-linecap="round"
       id="path35" />
    <path
       d="M119 231 h15 M141 231 h15"
       stroke="#3a2461"
       stroke-width="5"
       stroke-linecap="round"
       id="path36" />
    <circle
       cx="136"
       cy="136"
       r="20"
       fill="#f6d3b3"
       stroke="#3a2461"
       stroke-width="3.3"
       id="circle36" />
    <path
       d="M117 135 C113 118 124 109 138 109 C151 109 159 119 156 135 C150 126 143 122 133 122 C127 122 122 127 117 135Z"
       fill="#8a5a34"
       stroke="#3a2461"
       stroke-width="3"
       stroke-linejoin="round"
       id="path37" />
    <path
       d="M119 129 q-8 8-2 18 M155 129 q8 8 2 18"
       fill="none"
       stroke="#8a5a34"
       stroke-width="5"
       stroke-linecap="round"
       id="path38" />
    <circle
       cx="129"
       cy="137"
       r="2.2"
       fill="#3a2461"
       id="circle38" />
    <circle
       cx="143"
       cy="137"
       r="2.2"
       fill="#3a2461"
       id="circle39" />
    <ellipse
       cx="136"
       cy="146"
       rx="2.6"
       ry="3.1"
       fill="#3a2461"
       id="ellipse39" />
    <path
       d="M115 117 H158 L153 109 H120Z"
       fill="#e8c07a"
       stroke="#3a2461"
       stroke-width="2.7"
       stroke-linejoin="round"
       id="path39" />
    <path
       d="M123 109 L128 98 L136 107 L143 97 L150 109Z"
       fill="#f6c343"
       stroke="#3a2461"
       stroke-width="2.4"
       stroke-linejoin="round"
       id="path40" />
  </g>
  <g
     id="bush-foreground-layer">
    <path
       d="M0 238 H58 L52 250 H0Z M348 239 H400 V250 H354Z"
       fill="#b7654c"
       stroke="#3a2461"
       stroke-width="2"
       id="path41" />
    <g
       fill="#f7c54a"
       stroke="#3a2461"
       stroke-width="1.5"
       id="g45">
      <circle
         cx="13"
         cy="236"
         r="6"
         id="circle41" />
      <circle
         cx="31"
         cy="233"
         r="7"
         id="circle42" />
      <circle
         cx="48"
         cy="237"
         r="6"
         id="circle43" />
      <circle
         cx="363"
         cy="236"
         r="6"
         id="circle44" />
      <circle
         cx="382"
         cy="233"
         r="7"
         id="circle45" />
    </g>
  </g>
</svg>
