<svg xmlns="http://www.w3.org/2000/svg" viewBox="0 0 960 540" width="960" height="540">
  <rect width="960" height="540" fill="#d9f1ed"/>
  <rect y="390" width="960" height="150" fill="#f6c453"/>
  <path d="M74 69h246v245H74z" fill="#ed6a5a" stroke="#305f68" stroke-width="10"/>
  <path d="M104 105h80v73h-80zm106 0h80v73h-80zm-106 101h80v73h-80zm106 0h80v73h-80z" fill="#fff4d6" stroke="#305f68" stroke-width="6"/>
  <g transform="translate(366 82)">
    <rect width="422" height="383" rx="30" fill="#fff9e8" stroke="#305f68" stroke-width="12"/>
    <rect x="42" y="84" width="338" height="232" rx="18" fill="#35535b" stroke="#305f68" stroke-width="10"/>
    <rect x="72" y="115" width="278" height="170" rx="12" fill="#f09a5b"/>
    <rect x="91" y="140" width="240" height="124" rx="10" fill="#3d2b2a"/>
    <ellipse cx="211" cy="224" rx="93" ry="26" fill="#d8a646"/>
    <path d="M137 216q8-73 74-73t74 73z" fill="#d99b4a" stroke="#fff0bc" stroke-width="7"/>
    <path d="M172 164l-15 35m54-46v43m39-32l15 35" fill="none" stroke="#fff0bc" stroke-width="7" stroke-linecap="round"/>
    <circle cx="93" cy="45" r="14" fill="#ed6a5a" stroke="#305f68" stroke-width="5"/>
    <circle cx="146" cy="45" r="14" fill="#6ab6a8" stroke="#305f68" stroke-width="5"/>
    <circle cx="199" cy="45" r="14" fill="#f6c453" stroke="#305f68" stroke-width="5"/>
    <path d="M117 350h188" stroke="#305f68" stroke-width="16" stroke-linecap="round"/>
  </g>
  <g transform="translate(776 159)" stroke="#3d2b2a" stroke-linejoin="round">
    <circle cx="66" cy="76" r="57" fill="#9b6a47" stroke-width="9"/>
    <circle cx="27" cy="30" r="24" fill="#9b6a47" stroke-width="9"/>
    <circle cx="105" cy="30" r="24" fill="#9b6a47" stroke-width="9"/>
    <circle cx="27" cy="30" r="11" fill="#e8b38e" stroke="none"/>
    <circle cx="105" cy="30" r="11" fill="#e8b38e" stroke="none"/>
    <ellipse cx="66" cy="100" rx="31" ry="24" fill="#e8c49e" stroke="none"/>
    <ellipse cx="66" cy="84" rx="9" ry="7" fill="#3d2b2a" stroke="none"/>
    <circle cx="49" cy="66" r="6" fill="#3d2b2a" stroke="none"/>
    <circle cx="83" cy="66" r="6" fill="#3d2b2a" stroke="none"/>
    <path d="M53 106q13 10 26 0" fill="none" stroke-width="6" stroke-linecap="round"/>
    <path d="M20 126q46-28 92 0l27 152H-7z" fill="#6ab6a8" stroke-width="9"/>
  </g>
  <path d="M842 443q-21-35-47-10" fill="none" stroke="#9b6a47" stroke-width="24" stroke-linecap="round"/>
  <path d="M822 80c-19-25 22-30 6-55m44 55c-19-25 22-30 6-55" fill="none" stroke="#fff9e8" stroke-width="11" stroke-linecap="round"/>
</svg>
