<?xml version="1.0" encoding="UTF-8" standalone="no"?>
<svg width="1370" height="900" viewBox="0 0 1370 900" version="1.1" xmlns="http://www.w3.org/2000/svg" preserveAspectRatio="xMidYMax slice">
  <g>
    <rect x="0" y="0" width="1370" height="900" fill="#f6eee2"/>
    <rect x="0" y="96" width="1370" height="10" rx="5" fill="#ecdfc8"/>
    <rect x="0" y="640" width="1370" height="14" fill="#ecdfc8"/>
    <rect x="0" y="654" width="1370" height="246" fill="#e7d3b3"/>
    <ellipse cx="685" cy="880" rx="500" ry="80" fill="#e8b7c4" opacity="0.5"/>
  </g>
  <g id="words-window-four-pane">
  <g transform="translate(28 120)">
    <rect x="0" y="0" width="264" height="300" rx="20" fill="#b3743e"/>
    <rect x="16" y="16" width="232" height="268" rx="12" fill="#ffe8a3"/>
    <rect x="16" y="16" width="232" height="106" rx="12" fill="#fff3c4"/>
    <circle cx="186" cy="76" r="30" fill="#fff8eb" opacity="0.9"/>
    <path d="M 16 200 q 60 -36 120 -12 q 68 26 112 -2 v 98 h -232 Z" fill="#cfe3b4" opacity="0.85"/>
    <rect x="124" y="16" width="12" height="268" fill="#b3743e"/>
    <rect x="16" y="142" width="232" height="12" fill="#b3743e"/>
    <rect x="-18" y="294" width="300" height="22" rx="8" fill="#c88a52" stroke="#3a2461" stroke-width="4"/>
  </g>
  </g>
  <g id="words-plant-small">
  <g transform="translate(100 414)">
    <g stroke="#3a2461" stroke-width="4" stroke-linejoin="round">
      <path d="M 10 0 q -16 -34 -4 -52 q 14 12 10 52 z" fill="#7cb342"/>
      <path d="M 22 0 q 18 -28 38 -28 q -6 22 -34 28 z" fill="#8bc34a"/>
      <path d="M 0 0 h 48 l -6 -20 h -36 z" fill="#e07a5f"/>
    </g>
  </g>
  </g>
  <g id="words-pin-board">
  <g transform="translate(1096 42)">
    <rect x="0" y="0" width="150" height="120" rx="14" fill="#c88a52" stroke="#3a2461" stroke-width="5"/>
    <rect x="10" y="10" width="130" height="100" rx="9" fill="#f9e2c6"/>
    <circle cx="42" cy="44" r="14" fill="#f5a86b" stroke="#3a2461" stroke-width="3"/>
    <rect x="70" y="32" width="54" height="22" rx="8" fill="#cfe3f4" stroke="#3a2461" stroke-width="3"/>
    <path d="M 30 82 q 18 -14 36 0 q 18 14 36 0" fill="none" stroke="#c3a3e0" stroke-width="6" stroke-linecap="round"/>
  </g>
  </g>
  <g id="words-bookshelf-low">
  <g transform="translate(1030 180)">
    <rect x="0" y="0" width="300" height="170" rx="16" fill="#c88a52" stroke="#3a2461" stroke-width="5"/>
    <rect x="14" y="14" width="272" height="118" rx="10" fill="#f4e6cf"/>
    <rect x="0" y="132" width="300" height="18" rx="8" fill="#b3743e"/>
    <g stroke="#3a2461" stroke-width="3">
      <rect x="28" y="30" width="30" height="100" rx="7" fill="#e28f8f"/>
      <rect x="66" y="42" width="28" height="88" rx="7" fill="#8fb7e2"/>
      <rect x="102" y="24" width="32" height="106" rx="7" fill="#9fd0a8"/>
      <rect x="142" y="40" width="28" height="90" rx="7" fill="#f0c65f"/>
      <rect x="178" y="30" width="30" height="100" rx="7" fill="#c3a3e0"/>
      <rect x="216" y="48" width="26" height="82" rx="7" fill="#f2b09b"/>
    </g>
  </g>
  </g>
  <g id="words-plant-floor">
  <g transform="translate(84 828)">
    <g stroke="#3a2461" stroke-width="4" stroke-linejoin="round">
      <path d="M 12 0 q -22 -50 -6 -74 q 20 18 14 74 z" fill="#7cb342"/>
      <path d="M 28 0 q 26 -40 54 -40 q -8 30 -48 40 z" fill="#8bc34a"/>
      <path d="M 0 0 h 68 l -9 -30 h -50 z" fill="#e07a5f"/>
    </g>
  </g>
  </g>
  <g id="words-pencil-pot">
  <g transform="translate(1240 796)">
    <g stroke="#3a2461" stroke-width="5">
      <line x1="16" y1="-2" x2="6" y2="-34" stroke="#f0c65f" stroke-width="8" stroke-linecap="round"/>
      <line x1="28" y1="-2" x2="30" y2="-40" stroke="#e28f8f" stroke-width="8" stroke-linecap="round"/>
      <line x1="40" y1="-2" x2="48" y2="-30" stroke="#8fb7e2" stroke-width="8" stroke-linecap="round"/>
      <path d="M 0 0 h 56 l -8 46 h -40 Z" fill="#cfe3f4" stroke-linejoin="round"/>
    </g>
  </g>
  </g>
</svg>
