<?xml version="1.0" encoding="UTF-8" standalone="no"?>
<svg xmlns="http://www.w3.org/2000/svg" xmlns:inkscape="http://www.inkscape.org/namespaces/inkscape" width="400" height="250" viewBox="0 0 400 250" version="1.1">
  <defs><linearGradient id="dew-sky" x1="0" y1="0" x2="0" y2="1"><stop offset="0" stop-color="#d9eef8"/><stop offset="1" stop-color="#f9dfcc"/></linearGradient><filter id="dew-shadow" x="-30%" y="-30%" width="160%" height="170%"><feGaussianBlur stdDeviation="2.3"/></filter></defs>
  <g inkscape:groupmode="layer" inkscape:label="01 golden party sky" id="dew-sky-layer"><rect width="400" height="250" fill="url(#dew-sky)"/><circle cx="72" cy="43" r="25" fill="#ffe39a" opacity="0.58"/><circle cx="72" cy="43" r="14" fill="#fff5ca"/><path d="M275 48 C290 37 309 40 317 52 C328 42 347 44 353 58 C368 57 377 66 373 75 H266 C263 63 268 54 275 48Z" fill="#fff" opacity="0.46"/></g>
  <g inkscape:groupmode="layer" inkscape:label="02 approved forest party depth" id="dew-depth-layer"><path d="M0 118 C47 92 94 99 138 113 C185 88 233 95 273 112 C317 89 361 95 400 115 V191 H0Z" fill="#bad99b"/><path d="M0 144 C47 121 90 128 128 142 C174 117 223 124 261 145 C309 120 358 126 400 145 V202 H0Z" fill="#91c486"/><g fill="#67a478" stroke="#3a2461" stroke-width="2" opacity="0.7"><path d="M15 134 L36 78 L57 134Z"/><path d="M54 135 L77 72 L100 135Z"/><path d="M292 136 L315 73 L338 136Z"/><path d="M342 137 L366 80 L390 137Z"/></g></g>
  <g inkscape:groupmode="layer" inkscape:label="03 smooth wagon path" id="dew-ground-layer"><path d="M0 166 C64 149 123 157 176 172 C230 150 303 150 400 167 V250 H0Z" fill="#78b78b"/><path d="M0 208 C84 183 159 198 223 210 C292 186 348 191 400 206 V250 H0Z" fill="#529970"/><path d="M111 250 C151 219 202 205 258 199 C310 193 350 198 400 211 V250Z" fill="#f1d7a7" stroke="#3a2461" stroke-width="2.2"/></g>
  <g inkscape:groupmode="layer" inkscape:label="04 cheering party canopy" id="dew-party-layer"><path d="M95 62 C158 39 240 40 307 65" fill="none" stroke="#3a2461" stroke-width="2.2"/><path d="M108 57 l9 17 9-17Z" fill="#f36fa3" stroke="#3a2461" stroke-width="1.8"/><path d="M158 47 l9 17 9-17Z" fill="#f7c54a" stroke="#3a2461" stroke-width="1.8"/><path d="M209 47 l9 17 9-17Z" fill="#9fc7e8" stroke="#3a2461" stroke-width="1.8"/><path d="M259 56 l9 17 9-17Z" fill="#a777bb" stroke="#3a2461" stroke-width="1.8"/><g fill="#f7c54a" stroke="#3a2461" stroke-width="1.4"><path d="M90 104 l3 7 7 3-7 3-3 7-3-7-7-3 7-3Z"/><path d="M314 101 l3 7 7 3-7 3-3 7-3-7-7-3 7-3Z"/></g></g>
  <g inkscape:groupmode="layer" inkscape:label="05 exact basket riding in wagon" id="dew-wagon-layer"><ellipse cx="252" cy="231" rx="76" ry="9" fill="#3a2461" opacity="0.15" filter="url(#dew-shadow)"/><path d="M205 178 H315 L304 218 H220Z" fill="#e98080" stroke="#3a2461" stroke-width="3.4"/><path d="M211 179 l-36-31" stroke="#3a2461" stroke-width="5" stroke-linecap="round"/><circle cx="230" cy="225" r="12" fill="#f7c54a" stroke="#3a2461" stroke-width="3"/><circle cx="292" cy="225" r="12" fill="#f7c54a" stroke="#3a2461" stroke-width="3"/><circle cx="230" cy="225" r="4" fill="#3a2461"/><circle cx="292" cy="225" r="4" fill="#3a2461"/><path d="M230 171 Q259 139 288 171" fill="none" stroke="#8b5a3c" stroke-width="7" stroke-linecap="round"/><path d="M225 171 H293 L286 205 Q259 214 232 205Z" fill="#dba95e" stroke="#3a2461" stroke-width="3"/><path d="M232 182 H286 M237 194 H281 M244 171 L246 208 M259 170 V211 M275 171 L272 208" fill="none" stroke="#9f6d3f" stroke-width="1.8"/><g fill="#f26f6f" stroke="#3a2461" stroke-width="1.6"><circle cx="241" cy="167" r="7"/><circle cx="257" cy="162" r="7"/><circle cx="273" cy="167" r="7"/><circle cx="285" cy="163" r="6"/></g></g>
  <g inkscape:groupmode="layer" inkscape:label="06 Princess Poppy rolls delivery" id="dew-poppy-layer"><ellipse cx="137" cy="232" rx="37" ry="7" fill="#3a2461" opacity="0.15" filter="url(#dew-shadow)"/><path d="M114 181 C105 173 102 162 105 153 M160 181 C171 173 177 160 176 149" fill="none" stroke="#f6d3b3" stroke-width="6.5" stroke-linecap="round"/><circle cx="176" cy="147" r="4" fill="#f6d3b3" stroke="#3a2461" stroke-width="1.7"/><path d="M113 172 C116 160 124 154 137 154 C150 154 158 161 161 174 L165 218 C148 223 125 223 108 217Z" fill="#f36fa3" stroke="#3a2461" stroke-width="3.4"/><path d="M127 219 v10 M149 219 v10" stroke="#5b4677" stroke-width="7" stroke-linecap="round"/><path d="M120 231 h15 M142 231 h15" stroke="#3a2461" stroke-width="5" stroke-linecap="round"/><circle cx="137" cy="136" r="20" fill="#f6d3b3" stroke="#3a2461" stroke-width="3.3"/><path d="M118 135 C114 118 125 109 139 109 C152 109 160 119 157 135 C151 126 144 122 134 122 C128 122 123 127 118 135Z" fill="#8a5a34" stroke="#3a2461" stroke-width="3"/><path d="M120 129 q-8 8-2 18 M156 129 q8 8 2 18" fill="none" stroke="#8a5a34" stroke-width="5" stroke-linecap="round"/><path d="M127 136 q4 5 8 0 M141 136 q4 5 8 0" fill="none" stroke="#3a2461" stroke-width="2" stroke-linecap="round"/><path d="M130 145 q7 7 14 0" fill="none" stroke="#3a2461" stroke-width="2.2" stroke-linecap="round"/><path d="M116 117 H159 L154 109 H121Z" fill="#e8c07a" stroke="#3a2461" stroke-width="2.7"/><path d="M124 109 L129 98 L137 107 L144 97 L151 109Z" fill="#f6c343" stroke="#3a2461" stroke-width="2.4"/></g>
  <g inkscape:groupmode="layer" inkscape:label="07 Biscuit welcomes the wagon" id="dew-biscuit-layer"><g transform="translate(137 57) scale(0.75)"><path d="M290 199 q20-18 18-38" fill="none" stroke="#e8b04b" stroke-width="8" stroke-linecap="round"/><ellipse cx="267" cy="205" rx="33" ry="23" fill="#e8b04b" stroke="#3a2461" stroke-width="3.4"/><ellipse cx="265" cy="210" rx="19" ry="13" fill="#f4d28a" opacity="0.82"/><path d="M248 221 v10 M279 221 v10" stroke="#9c613d" stroke-width="8" stroke-linecap="round"/><path d="M239 232 h18 M271 232 h18" stroke="#3a2461" stroke-width="5" stroke-linecap="round"/><circle cx="238" cy="188" r="19" fill="#e8b04b" stroke="#3a2461" stroke-width="3.2"/><path d="M223 179 C215 183 216 199 226 202 L231 190Z M252 179 C260 184 258 199 249 202 L245 190Z" fill="#9c613d" stroke="#3a2461" stroke-width="2.4" stroke-linejoin="round"/><ellipse cx="238" cy="194" rx="10" ry="7" fill="#f4d28a"/><circle cx="232" cy="187" r="2.1" fill="#3a2461"/><circle cx="244" cy="187" r="2.1" fill="#3a2461"/><ellipse cx="238" cy="193" rx="2.8" ry="2.1" fill="#3a2461"/><path d="M238 196 q-5 5-9 0 M239 196 q4 5 9 0" fill="none" stroke="#3a2461" stroke-width="1.8" stroke-linecap="round"/></g></g>
  <g inkscape:groupmode="layer" inkscape:label="08 smooth-roll celebration" id="dew-confetti-layer"><path d="M186 215 q8 5 16 0 M318 141 q8-10 16 0" fill="none" stroke="#3a2461" stroke-width="2" stroke-linecap="round" opacity="0.62"/><g fill="#f39ab7"><circle cx="188" cy="123" r="3"/><circle cx="300" cy="129" r="3"/></g><g fill="#9fc7e8"><circle cx="207" cy="94" r="3"/><circle cx="282" cy="100" r="3"/></g><g fill="#f7c54a" stroke="#3a2461" stroke-width="1.3"><path d="M339 117 l2 5 5 2-5 2-2 5-2-5-5-2 5-2Z"/></g></g>
  <g inkscape:groupmode="layer" inkscape:label="09 foreground leaves" id="dew-foreground-layer"><path d="M0 234 C19 224 36 227 53 240 V250 H0Z" fill="#38795d"/><path d="M400 232 C382 223 364 228 348 243 V250 H400Z" fill="#38795d"/><g fill="#75b68a" stroke="#3a2461" stroke-width="1.7"><ellipse cx="14" cy="230" rx="8" ry="15" transform="rotate(-28 14 230)"/><ellipse cx="33" cy="233" rx="8" ry="16" transform="rotate(22 33 233)"/><ellipse cx="373" cy="233" rx="8" ry="16" transform="rotate(-20 373 233)"/><ellipse cx="391" cy="228" rx="8" ry="15" transform="rotate(28 391 228)"/></g></g>
</svg>
