<?xml version="1.0" encoding="UTF-8" standalone="no"?>
<svg xmlns="http://www.w3.org/2000/svg" xmlns:inkscape="http://www.inkscape.org/namespaces/inkscape" width="400" height="250" viewBox="0 0 400 250" version="1.1">
  <defs><linearGradient id="deh-sky" x1="0" y1="0" x2="0" y2="1"><stop offset="0" stop-color="#d9eef8"/><stop offset="1" stop-color="#f9dfcc"/></linearGradient><filter id="deh-shadow" x="-30%" y="-30%" width="160%" height="170%"><feGaussianBlur stdDeviation="2.3"/></filter></defs>
  <g inkscape:groupmode="layer" inkscape:label="01 golden party sky" id="deh-sky-layer"><rect width="400" height="250" fill="url(#deh-sky)"/><circle cx="72" cy="43" r="25" fill="#ffe39a" opacity="0.58"/><circle cx="72" cy="43" r="14" fill="#fff5ca"/><path d="M275 48 C290 37 309 40 317 52 C328 42 347 44 353 58 C368 57 377 66 373 75 H266 C263 63 268 54 275 48Z" fill="#fff" opacity="0.46"/></g>
  <g inkscape:groupmode="layer" inkscape:label="02 approved forest party depth" id="deh-depth-layer"><path d="M0 118 C47 92 94 99 138 113 C185 88 233 95 273 112 C317 89 361 95 400 115 V191 H0Z" fill="#bad99b"/><path d="M0 144 C47 121 90 128 128 142 C174 117 223 124 261 145 C309 120 358 126 400 145 V202 H0Z" fill="#91c486"/><g fill="#67a478" stroke="#3a2461" stroke-width="2" opacity="0.7"><path d="M15 134 L36 78 L57 134Z"/><path d="M54 135 L77 72 L100 135Z"/><path d="M292 136 L315 73 L338 136Z"/><path d="M342 137 L366 80 L390 137Z"/></g></g>
  <g inkscape:groupmode="layer" inkscape:label="03 celebration meadow" id="deh-ground-layer"><path d="M0 166 C64 149 123 157 176 172 C230 150 303 150 400 167 V250 H0Z" fill="#78b78b"/><path d="M0 208 C84 183 159 198 223 210 C292 186 348 191 400 206 V250 H0Z" fill="#529970"/><path d="M153 250 C176 224 210 207 252 194 C289 183 328 184 364 194 C328 199 298 211 275 226 C260 237 251 245 247 250Z" fill="#f1d7a7" stroke="#3a2461" stroke-width="2.2"/></g>
  <g inkscape:groupmode="layer" inkscape:label="04 cheering party canopy" id="deh-party-layer"><path d="M95 62 C158 39 240 40 307 65" fill="none" stroke="#3a2461" stroke-width="2.2"/><path d="M108 57 l9 17 9-17Z" fill="#f36fa3" stroke="#3a2461" stroke-width="1.8"/><path d="M158 47 l9 17 9-17Z" fill="#f7c54a" stroke="#3a2461" stroke-width="1.8"/><path d="M209 47 l9 17 9-17Z" fill="#9fc7e8" stroke="#3a2461" stroke-width="1.8"/><path d="M259 56 l9 17 9-17Z" fill="#a777bb" stroke="#3a2461" stroke-width="1.8"/><g fill="#f7c54a" stroke="#3a2461" stroke-width="1.4"><path d="M92 105 l3 7 7 3-7 3-3 7-3-7-7-3 7-3Z"/><path d="M311 101 l3 7 7 3-7 3-3 7-3-7-7-3 7-3Z"/><path d="M345 148 l2 5 5 2-5 2-2 5-2-5-5-2 5-2Z"/></g></g>
  <g inkscape:groupmode="layer" inkscape:label="05 exact basket held high" id="deh-basket-layer"><g transform="translate(-55 -22)"><path d="M173 100 Q200 70 227 100" fill="none" stroke="#8b5a3c" stroke-width="7" stroke-linecap="round"/><path d="M168 100 H232 L225 131 Q200 140 175 131Z" fill="#dba95e" stroke="#3a2461" stroke-width="3"/><path d="M175 111 H225 M180 122 H220 M185 100 L187 134 M200 99 V137 M216 100 L213 134" fill="none" stroke="#9f6d3f" stroke-width="1.8"/><g fill="#f26f6f" stroke="#3a2461" stroke-width="1.6"><circle cx="184" cy="96" r="7"/><circle cx="199" cy="91" r="7"/><circle cx="214" cy="96" r="7"/><circle cx="225" cy="92" r="6"/></g><g fill="#fff3d4" opacity="0.82"><path d="M199 73 l3 8 8 3-8 3-3 8-3-8-8-3 8-3Z"/></g></g></g>
  <g inkscape:groupmode="layer" inkscape:label="06 Princess Poppy ta-da pose" id="deh-poppy-layer"><ellipse cx="200" cy="232" rx="38" ry="7" fill="#3a2461" opacity="0.15" filter="url(#deh-shadow)"/><path d="M178 174 C164 148 162 121 170 102 M222 174 C237 151 239 128 232 109" fill="none" stroke="#f6d3b3" stroke-width="6.5" stroke-linecap="round"/><circle cx="170" cy="100" r="4" fill="#f6d3b3" stroke="#3a2461" stroke-width="1.7"/><circle cx="232" cy="107" r="4" fill="#f6d3b3" stroke="#3a2461" stroke-width="1.7"/><path d="M176 172 C179 160 187 154 200 154 C213 154 221 161 224 174 L228 218 C211 223 188 223 171 217Z" fill="#f36fa3" stroke="#3a2461" stroke-width="3.4"/><path d="M190 219 v10 M212 219 v10" stroke="#5b4677" stroke-width="7" stroke-linecap="round"/><path d="M183 231 h15 M205 231 h15" stroke="#3a2461" stroke-width="5" stroke-linecap="round"/><circle cx="200" cy="136" r="20" fill="#f6d3b3" stroke="#3a2461" stroke-width="3.3"/><path d="M181 135 C177 118 188 109 202 109 C215 109 223 119 220 135 C214 126 207 122 197 122 C191 122 186 127 181 135Z" fill="#8a5a34" stroke="#3a2461" stroke-width="3"/><path d="M183 129 q-8 8-2 18 M219 129 q8 8 2 18" fill="none" stroke="#8a5a34" stroke-width="5" stroke-linecap="round"/><path d="M190 136 q4 5 8 0 M204 136 q4 5 8 0" fill="none" stroke="#3a2461" stroke-width="2" stroke-linecap="round"/><path d="M193 145 q7 7 14 0" fill="none" stroke="#3a2461" stroke-width="2.2" stroke-linecap="round"/><path d="M179 117 H222 L217 109 H184Z" fill="#e8c07a" stroke="#3a2461" stroke-width="2.7"/><path d="M187 109 L192 98 L200 107 L207 97 L214 109Z" fill="#f6c343" stroke="#3a2461" stroke-width="2.4"/></g>
  <g inkscape:groupmode="layer" inkscape:label="07 cheering Biscuit and owl" id="deh-friends-layer"><g transform="translate(91 46) scale(0.8)"><ellipse cx="267" cy="229" rx="38" ry="7" fill="#3a2461" opacity="0.15" filter="url(#deh-shadow)"/><path d="M290 199 q20-18 18-38" fill="none" stroke="#e8b04b" stroke-width="8" stroke-linecap="round"/><ellipse cx="267" cy="205" rx="33" ry="23" fill="#e8b04b" stroke="#3a2461" stroke-width="3.4"/><ellipse cx="265" cy="210" rx="19" ry="13" fill="#f4d28a" opacity="0.82"/><path d="M248 221 v10 M279 221 v10" stroke="#9c613d" stroke-width="8" stroke-linecap="round"/><path d="M239 232 h18 M271 232 h18" stroke="#3a2461" stroke-width="5" stroke-linecap="round"/><circle cx="238" cy="188" r="19" fill="#e8b04b" stroke="#3a2461" stroke-width="3.2"/><path d="M223 179 C215 183 216 199 226 202 L231 190Z M252 179 C260 184 258 199 249 202 L245 190Z" fill="#9c613d" stroke="#3a2461" stroke-width="2.4" stroke-linejoin="round"/><ellipse cx="238" cy="194" rx="10" ry="7" fill="#f4d28a"/><circle cx="232" cy="187" r="2.1" fill="#3a2461"/><circle cx="244" cy="187" r="2.1" fill="#3a2461"/><ellipse cx="238" cy="193" rx="2.8" ry="2.1" fill="#3a2461"/><path d="M238 196 q-5 5-9 0 M239 196 q4 5 9 0" fill="none" stroke="#3a2461" stroke-width="1.8" stroke-linecap="round"/></g><g transform="translate(92 185)"><ellipse cx="0" cy="15" rx="18" ry="21" fill="#a777bb" stroke="#3a2461" stroke-width="2.8"/><circle cx="0" cy="0" r="16" fill="#c8a7d8" stroke="#3a2461" stroke-width="2.6"/><path d="M-13 -10 l-7-7 2 14 M13 -10 l7-7-2 14" fill="#a777bb" stroke="#3a2461" stroke-width="2"/><circle cx="-6" cy="0" r="2" fill="#3a2461"/><circle cx="6" cy="0" r="2" fill="#3a2461"/><path d="M0 3 l4 4-4 3-4-3Z" fill="#f7c54a" stroke="#3a2461" stroke-width="1.4"/></g></g>
  <g inkscape:groupmode="layer" inkscape:label="08 applause and confetti" id="deh-confetti-layer"><g fill="#f39ab7"><circle cx="131" cy="137" r="3"/><circle cx="272" cy="126" r="3"/></g><g fill="#9fc7e8"><circle cx="145" cy="101" r="3"/><circle cx="255" cy="93" r="3"/></g><path d="M116 154 q8-10 16 0 M275 153 q8-10 16 0" fill="none" stroke="#3a2461" stroke-width="2" stroke-linecap="round" opacity="0.65"/></g>
  <g inkscape:groupmode="layer" inkscape:label="09 foreground leaves" id="deh-foreground-layer"><path d="M0 234 C19 224 36 227 53 240 V250 H0Z" fill="#38795d"/><path d="M400 232 C382 223 364 228 348 243 V250 H400Z" fill="#38795d"/><g fill="#75b68a" stroke="#3a2461" stroke-width="1.7"><ellipse cx="14" cy="230" rx="8" ry="15" transform="rotate(-28 14 230)"/><ellipse cx="33" cy="233" rx="8" ry="16" transform="rotate(22 33 233)"/><ellipse cx="373" cy="233" rx="8" ry="16" transform="rotate(-20 373 233)"/><ellipse cx="391" cy="228" rx="8" ry="15" transform="rotate(28 391 228)"/></g></g>
</svg>
