<?xml version="1.0" encoding="UTF-8" standalone="no"?>
<svg width="1240" height="840" viewBox="0 0 1240 840" version="1.1" xmlns="http://www.w3.org/2000/svg" xmlns:inkscape="http://www.inkscape.org/namespaces/inkscape">
  <rect x="0" y="0" width="1240" height="840" fill="#f9e8d0"/>
  <g id="window-four-pane" inkscape:label="Window, four panes with sunny hills" inkscape:groupmode="layer">
  <g transform="translate(40 40)">
    <rect x="0" y="0" width="264" height="300" rx="20" fill="#b3743e"/>
    <rect x="16" y="16" width="232" height="268" rx="12" fill="#ffe8a3"/>
    <rect x="16" y="16" width="232" height="106" rx="12" fill="#fff3c4"/>
    <circle cx="186" cy="76" r="30" fill="#fff8eb" opacity="0.9"/>
    <path d="M 16 200 q 60 -36 120 -12 q 68 26 112 -2 v 98 h -232 Z" fill="#cfe3b4" opacity="0.85"/>
    <rect x="124" y="16" width="12" height="268" fill="#b3743e"/>
    <rect x="16" y="142" width="232" height="12" fill="#b3743e"/>
    <rect x="-18" y="294" width="300" height="22" rx="8" fill="#c88a52" stroke="#3a2461" stroke-width="4"/>
  </g>
  </g>
  <g id="sign-bear-cafe" inkscape:label="Hanging Bear Cafe sign (lettering-free bear emblem)" inkscape:groupmode="layer">
  <g transform="translate(380 80)">
    <line x1="36" y1="-62" x2="48" y2="0" stroke="#b3743e" stroke-width="6"/>
    <line x1="256" y1="-62" x2="244" y2="0" stroke="#b3743e" stroke-width="6"/>
    <rect x="0" y="0" width="292" height="118" rx="18" fill="#c88a52" stroke="#b3743e" stroke-width="6"/>
    <rect x="14" y="14" width="264" height="90" rx="12" fill="#fbe4c8"/>
    <g stroke="#3a2461" stroke-width="5">
      <circle cx="146" cy="58" r="30" fill="#fff8eb"/>
      <circle cx="122" cy="36" r="10" fill="#fff8eb"/>
      <circle cx="170" cy="36" r="10" fill="#fff8eb"/>
      <circle cx="139" cy="54" r="3" fill="#3a2461" stroke="none"/>
      <circle cx="153" cy="54" r="3" fill="#3a2461" stroke="none"/>
      <ellipse cx="146" cy="65" rx="6" ry="4.6" fill="#3a2461" stroke="none"/>
      <path d="M 68 58 h 34 M 190 58 h 34" stroke-width="6" stroke-linecap="round" stroke="#ef8fa5"/>
    </g>
  </g>
  </g>
  <g id="lamp-hanging" inkscape:label="Hanging cone lamp" inkscape:groupmode="layer">
  <g transform="translate(760 260)">
    <line x1="28" y1="-216" x2="28" y2="0" stroke="#b3743e" stroke-width="5"/>
    <path d="M 0 0 h 56 l -10 30 h -36 z" fill="#3a2461"/>
    <circle cx="28" cy="42" r="13" fill="#ffe27a" stroke="#3a2461" stroke-width="4"/>
    <circle cx="28" cy="42" r="27" fill="#ffe27a" opacity="0.22"/>
  </g>
  </g>
  <g id="counter-corner" inkscape:label="Counter block with top rail" inkscape:groupmode="layer">
  <g transform="translate(860 60)">
    <rect x="0" y="0" width="318" height="26" rx="9" fill="#c88a52" stroke="#3a2461" stroke-width="5"/>
    <rect x="20" y="26" width="286" height="180" rx="14" fill="#b3743e"/>
    <rect x="20" y="52" width="286" height="10" fill="#c88a52" opacity="0.6"/>
  </g>
  </g>
  <g id="plant-small" inkscape:label="Potted plant, small (sill size)" inkscape:groupmode="layer">
  <g transform="translate(60 460)">
    <g stroke="#3a2461" stroke-width="4" stroke-linejoin="round">
      <path d="M 10 0 q -16 -34 -4 -52 q 14 12 10 52 z" fill="#7cb342"/>
      <path d="M 22 0 q 18 -28 38 -28 q -6 22 -34 28 z" fill="#8bc34a"/>
      <path d="M 0 0 h 48 l -6 -20 h -36 z" fill="#e07a5f"/>
    </g>
  </g>
  </g>
  <g id="plant-floor" inkscape:label="Potted plant, floor size" inkscape:groupmode="layer">
  <g transform="translate(180 480)">
    <g stroke="#3a2461" stroke-width="4" stroke-linejoin="round">
      <path d="M 12 0 q -22 -50 -6 -74 q 20 18 14 74 z" fill="#7cb342"/>
      <path d="M 28 0 q 26 -40 54 -40 q -8 30 -48 40 z" fill="#8bc34a"/>
      <path d="M 0 0 h 68 l -9 -30 h -50 z" fill="#e07a5f"/>
    </g>
  </g>
  </g>
  <g id="cat-sitting" inkscape:label="Ginger cat, sitting" inkscape:groupmode="layer">
  <g transform="translate(320 470)">
    <g stroke="#3a2461" stroke-width="4" stroke-linejoin="round">
      <path d="M 0 0 v -34 q 0 -26 26 -26 q 26 0 26 26 v 34 z" fill="#f0a848"/>
      <path d="M 8 -58 l -8 -16 l 14 6 z" fill="#f0a848"/>
      <path d="M 44 -58 l 8 -16 l -14 6 z" fill="#f0a848"/>
      <circle cx="18" cy="-42" r="2.6" fill="#3a2461" stroke="none"/>
      <circle cx="34" cy="-42" r="2.6" fill="#3a2461" stroke="none"/>
      <path d="M 22 -34 q 4 4 8 0" fill="none" stroke-width="3"/>
      <path d="M 52 -12 q 16 -8 12 -24" fill="none" stroke-width="5" stroke-linecap="round"/>
    </g>
  </g>
  </g>
  <g id="jar-cookies" inkscape:label="Cookie jar" inkscape:groupmode="layer">
  <g transform="translate(440 400)">
    <g stroke="#3a2461" stroke-width="4">
      <rect x="8" y="8" width="70" height="60" rx="14" fill="#cfe9f8" opacity="0.92"/>
      <rect x="0" y="0" width="86" height="16" rx="8" fill="#b3743e"/>
      <circle cx="30" cy="38" r="9" fill="#d8a45e"/>
      <circle cx="56" cy="48" r="9" fill="#d8a45e"/>
      <circle cx="52" cy="26" r="8" fill="#d8a45e"/>
    </g>
  </g>
  </g>
  <g id="cake-stand" inkscape:label="Cake on a stand" inkscape:groupmode="layer">
  <g transform="translate(580 400)">
    <g stroke="#3a2461" stroke-width="4" stroke-linejoin="round">
      <ellipse cx="52" cy="66" rx="52" ry="11" fill="#e9c48f"/>
      <rect x="48" y="42" width="9" height="24" fill="#c88a52" stroke="none"/>
      <ellipse cx="52" cy="42" rx="46" ry="9" fill="#f6e3b8"/>
      <path d="M 28 42 q 24 -44 48 0 z" fill="#f6d06a"/>
      <path d="M 32 30 q 20 -30 40 0 q 3 8 -5 10 q -16 -10 -30 0 q -8 -2 -5 -10 z" fill="#f6a5c0"/>
      <circle cx="52" cy="0" r="6" fill="#e0495c"/>
    </g>
  </g>
  </g>
  <g id="cup-cocoa" inkscape:label="Cocoa cup with steam" inkscape:groupmode="layer">
  <g transform="translate(720 410)">
    <g stroke="#3a2461" stroke-width="4">
      <path d="M 42 8 q 14 -4 12 6 q -2 8 -12 6" fill="none"/>
      <path d="M 0 0 h 42 l -4 36 q -1 8 -10 8 h -14 q -9 0 -10 -8 z" fill="#ffffff" stroke-linejoin="round"/>
      <path d="M 3 9 h 36" stroke="#f2c6d6" stroke-width="6" stroke-linecap="round"/>
    </g>
  </g>
  </g>
  <g id="bookshelf-low" inkscape:label="Low bookshelf, plain color spines (no letters)" inkscape:groupmode="layer">
  <g transform="translate(40 620)">
    <rect x="0" y="0" width="300" height="170" rx="16" fill="#c88a52" stroke="#3a2461" stroke-width="5"/>
    <rect x="14" y="14" width="272" height="118" rx="10" fill="#f4e6cf"/>
    <rect x="0" y="132" width="300" height="18" rx="8" fill="#b3743e"/>
    <g stroke="#3a2461" stroke-width="3">
      <rect x="28" y="30" width="30" height="100" rx="7" fill="#e28f8f"/>
      <rect x="66" y="42" width="28" height="88" rx="7" fill="#8fb7e2"/>
      <rect x="102" y="24" width="32" height="106" rx="7" fill="#9fd0a8"/>
      <rect x="142" y="40" width="28" height="90" rx="7" fill="#f0c65f"/>
      <rect x="178" y="30" width="30" height="100" rx="7" fill="#c3a3e0"/>
      <rect x="216" y="48" width="26" height="82" rx="7" fill="#f2b09b"/>
    </g>
  </g>
  </g>
  <g id="pin-board" inkscape:label="Pin board with abstract shapes (never letters)" inkscape:groupmode="layer">
  <g transform="translate(400 620)">
    <rect x="0" y="0" width="150" height="120" rx="14" fill="#c88a52" stroke="#3a2461" stroke-width="5"/>
    <rect x="10" y="10" width="130" height="100" rx="9" fill="#f9e2c6"/>
    <circle cx="42" cy="44" r="14" fill="#f5a86b" stroke="#3a2461" stroke-width="3"/>
    <rect x="70" y="32" width="54" height="22" rx="8" fill="#cfe3f4" stroke="#3a2461" stroke-width="3"/>
    <path d="M 30 82 q 18 -14 36 0 q 18 14 36 0" fill="none" stroke="#c3a3e0" stroke-width="6" stroke-linecap="round"/>
  </g>
  </g>
  <g id="pencil-pot" inkscape:label="Pot of pencils" inkscape:groupmode="layer">
  <g transform="translate(620 640)">
    <g stroke="#3a2461" stroke-width="5">
      <line x1="16" y1="-2" x2="6" y2="-34" stroke="#f0c65f" stroke-width="8" stroke-linecap="round"/>
      <line x1="28" y1="-2" x2="30" y2="-40" stroke="#e28f8f" stroke-width="8" stroke-linecap="round"/>
      <line x1="40" y1="-2" x2="48" y2="-30" stroke="#8fb7e2" stroke-width="8" stroke-linecap="round"/>
      <path d="M 0 0 h 56 l -8 46 h -40 Z" fill="#cfe3f4" stroke-linejoin="round"/>
    </g>
  </g>
  </g>
</svg>
