<?xml version="1.0" encoding="UTF-8" standalone="no"?>
<svg width="1370" height="900" viewBox="0 0 1370 900" version="1.1" xmlns="http://www.w3.org/2000/svg" xmlns:inkscape="http://www.inkscape.org/namespaces/inkscape">
  <!-- Composed from design-source/art-direction/cafe-component-library.svg; edit components there, re-instance here. -->
  <g inkscape:label="Room shell" inkscape:groupmode="layer">
    <rect x="0" y="0" width="1370" height="900" fill="#fcefdd"/>
    <rect x="0" y="96" width="1370" height="10" rx="5" fill="#f9e8d0"/>
    <rect x="0" y="640" width="1370" height="14" fill="#e6c39c"/>
    <rect x="0" y="654" width="1370" height="246" fill="#f5dcc0"/>
    <ellipse cx="685" cy="880" rx="520" ry="90" fill="#e9d3b3" opacity="0.55"/>
  </g>
  <g id="home-window-four-pane" inkscape:label="Window, four panes with sunny hills" inkscape:groupmode="layer">
  <g transform="translate(66 120)">
    <rect x="0" y="0" width="264" height="300" rx="20" fill="#b3743e"/>
    <rect x="16" y="16" width="232" height="268" rx="12" fill="#ffe8a3"/>
    <rect x="16" y="16" width="232" height="106" rx="12" fill="#fff3c4"/>
    <circle cx="186" cy="76" r="30" fill="#fff8eb" opacity="0.9"/>
    <path d="M 16 200 q 60 -36 120 -12 q 68 26 112 -2 v 98 h -232 Z" fill="#cfe3b4" opacity="0.85"/>
    <rect x="124" y="16" width="12" height="268" fill="#b3743e"/>
    <rect x="16" y="142" width="232" height="12" fill="#b3743e"/>
    <rect x="-18" y="294" width="300" height="22" rx="8" fill="#c88a52" stroke="#3a2461" stroke-width="4"/>
  </g>
  </g>
  <g id="home-plant-small" inkscape:label="Potted plant, small (sill size)" inkscape:groupmode="layer">
  <g transform="translate(138 414)">
    <g stroke="#3a2461" stroke-width="4" stroke-linejoin="round">
      <path d="M 10 0 q -16 -34 -4 -52 q 14 12 10 52 z" fill="#7cb342"/>
      <path d="M 22 0 q 18 -28 38 -28 q -6 22 -34 28 z" fill="#8bc34a"/>
      <path d="M 0 0 h 48 l -6 -20 h -36 z" fill="#e07a5f"/>
    </g>
  </g>
  </g>
  <g id="home-cat-sitting" inkscape:label="Ginger cat, sitting" inkscape:groupmode="layer">
  <g transform="translate(236 414)">
    <g stroke="#3a2461" stroke-width="4" stroke-linejoin="round">
      <path d="M 0 0 v -34 q 0 -26 26 -26 q 26 0 26 26 v 34 z" fill="#f0a848"/>
      <path d="M 8 -58 l -8 -16 l 14 6 z" fill="#f0a848"/>
      <path d="M 44 -58 l 8 -16 l -14 6 z" fill="#f0a848"/>
      <circle cx="18" cy="-42" r="2.6" fill="#3a2461" stroke="none"/>
      <circle cx="34" cy="-42" r="2.6" fill="#3a2461" stroke="none"/>
      <path d="M 22 -34 q 4 4 8 0" fill="none" stroke-width="3"/>
      <path d="M 52 -12 q 16 -8 12 -24" fill="none" stroke-width="5" stroke-linecap="round"/>
    </g>
  </g>
  </g>
  <g id="home-sign-bear-cafe" inkscape:label="Hanging Bear Cafe sign (lettering-free bear emblem)" inkscape:groupmode="layer">
  <g transform="translate(1044 62)">
    <line x1="36" y1="-62" x2="48" y2="0" stroke="#b3743e" stroke-width="6"/>
    <line x1="256" y1="-62" x2="244" y2="0" stroke="#b3743e" stroke-width="6"/>
    <rect x="0" y="0" width="292" height="118" rx="18" fill="#c88a52" stroke="#b3743e" stroke-width="6"/>
    <rect x="14" y="14" width="264" height="90" rx="12" fill="#fbe4c8"/>
    <g stroke="#3a2461" stroke-width="5">
      <circle cx="146" cy="58" r="30" fill="#fff8eb"/>
      <circle cx="122" cy="36" r="10" fill="#fff8eb"/>
      <circle cx="170" cy="36" r="10" fill="#fff8eb"/>
      <circle cx="139" cy="54" r="3" fill="#3a2461" stroke="none"/>
      <circle cx="153" cy="54" r="3" fill="#3a2461" stroke="none"/>
      <ellipse cx="146" cy="65" rx="6" ry="4.6" fill="#3a2461" stroke="none"/>
      <path d="M 68 58 h 34 M 190 58 h 34" stroke-width="6" stroke-linecap="round" stroke="#ef8fa5"/>
    </g>
  </g>
  </g>
  <g id="home-lamp-hanging" inkscape:label="Hanging cone lamp" inkscape:groupmode="layer">
  <g transform="translate(1290 216)">
    <line x1="28" y1="-216" x2="28" y2="0" stroke="#b3743e" stroke-width="5"/>
    <path d="M 0 0 h 56 l -10 30 h -36 z" fill="#3a2461"/>
    <circle cx="28" cy="42" r="13" fill="#ffe27a" stroke="#3a2461" stroke-width="4"/>
    <circle cx="28" cy="42" r="27" fill="#ffe27a" opacity="0.22"/>
  </g>
  </g>
  <g id="home-counter-corner" inkscape:label="Counter block with top rail" inkscape:groupmode="layer">
  <g transform="translate(1052 560)">
    <rect x="0" y="0" width="318" height="26" rx="9" fill="#c88a52" stroke="#3a2461" stroke-width="5"/>
    <rect x="20" y="26" width="286" height="180" rx="14" fill="#b3743e"/>
    <rect x="20" y="52" width="286" height="10" fill="#c88a52" opacity="0.6"/>
  </g>
  </g>
  <g id="home-jar-cookies" inkscape:label="Cookie jar" inkscape:groupmode="layer">
  <g transform="translate(1092 492)">
    <g stroke="#3a2461" stroke-width="4">
      <rect x="8" y="8" width="70" height="60" rx="14" fill="#cfe9f8" opacity="0.92"/>
      <rect x="0" y="0" width="86" height="16" rx="8" fill="#b3743e"/>
      <circle cx="30" cy="38" r="9" fill="#d8a45e"/>
      <circle cx="56" cy="48" r="9" fill="#d8a45e"/>
      <circle cx="52" cy="26" r="8" fill="#d8a45e"/>
    </g>
  </g>
  </g>
  <g id="home-cake-stand" inkscape:label="Cake on a stand" inkscape:groupmode="layer">
  <g transform="translate(1210 486)">
    <g stroke="#3a2461" stroke-width="4" stroke-linejoin="round">
      <ellipse cx="52" cy="66" rx="52" ry="11" fill="#e9c48f"/>
      <rect x="48" y="42" width="9" height="24" fill="#c88a52" stroke="none"/>
      <ellipse cx="52" cy="42" rx="46" ry="9" fill="#f6e3b8"/>
      <path d="M 28 42 q 24 -44 48 0 z" fill="#f6d06a"/>
      <path d="M 32 30 q 20 -30 40 0 q 3 8 -5 10 q -16 -10 -30 0 q -8 -2 -5 -10 z" fill="#f6a5c0"/>
      <circle cx="52" cy="0" r="6" fill="#e0495c"/>
    </g>
  </g>
  </g>
  <g id="home-plant-floor" inkscape:label="Potted plant, floor size" inkscape:groupmode="layer">
  <g transform="translate(84 828)">
    <g stroke="#3a2461" stroke-width="4" stroke-linejoin="round">
      <path d="M 12 0 q -22 -50 -6 -74 q 20 18 14 74 z" fill="#7cb342"/>
      <path d="M 28 0 q 26 -40 54 -40 q -8 30 -48 40 z" fill="#8bc34a"/>
      <path d="M 0 0 h 68 l -9 -30 h -50 z" fill="#e07a5f"/>
    </g>
  </g>
  </g>
  <g id="home-cup-cocoa" inkscape:label="Cocoa cup with steam" inkscape:groupmode="layer">
  <g transform="translate(186 752)">
    <g stroke="#3a2461" stroke-width="4">
      <path d="M 42 8 q 14 -4 12 6 q -2 8 -12 6" fill="none"/>
      <path d="M 0 0 h 42 l -4 36 q -1 8 -10 8 h -14 q -9 0 -10 -8 z" fill="#ffffff" stroke-linejoin="round"/>
      <path d="M 3 9 h 36" stroke="#f2c6d6" stroke-width="6" stroke-linecap="round"/>
    </g>
  </g>
  </g>
</svg>
