<?xml version="1.0" standalone="no"?>
<!DOCTYPE svg PUBLIC "-//W3C//DTD SVG 20010904//EN"
 "http://www.w3.org/TR/2001/REC-SVG-20010904/DTD/svg10.dtd">
<svg version="1.0" xmlns="http://www.w3.org/2000/svg"
 width="1024.000000pt" height="1024.000000pt" viewBox="0 0 1024.000000 1024.000000"
 preserveAspectRatio="xMidYMid meet">
<metadata>
Created by potrace 1.16, written by Peter Selinger 2001-2019
</metadata>
<g transform="translate(0.000000,1024.000000) scale(0.100000,-0.100000)"
fill="#000000" stroke="none">
<path d="M7434 6486 c-133 -94 -322 -150 -560 -165 -87 -6 -411 -11 -719 -11
-367 0 -591 -4 -650 -12 -49 -6 -103 -11 -120 -11 -16 1 -253 6 -525 12 -832
19 -1018 16 -1570 -21 -327 -22 -485 -13 -624 33 -85 29 -89 19 -33 -98 26
-54 56 -132 67 -173 12 -41 23 -83 26 -93 5 -16 3 -17 -14 -8 -44 24 -43 17
20 -153 l53 -141 0 -460 c0 -390 -3 -482 -19 -605 -30 -234 -21 -365 41 -620
37 -151 42 -297 14 -388 -32 -105 -31 -106 34 -98 l55 6 0 -150 c0 -121 -3
-156 -16 -175 -9 -13 -13 -29 -9 -34 7 -12 31 -9 180 26 100 23 396 75 700
124 66 10 165 28 220 39 55 11 152 27 215 35 63 8 158 21 210 29 52 8 169 19
260 25 91 6 183 13 205 16 73 9 466 34 695 45 399 18 571 30 790 56 118 13
226 26 240 29 14 3 113 14 220 25 524 55 556 59 770 106 179 39 287 77 364
128 30 20 59 36 65 36 21 0 11 41 -31 123 -119 237 -182 402 -213 562 -51 260
-65 390 -77 731 -13 354 -4 608 27 759 21 102 20 108 -12 103 -16 -3 -36 -9
-47 -13 -15 -7 -17 -5 -13 11 3 10 9 55 13 100 8 103 2 106 -105 54 l-81 -39
6 42 c4 23 15 84 25 136 13 69 15 98 7 108 -14 18 -15 17 -84 -31z m10 -163
c-25 -128 -32 -344 -15 -458 5 -33 17 -109 25 -170 9 -60 23 -155 31 -211 17
-115 11 -196 -30 -399 -34 -169 -88 -297 -167 -398 -17 -21 -27 -44 -24 -52 3
-8 2 -15 -3 -15 -8 0 -121 -144 -121 -154 0 -2 13 9 29 25 35 34 68 41 51 10
-17 -33 -11 -36 18 -10 15 14 45 37 67 52 51 34 119 103 139 142 l16 30 0 -52
c0 -66 16 -69 25 -5 6 48 41 123 60 129 6 2 17 -29 24 -69 22 -121 88 -294
173 -458 44 -85 89 -166 99 -179 23 -29 27 -24 -81 -87 -110 -65 -195 -100
-415 -169 -259 -81 -352 -102 -515 -114 -80 -6 -201 -16 -270 -21 -357 -29
-653 -44 -810 -44 -96 1 -348 3 -560 5 -317 2 -441 -1 -703 -19 -175 -12 -393
-22 -486 -22 -162 0 -568 -32 -820 -65 -62 -8 -162 -18 -222 -21 l-108 -7 10
34 c38 122 35 239 -10 420 -61 243 -71 391 -42 609 34 249 32 1030 -4 1225
-25 144 -73 321 -105 391 -16 35 -26 64 -23 64 3 0 30 -8 61 -17 79 -25 418
-24 677 1 259 25 1276 34 1670 16 321 -16 300 -16 449 -1 76 7 332 11 715 11
570 -1 759 6 853 30 97 25 256 82 303 109 28 16 53 29 56 30 3 1 -5 -52 -17
-116z m33 -315 c-2 -18 -4 -4 -4 32 0 36 2 50 4 33 2 -18 2 -48 0 -65z m180
60 c-3 -8 -6 -5 -6 6 -1 11 2 17 5 13 3 -3 4 -12 1 -19z m-70 -95 c-3 -10 -5
-4 -5 12 0 17 2 24 5 18 2 -7 2 -21 0 -30z m0 -55 c-3 -8 -6 -5 -6 6 -1 11 2
17 5 13 3 -3 4 -12 1 -19z m-20 -395 c-3 -10 -5 -2 -5 17 0 19 2 27 5 18 2
-10 2 -26 0 -35z m-20 -495 c-3 -7 -5 -2 -5 12 0 14 2 19 5 13 2 -7 2 -19 0
-25z m-57 -14 c0 -8 -4 -14 -10 -14 -5 0 -10 9 -10 21 0 11 5 17 10 14 6 -3
10 -13 10 -21z m57 -206 c-3 -8 -6 -5 -6 6 -1 11 2 17 5 13 3 -3 4 -12 1 -19z
m321 -663 c-3 -3 -9 2 -12 12 -6 14 -5 15 5 6 7 -7 10 -15 7 -18z m40 -70 c-3
-3 -9 2 -12 12 -6 14 -5 15 5 6 7 -7 10 -15 7 -18z m-4501 -561 c-3 -3 -12 -4
-19 -1 -8 3 -5 6 6 6 11 1 17 -2 13 -5z M7280 6262 c-89 -61 -199 -118 -295
-152 -89 -31 -125 -50 -93 -50 31 0 154 43 223 77 93 47 225 135 225 151 0 16
3 17 -60 -26z M7274 6189 c-49 -52 -140 -118 -204 -148 -34 -16 -56 -32 -50
-36 19 -12 153 69 225 137 38 36 67 69 64 72 -3 3 -19 -8 -35 -25z M6698 6156
c-138 -14 -155 -31 -23 -22 121 8 165 15 165 27 0 10 4 10 -142 -5z M6800
6090 c0 -5 4 -10 9 -10 6 0 13 5 16 10 3 6 -1 10 -9 10 -9 0 -16 -4 -16 -10z
M7206 6051 c-15 -16 -56 -42 -89 -57 -51 -23 -76 -29 -139 -29 -56 0 -78 -4
-78 -12 0 -22 137 -16 206 7 54 19 144 89 144 112 0 16 -17 8 -44 -21z M7226
5986 c-9 -15 -16 -32 -13 -39 2 -6 11 1 21 15 10 15 16 33 14 39 -2 6 -12 0
-22 -15z M3715 5650 c-269 -22 -558 -66 -552 -84 5 -15 47 -12 212 12 273 41
384 47 815 46 228 -1 537 -7 685 -13 149 -6 459 -18 690 -26 549 -20 1011 -49
1101 -70 25 -6 56 22 33 29 -24 7 -297 35 -444 45 -77 6 -273 15 -435 21 -162
6 -477 17 -700 26 -497 18 -1256 26 -1405 14z M3885 5085 c-154 -7 -337 -13
-406 -14 -133 -1 -189 -8 -189 -22 0 -13 238 -11 685 7 427 17 733 12 1269
-21 435 -26 677 -35 966 -34 293 1 383 7 378 24 -2 6 -94 9 -258 7 -268 -4
-656 8 -1050 33 -606 38 -895 42 -1395 20z M4890 4534 c-259 -7 -648 -10
-1035 -7 -576 4 -680 1 -680 -22 0 -13 1508 -11 2035 4 348 9 665 11 1068 6
498 -6 572 -6 572 7 0 13 -47 16 -302 21 -436 10 -1179 6 -1658 -9z M2846
4241 c-9 -14 21 -125 49 -180 32 -65 107 -162 152 -199 88 -71 116 -92 124
-92 21 0 5 20 -54 67 -120 96 -201 212 -233 333 -19 70 -28 88 -38 71z M7672
4218 c-5 -7 -19 -31 -30 -53 -21 -41 -83 -106 -139 -144 -18 -12 -33 -26 -33
-31 0 -17 65 17 112 58 26 24 48 39 48 34 0 -39 -193 -151 -298 -173 -71 -15
-85 -35 -17 -26 135 19 335 141 335 206 0 10 15 24 35 34 19 9 35 24 35 33 0
15 -2 15 -27 -1 -25 -17 -26 -17 -18 1 10 25 19 74 12 74 -2 0 -9 -6 -15 -12z
M7698 4078 c-57 -68 -71 -101 -27 -63 18 14 50 35 73 47 23 12 35 23 28 26 -8
2 -19 -1 -25 -7 -22 -22 -30 -11 -9 12 12 13 22 26 22 30 0 18 -22 2 -62 -45z
M6538 4104 c-72 -38 -286 -40 -1508 -14 -987 22 -1164 23 -1311 11 -212 -18
-379 -54 -379 -82 0 -12 3 -12 105 10 227 50 535 57 1395 32 267 -7 744 -14
1060 -15 552 -1 577 0 630 19 34 12 56 27 58 38 4 20 -12 20 -50 1z M7601
4006 c-15 -18 -10 -29 12 -24 9 2 12 9 8 21 -6 17 -8 18 -20 3z M2910 3955 c0
-22 36 -89 62 -118 57 -59 196 -134 306 -163 137 -36 193 -44 215 -32 l22 12
-25 7 c-14 4 -41 7 -61 8 -59 2 -207 48 -296 92 -102 51 -157 97 -189 160 -25
51 -34 59 -34 34z M2960 3753 c0 -12 39 -54 66 -70 15 -9 11 -9 -18 -1 -38 11
-68 6 -68 -12 0 -5 13 -10 29 -10 16 0 51 -9 77 -20 60 -26 80 -20 34 10 -19
12 -26 19 -15 15 130 -44 329 -68 365 -45 11 7 1 10 -36 10 -68 0 -218 26
-274 47 -25 9 -49 17 -55 18 -11 0 -57 25 -65 34 -14 17 -40 32 -40 24z M2910
3611 c0 -17 32 -21 185 -26 185 -5 182 10 -5 25 -166 12 -180 12 -180 1z"/>
</g>
</svg>
