<?xml version="1.0" encoding="UTF-8" standalone="no"?>
<svg xmlns="http://www.w3.org/2000/svg" xmlns:inkscape="http://www.inkscape.org/namespaces/inkscape" width="400" height="250" viewBox="0 0 400 250" version="1.1">
  <defs>
    <linearGradient id="intro-sky" x1="0" y1="0" x2="0" y2="1"><stop offset="0" stop-color="#d9eef8"/><stop offset="1" stop-color="#f7ead7"/></linearGradient>
    <linearGradient id="intro-path" x1="0" y1="0" x2="1" y2="1"><stop offset="0" stop-color="#fff3d4"/><stop offset="1" stop-color="#e6c58e"/></linearGradient>
    <filter id="intro-shadow" x="-30%" y="-30%" width="160%" height="170%"><feGaussianBlur stdDeviation="2.4"/></filter>
  </defs>
  <g inkscape:groupmode="layer" inkscape:label="01 sky and morning light" id="intro-sky-layer">
    <rect width="400" height="250" fill="url(#intro-sky)"/>
    <circle cx="76" cy="44" r="24" fill="#ffe39a" opacity="0.5"/><circle cx="76" cy="44" r="14" fill="#fff5ca" opacity="0.9"/>
    <path d="M18 62 C34 47 55 50 64 62 C75 49 96 52 101 66 C116 65 125 73 121 83 H12 C7 73 9 67 18 62Z" fill="#fff" opacity="0.48"/>
    <path d="M282 48 C296 37 316 40 323 52 C334 42 351 45 357 58 C371 57 380 66 376 75 H272 C268 63 273 54 282 48Z" fill="#fff" opacity="0.38"/>
  </g>
  <g inkscape:groupmode="layer" inkscape:label="02 twinkling Cozy Town" id="intro-depth-layer">
    <path d="M0 137 C74 126 132 133 197 139 C264 128 329 126 400 138 V181 H0Z" fill="#a9c99b"/>
    <g stroke="#3a2461" stroke-width="2.6" stroke-linejoin="round">
      <rect x="-8" y="101" width="106" height="76" rx="5" fill="#f4c3a1"/><path d="M-14 104 L45 59 L105 104Z" fill="#d96f7f"/><rect x="17" y="121" width="20" height="24" rx="4" fill="#ffe9a6"/><rect x="59" y="121" width="20" height="24" rx="4" fill="#bfe3ef"/>
      <rect x="126" y="88" width="96" height="89" rx="6" fill="#f4dda2"/><path d="M116 91 L174 50 L233 91Z" fill="#9477bb"/><rect x="145" y="111" width="20" height="25" rx="4" fill="#bfe3ef"/><rect x="183" y="111" width="20" height="25" rx="4" fill="#ffe9a6"/>
      <rect x="286" y="99" width="121" height="78" rx="5" fill="#efb4bd"/><path d="M278 102 L343 62 L411 102Z" fill="#6e9fb0"/><rect x="307" y="120" width="20" height="24" rx="4" fill="#ffe9a6"/><rect x="351" y="120" width="20" height="24" rx="4" fill="#c9e7f1"/>
    </g>
    <g fill="#fff8c7" opacity="0.75"><circle cx="27" cy="132" r="4"/><circle cx="69" cy="132" r="4"/><circle cx="155" cy="122" r="4"/><circle cx="193" cy="122" r="4"/><circle cx="317" cy="131" r="4"/><circle cx="361" cy="131" r="4"/></g>
  </g>
  <g inkscape:groupmode="layer" inkscape:label="03 welcoming cobbled lane" id="intro-ground-layer">
    <path d="M0 166 H400 V250 H0Z" fill="#93bd91"/>
    <path d="M90 250 C128 219 184 198 252 181 C282 174 317 171 353 175 C315 185 286 199 263 218 C247 232 237 243 231 250Z" fill="url(#intro-path)" stroke="#3a2461" stroke-width="2.2"/>
    <g fill="none" stroke="#c9a978" stroke-width="1.4" opacity="0.7"><path d="M129 232 q16-9 34 0 M169 214 q18-9 38 0 M214 198 q19-8 41 0 M264 184 q18-7 39 0"/><path d="M151 226 l8 13 M194 207 l7 13 M242 190 l7 11 M292 179 l6 9"/></g>
  </g>
  <g inkscape:groupmode="layer" inkscape:label="04 lamps and flower boxes" id="intro-tree-layer">
    <path d="M41 210 V111" fill="none" stroke="#3a2461" stroke-width="5" stroke-linecap="round"/><path d="M29 111 Q41 92 53 111Z" fill="#f6c343" stroke="#3a2461" stroke-width="2.5"/><circle cx="41" cy="110" r="16" fill="#fff0b7" opacity="0.45"/>
    <rect x="321" y="151" width="69" height="22" rx="5" fill="#c47758" stroke="#3a2461" stroke-width="2.4"/><g fill="#f39ab7" stroke="#3a2461" stroke-width="1.4"><circle cx="335" cy="151" r="7"/><circle cx="354" cy="147" r="8"/><circle cx="374" cy="151" r="7"/></g><path d="M335 158 v10 M354 155 v13 M374 158 v10" stroke="#5e9c70" stroke-width="3"/>
  </g>
  <g inkscape:groupmode="layer" inkscape:label="05 friendship sparkles" id="intro-sparkle-layer" fill="#f7c54a" stroke="#3a2461" stroke-width="1.6">
    <path d="M188 115 l3 7 7 3-7 3-3 7-3-7-7-3 7-3Z"/><path d="M240 91 l2.5 6 6 2.5-6 2.5-2.5 6-2.5-6-6-2.5 6-2.5Z"/>
    <path d="M304 145 l2 5 5 2-5 2-2 5-2-5-5-2 5-2Z"/>
  </g>
  <g inkscape:groupmode="layer" inkscape:label="06 Biscuit happy companion" id="intro-biscuit-layer">
    <ellipse cx="267" cy="229" rx="38" ry="7" fill="#3a2461" opacity="0.15" filter="url(#intro-shadow)"/>
    <path d="M290 199 q20-18 18-38" fill="none" stroke="#e8b04b" stroke-width="8" stroke-linecap="round"/>
    <ellipse cx="267" cy="205" rx="33" ry="23" fill="#e8b04b" stroke="#3a2461" stroke-width="3.4"/><ellipse cx="265" cy="210" rx="19" ry="13" fill="#f4d28a" opacity="0.82"/>
    <path d="M248 221 v10 M279 221 v10" stroke="#9c613d" stroke-width="8" stroke-linecap="round"/><path d="M239 232 h18 M271 232 h18" stroke="#3a2461" stroke-width="5" stroke-linecap="round"/>
    <circle cx="238" cy="188" r="19" fill="#e8b04b" stroke="#3a2461" stroke-width="3.2"/>
    <path d="M223 179 C215 183 216 199 226 202 L231 190Z M252 179 C260 184 258 199 249 202 L245 190Z" fill="#9c613d" stroke="#3a2461" stroke-width="2.4" stroke-linejoin="round"/>
    <ellipse cx="238" cy="194" rx="10" ry="7" fill="#f4d28a"/><circle cx="232" cy="187" r="2.1" fill="#3a2461"/><circle cx="244" cy="187" r="2.1" fill="#3a2461"/>
    <ellipse cx="238" cy="193" rx="2.8" ry="2.1" fill="#3a2461"/><path d="M238 196 q-5 5-9 0 M239 196 q4 5 9 0" fill="none" stroke="#3a2461" stroke-width="1.8" stroke-linecap="round"/>
  </g>
  <g inkscape:groupmode="layer" inkscape:label="07 Princess Poppy greeting" id="intro-poppy-layer">
    <ellipse cx="139" cy="232" rx="36" ry="7" fill="#3a2461" opacity="0.15" filter="url(#intro-shadow)"/>
    <path d="M116 181 C104 185 100 194 104 202 M161 180 C173 183 179 192 177 200" fill="none" stroke="#f6d3b3" stroke-width="6.5" stroke-linecap="round"/>
    <path d="M115 172 C118 160 126 154 138 154 C151 154 159 161 162 174 L166 218 C149 223 126 223 109 217Z" fill="#f36fa3" stroke="#3a2461" stroke-width="3.4" stroke-linejoin="round"/>
    <path d="M120 174 C129 182 148 182 157 174 L160 204 C145 210 126 210 113 204Z" fill="#fb8eb6" opacity="0.72"/>
    <path d="M128 219 v10 M150 219 v10" stroke="#5b4677" stroke-width="7" stroke-linecap="round"/><path d="M121 231 h15 M143 231 h15" stroke="#3a2461" stroke-width="5" stroke-linecap="round"/>
    <circle cx="138" cy="136" r="20" fill="#f6d3b3" stroke="#3a2461" stroke-width="3.3"/>
    <path d="M119 135 C115 118 126 109 140 109 C153 109 161 119 158 135 C152 126 145 122 135 122 C129 122 124 127 119 135Z" fill="#8a5a34" stroke="#3a2461" stroke-width="3" stroke-linejoin="round"/>
    <path d="M121 129 q-8 8-2 18 M157 129 q8 8 2 18" fill="none" stroke="#8a5a34" stroke-width="5" stroke-linecap="round"/>
    <circle cx="131" cy="137" r="2.1" fill="#3a2461"/><circle cx="145" cy="137" r="2.1" fill="#3a2461"/><path d="M132 146 q6 5 12 0" fill="none" stroke="#3a2461" stroke-width="2.2" stroke-linecap="round"/>
    <ellipse cx="125" cy="144" rx="4" ry="2.2" fill="#ee9ba9" opacity="0.6"/><ellipse cx="151" cy="144" rx="4" ry="2.2" fill="#ee9ba9" opacity="0.6"/>
    <path d="M117 117 H160 L155 109 H122Z" fill="#e8c07a" stroke="#3a2461" stroke-width="2.7" stroke-linejoin="round"/><path d="M125 109 L130 98 L138 107 L145 97 L152 109Z" fill="#f6c343" stroke="#3a2461" stroke-width="2.4" stroke-linejoin="round"/>
  </g>
  <g inkscape:groupmode="layer" inkscape:label="08 shared glance" id="intro-glance-layer"><path d="M160 161 C183 151 204 155 219 171" fill="none" stroke="#f8edcf" stroke-width="3" stroke-linecap="round" opacity="0.7"/></g>
  <g inkscape:groupmode="layer" inkscape:label="09 foreground flower boxes" id="intro-foreground-layer"><path d="M0 238 H58 L52 250 H0Z M348 239 H400 V250 H354Z" fill="#b7654c" stroke="#3a2461" stroke-width="2"/><g fill="#f7c54a" stroke="#3a2461" stroke-width="1.5"><circle cx="13" cy="236" r="6"/><circle cx="31" cy="233" r="7"/><circle cx="48" cy="237" r="6"/><circle cx="363" cy="236" r="6"/><circle cx="382" cy="233" r="7"/></g><g fill="#6faa77"><ellipse cx="21" cy="242" rx="7" ry="4"/><ellipse cx="41" cy="242" rx="7" ry="4"/><ellipse cx="372" cy="242" rx="7" ry="4"/></g></g>
</svg>
