<?xml version="1.0" encoding="UTF-8" standalone="no"?>
<svg xmlns="http://www.w3.org/2000/svg" xmlns:inkscape="http://www.inkscape.org/namespaces/inkscape" width="400" height="250" viewBox="0 0 400 250" version="1.1">
  <defs><linearGradient id="problem-sky" x1="0" y1="0" x2="0" y2="1"><stop offset="0" stop-color="#d9eef8"/><stop offset="1" stop-color="#f7ead7"/></linearGradient><linearGradient id="problem-path" x1="0" y1="0" x2="1" y2="1"><stop offset="0" stop-color="#fff2d2"/><stop offset="1" stop-color="#e4c28c"/></linearGradient><filter id="problem-shadow" x="-30%" y="-30%" width="160%" height="170%"><feGaussianBlur stdDeviation="2.4"/></filter></defs>
  <g inkscape:groupmode="layer" inkscape:label="01 sky and safe light" id="problem-sky-layer"><rect width="400" height="250" fill="url(#problem-sky)"/><circle cx="72" cy="43" r="22" fill="#ffe39a" opacity="0.48"/><circle cx="72" cy="43" r="13" fill="#fff5ca" opacity="0.88"/><path d="M278 48 C293 37 312 40 319 52 C329 42 348 44 354 58 C369 57 378 66 374 75 H268 C264 63 269 54 278 48Z" fill="#fff" opacity="0.42"/></g>
  <g inkscape:groupmode="layer" inkscape:label="02 twinkling Cozy Town" id="problem-depth-layer"><path d="M0 137 C74 126 132 133 197 139 C264 128 329 126 400 138 V181 H0Z" fill="#a9c99b"/><g stroke="#3a2461" stroke-width="2.6" stroke-linejoin="round"><rect x="-8" y="101" width="106" height="76" rx="5" fill="#f4c3a1"/><path d="M-14 104 L45 59 L105 104Z" fill="#d96f7f"/><rect x="17" y="121" width="20" height="24" rx="4" fill="#ffe9a6"/><rect x="59" y="121" width="20" height="24" rx="4" fill="#bfe3ef"/><rect x="126" y="88" width="96" height="89" rx="6" fill="#f4dda2"/><path d="M116 91 L174 50 L233 91Z" fill="#9477bb"/><rect x="145" y="111" width="20" height="25" rx="4" fill="#bfe3ef"/><rect x="183" y="111" width="20" height="25" rx="4" fill="#ffe9a6"/><rect x="286" y="99" width="121" height="78" rx="5" fill="#efb4bd"/><path d="M278 102 L343 62 L411 102Z" fill="#6e9fb0"/><rect x="307" y="120" width="20" height="24" rx="4" fill="#ffe9a6"/><rect x="351" y="120" width="20" height="24" rx="4" fill="#c9e7f1"/></g></g>
  <g inkscape:groupmode="layer" inkscape:label="03 searching cobbled lane" id="problem-ground-layer"><path d="M0 166 H400 V250 H0Z" fill="#93bd91"/><path d="M105 250 C148 222 205 201 269 185 C304 176 335 175 370 182 C336 190 305 204 282 222 C266 235 257 244 252 250Z" fill="url(#problem-path)" stroke="#3a2461" stroke-width="2.2"/><g fill="none" stroke="#c9a978" stroke-width="1.4" opacity="0.72"><path d="M145 232 q16-9 34 0 M190 214 q18-9 38 0 M239 198 q19-8 41 0 M290 185 q18-7 39 0"/><path d="M169 226 l8 13 M216 207 l7 13 M265 191 l7 11"/></g></g>
  <g inkscape:groupmode="layer" inkscape:label="04 town lamps and planters" id="problem-tree-layer"><path d="M41 210 V111" fill="none" stroke="#3a2461" stroke-width="5" stroke-linecap="round"/><path d="M29 111 Q41 92 53 111Z" fill="#f6c343" stroke="#3a2461" stroke-width="2.5"/><circle cx="41" cy="110" r="16" fill="#fff0b7" opacity="0.45"/><rect x="324" y="151" width="65" height="22" rx="5" fill="#c47758" stroke="#3a2461" stroke-width="2.4"/><g fill="#f39ab7" stroke="#3a2461" stroke-width="1.4"><circle cx="337" cy="151" r="7"/><circle cx="355" cy="147" r="8"/><circle cx="374" cy="151" r="7"/></g></g>
  <g inkscape:groupmode="layer" inkscape:label="05 tiny paw print trail" id="problem-paw-layer" fill="#9c613d" stroke="#3a2461" stroke-width="1.2">
    <g transform="translate(214 219) rotate(-14)"><ellipse cy="3" rx="5.5" ry="4.4"/><circle cx="-5" cy="-3" r="2"/><circle cy="-5" r="2"/><circle cx="5" cy="-3" r="2"/></g>
    <g transform="translate(250 205) rotate(8)"><ellipse cy="3" rx="5" ry="4"/><circle cx="-4.5" cy="-3" r="1.9"/><circle cy="-4.5" r="1.9"/><circle cx="4.5" cy="-3" r="1.9"/></g>
    <g transform="translate(286 212) rotate(-10)"><ellipse cy="3" rx="4.6" ry="3.8"/><circle cx="-4" cy="-2.6" r="1.8"/><circle cy="-4.2" r="1.8"/><circle cx="4" cy="-2.6" r="1.8"/></g>
    <g transform="translate(320 196) rotate(12)"><ellipse cy="3" rx="4.2" ry="3.5"/><circle cx="-3.8" cy="-2.4" r="1.6"/><circle cy="-3.8" r="1.6"/><circle cx="3.8" cy="-2.4" r="1.6"/></g>
  </g>
  <g inkscape:groupmode="layer" inkscape:label="06 safe Biscuit clue" id="problem-clue-layer"><path d="M336 172 q14-15 13-31" fill="none" stroke="#e8b04b" stroke-width="7" stroke-linecap="round"/><path d="M346 142 q8-6 12-1" fill="none" stroke="#3a2461" stroke-width="2" stroke-linecap="round"/><g fill="#f7c54a" stroke="#3a2461" stroke-width="1.5"><path d="M343 121 l2.5 6 6 2.5-6 2.5-2.5 6-2.5-6-6-2.5 6-2.5Z"/></g></g>
  <g inkscape:groupmode="layer" inkscape:label="07 Princess Poppy notices" id="problem-poppy-layer">
    <ellipse cx="139" cy="232" rx="36" ry="7" fill="#3a2461" opacity="0.15" filter="url(#problem-shadow)"/><path d="M116 182 C105 187 102 197 107 204 M160 181 C172 178 179 170 182 160" fill="none" stroke="#f6d3b3" stroke-width="6.5" stroke-linecap="round"/><circle cx="182" cy="158" r="4" fill="#f6d3b3" stroke="#3a2461" stroke-width="1.7"/>
    <path d="M115 172 C118 160 126 154 138 154 C151 154 159 161 162 174 L166 218 C149 223 126 223 109 217Z" fill="#f36fa3" stroke="#3a2461" stroke-width="3.4" stroke-linejoin="round"/><path d="M120 174 C129 182 148 182 157 174 L160 204 C145 210 126 210 113 204Z" fill="#fb8eb6" opacity="0.72"/><path d="M128 219 v10 M150 219 v10" stroke="#5b4677" stroke-width="7" stroke-linecap="round"/><path d="M121 231 h15 M143 231 h15" stroke="#3a2461" stroke-width="5" stroke-linecap="round"/>
    <circle cx="138" cy="136" r="20" fill="#f6d3b3" stroke="#3a2461" stroke-width="3.3"/><path d="M119 135 C115 118 126 109 140 109 C153 109 161 119 158 135 C152 126 145 122 135 122 C129 122 124 127 119 135Z" fill="#8a5a34" stroke="#3a2461" stroke-width="3" stroke-linejoin="round"/><path d="M121 129 q-8 8-2 18 M157 129 q8 8 2 18" fill="none" stroke="#8a5a34" stroke-width="5" stroke-linecap="round"/>
    <circle cx="131" cy="137" r="2.2" fill="#3a2461"/><circle cx="145" cy="137" r="2.2" fill="#3a2461"/><path d="M129 147 q9-5 18 0" fill="none" stroke="#3a2461" stroke-width="2.2" stroke-linecap="round"/><path d="M124 130 q5-4 10-1 M142 129 q5-3 10 1" fill="none" stroke="#3a2461" stroke-width="1.7" stroke-linecap="round"/>
    <path d="M117 117 H160 L155 109 H122Z" fill="#e8c07a" stroke="#3a2461" stroke-width="2.7" stroke-linejoin="round"/><path d="M125 109 L130 98 L138 107 L145 97 L152 109Z" fill="#f6c343" stroke="#3a2461" stroke-width="2.4" stroke-linejoin="round"/>
  </g>
  <g inkscape:groupmode="layer" inkscape:label="08 foreground flower boxes" id="problem-foreground-layer"><path d="M0 238 H58 L52 250 H0Z M348 239 H400 V250 H354Z" fill="#b7654c" stroke="#3a2461" stroke-width="2"/><g fill="#f7c54a" stroke="#3a2461" stroke-width="1.5"><circle cx="13" cy="236" r="6"/><circle cx="31" cy="233" r="7"/><circle cx="48" cy="237" r="6"/><circle cx="363" cy="236" r="6"/><circle cx="382" cy="233" r="7"/></g></g>
</svg>
