<?xml version="1.0" standalone="no"?>
<!DOCTYPE svg PUBLIC "-//W3C//DTD SVG 20010904//EN"
 "http://www.w3.org/TR/2001/REC-SVG-20010904/DTD/svg10.dtd">
<svg version="1.0" xmlns="http://www.w3.org/2000/svg"
 width="1024.000000pt" height="1024.000000pt" viewBox="0 0 1024.000000 1024.000000"
 preserveAspectRatio="xMidYMid meet">
<metadata>
Created by potrace 1.16, written by Peter Selinger 2001-2019
</metadata>
<g transform="translate(0.000000,1024.000000) scale(0.100000,-0.100000)"
fill="#000000" stroke="none">
<path d="M5330 6309 c-381 -65 -622 -153 -872 -319 -238 -157 -364 -295 -570
-622 l-81 -128 -41 6 c-22 4 -42 8 -44 9 -1 1 5 44 14 96 42 244 -31 505 -186
659 -76 75 -151 118 -293 166 -194 66 -357 80 -522 45 -248 -52 -374 -151
-490 -386 -70 -141 -88 -214 -83 -325 3 -64 10 -98 30 -140 32 -70 107 -143
180 -178 l57 -27 -5 -41 c-24 -178 157 -290 507 -313 l105 -7 126 -102 c153
-124 255 -231 337 -353 55 -83 60 -94 44 -102 -55 -29 -161 -120 -200 -172
-55 -73 -131 -223 -166 -328 -15 -42 -38 -132 -52 -200 -14 -67 -29 -125 -33
-128 -4 -3 -28 -13 -53 -23 -118 -43 -195 -123 -193 -201 1 -52 29 -100 74
-128 l35 -22 -214 -7 c-124 -4 -219 -12 -225 -18 -23 -23 12 -28 139 -20 150
11 370 12 403 4 12 -4 22 -10 22 -14 0 -11 -208 -25 -338 -24 -89 1 -102 -1
-100 -15 5 -23 182 -26 383 -7 116 12 191 14 275 8 l115 -8 -66 -32 c-84 -39
-121 -70 -144 -121 l-18 -41 -66 0 c-84 0 -113 -8 -109 -29 3 -13 16 -15 83
-12 44 1 82 5 84 7 2 2 13 -14 23 -36 35 -70 140 -136 273 -173 90 -25 324
-34 421 -18 38 7 113 31 167 53 95 39 101 40 177 33 93 -8 160 1 160 21 0 11
-18 14 -79 14 -107 0 -121 6 -79 35 32 22 39 22 408 24 415 2 473 6 468 29 -3
13 -39 15 -273 13 -148 0 -328 -4 -400 -7 l-130 -5 30 27 29 27 177 -7 c127
-5 179 -4 184 4 15 24 -14 29 -172 32 -90 2 -163 4 -163 5 0 1 13 23 30 49 49
77 63 136 60 239 -8 216 -6 269 14 313 14 32 24 41 35 36 44 -18 261 -66 376
-83 208 -32 376 -43 598 -39 193 3 237 -1 186 -17 -50 -16 -119 -99 -119 -143
0 -17 -11 -20 -112 -25 -147 -8 -188 -16 -188 -35 0 -13 11 -14 73 -8 218 20
220 20 259 -6 l37 -25 -91 -7 c-50 -3 -127 -6 -170 -6 -68 0 -79 -2 -76 -16 3
-14 31 -16 233 -19 127 -1 313 -6 415 -10 278 -11 403 18 475 112 18 24 37 43
42 41 4 -1 48 -44 96 -95 l89 -92 -29 -59 -28 -59 -145 -8 c-153 -8 -197 -18
-168 -39 12 -9 37 -10 85 -5 37 5 103 8 146 8 70 1 77 -1 77 -19 0 -33 20 -64
55 -88 62 -43 120 -55 275 -56 161 -1 249 17 363 75 48 24 70 29 130 29 77 0
123 18 101 39 -7 8 -26 8 -63 1 -76 -14 -78 -13 -47 19 33 34 65 38 420 50
182 7 240 12 247 22 4 8 5 17 0 22 -7 7 -388 -6 -538 -20 -79 -6 -89 1 -53 37
17 17 33 20 123 20 104 0 136 8 122 30 -6 10 -35 11 -117 7 -102 -6 -109 -5
-103 11 26 67 47 197 47 289 -1 126 -14 173 -65 225 -43 45 -164 106 -264 133
-49 14 -63 22 -63 37 0 22 -27 78 -38 78 -4 0 -13 4 -21 9 -11 7 -1 27 49 92
34 46 76 107 92 136 16 29 34 53 38 53 5 0 44 34 89 75 75 72 83 76 143 86
123 20 257 89 338 175 52 55 66 88 56 129 -11 42 -45 51 -131 32 -77 -17 -151
-22 -179 -11 -10 4 -16 18 -16 35 0 43 -24 92 -54 112 -14 10 -49 23 -78 31
-37 9 -54 19 -60 35 -4 13 -19 91 -33 174 -17 101 -42 200 -75 300 -93 280
-149 368 -361 572 -148 142 -297 254 -412 309 -130 62 -326 139 -432 169 -200
57 -278 69 -495 72 -113 2 -230 0 -260 -6z m477 -123 c69 -17 75 -21 160 -105
91 -91 163 -197 163 -240 0 -25 -13 -39 -178 -187 -115 -102 -131 -107 -392
-108 -261 -1 -351 21 -514 128 -97 63 -236 201 -236 233 0 13 27 54 61 95 34
40 68 83 76 95 11 17 42 28 141 52 234 55 268 59 482 57 116 -2 186 -8 237
-20z m481 -213 c101 -86 126 -99 369 -193 139 -54 175 -80 305 -223 113 -124
114 -126 204 -372 43 -115 75 -248 109 -445 9 -52 23 -106 32 -121 16 -27 15
-28 -37 -88 -113 -130 -347 -280 -606 -387 -274 -113 -668 -191 -1020 -201
-520 -15 -938 93 -1241 322 -148 111 -243 228 -369 452 -56 100 -175 360 -174
381 0 4 27 -47 60 -113 33 -66 90 -160 128 -210 138 -182 253 -228 351 -140
73 66 373 641 406 778 23 97 16 117 -79 217 -44 47 -99 108 -120 134 -39 48
-39 48 -91 44 -32 -3 -82 -19 -130 -41 -201 -96 147 148 405 283 24 13 25 13
7 -11 -42 -59 -68 -110 -73 -141 -5 -29 0 -42 35 -85 109 -139 328 -287 483
-327 199 -51 556 -41 668 20 53 29 273 241 296 287 32 60 -19 181 -117 282
-21 23 -39 44 -39 48 0 19 151 -76 238 -150z m-3146 114 c127 -33 250 -92 314
-150 59 -53 111 -145 146 -257 34 -109 32 -273 -5 -427 -15 -61 -27 -133 -27
-160 0 -57 86 -363 155 -549 26 -71 75 -181 108 -244 l59 -115 -42 40 c-23 22
-76 87 -117 145 -104 144 -143 185 -143 147 0 -8 9 -22 21 -33 11 -10 54 -66
94 -124 40 -58 104 -140 141 -183 38 -43 82 -94 98 -112 l28 -33 -28 -38 -29
-37 -57 63 c-31 35 -85 108 -120 162 -206 324 -287 426 -420 533 -124 100
-148 123 -133 129 7 2 15 -4 18 -14 4 -17 62 -38 74 -26 13 12 -8 36 -32 36
-40 0 -29 17 19 29 51 12 127 74 111 90 -6 6 -39 1 -92 -14 -154 -45 -348 -43
-547 6 -108 26 -108 26 -16 49 25 7 111 46 192 88 147 76 147 76 169 56 11
-10 27 -31 35 -46 8 -16 21 -28 29 -28 23 0 18 59 -10 116 -25 51 -54 74 -124
99 -33 11 -42 11 -58 0 -17 -14 -16 -16 12 -39 l30 -24 -30 -13 c-44 -19 -263
-16 -348 4 -151 37 -282 120 -318 202 -44 103 -31 204 46 360 76 151 141 222
263 284 129 66 345 77 534 28z m3356 -134 c46 -24 81 -47 79 -50 -8 -7 -168
71 -197 96 l-25 21 30 -11 c17 -5 67 -31 113 -56z m-1953 -260 c10 -16 57 -65
104 -110 l85 -82 -12 -58 c-18 -91 -310 -663 -370 -726 -53 -56 -97 -44 -182
50 -106 119 -208 295 -217 376 l-4 42 26 -50 c66 -124 203 -264 283 -289 32
-10 78 22 130 93 51 68 202 362 232 450 l21 64 -56 55 c-30 30 -67 74 -81 98
-22 37 -31 44 -57 44 -18 0 -51 -9 -75 -20 -62 -28 -180 -112 -228 -162 -47
-48 -134 -173 -134 -191 0 -33 149 -203 203 -232 35 -19 36 -19 57 0 35 32
226 353 216 363 -8 8 -22 -9 -103 -123 -101 -140 -150 -194 -172 -188 -26 7
-161 159 -161 181 0 19 13 40 73 120 72 95 278 233 326 217 10 -3 25 -20 32
-37 7 -17 37 -56 66 -85 44 -43 53 -58 47 -76 -17 -55 -208 -421 -244 -466
-53 -67 -71 -76 -112 -55 -60 30 -180 163 -230 255 -27 47 -48 91 -48 96 0 18
129 195 184 251 78 80 214 170 315 207 53 20 67 18 86 -12z m-781 -563 c10 0
36 -39 36 -54 0 -2 -13 -6 -29 -9 -16 -3 -40 -9 -53 -12 -23 -6 -24 -4 -20 32
5 40 18 56 40 48 8 -3 19 -5 26 -5z m-1019 -29 l40 -7 -57 -22 c-104 -39 -104
-39 -100 7 4 44 -5 42 117 22z m1099 -128 c10 -27 18 -52 18 -57 -1 -8 -102
-45 -123 -46 -7 0 -43 120 -37 125 4 4 88 23 108 24 10 1 23 -17 34 -46z m56
-126 c0 -6 32 -70 70 -141 39 -70 70 -131 70 -135 0 -3 -12 -13 -28 -21 -15
-9 -53 -31 -84 -48 l-57 -33 -17 38 c-33 76 -105 286 -101 296 2 6 32 21 68
33 77 27 79 27 79 11z m3549 -278 c26 -9 31 -16 31 -44 l0 -33 -55 30 c-46 24
-54 33 -44 44 14 17 26 17 68 3z m-3266 -181 c31 -37 75 -82 97 -99 l39 -31
-87 -104 -86 -104 -28 27 c-61 58 -231 324 -216 338 2 2 41 26 88 54 l85 50
25 -31 c14 -18 51 -63 83 -100z m3287 42 c0 -35 -102 -210 -122 -210 -6 0 -45
31 -88 70 l-78 70 76 74 76 74 68 -35 c37 -19 68 -39 68 -43z m273 -43 c-12
-20 -188 -95 -199 -85 -2 3 1 20 7 39 6 19 12 39 14 44 1 6 41 10 93 10 49 0
88 -3 85 -8z m-523 -142 c43 -38 79 -73 79 -76 2 -14 -293 -209 -317 -209 -10
0 -137 199 -131 204 2 2 31 17 64 34 33 17 92 51 130 76 39 25 76 44 84 43 7
-1 48 -33 91 -72z m-2771 -84 c101 -64 177 -103 286 -145 50 -19 90 -38 90
-43 0 -25 -102 -273 -112 -273 -23 0 -192 78 -273 126 -89 53 -240 168 -240
183 0 11 158 201 167 201 3 0 40 -22 82 -49z m-788 -52 c20 -28 20 -30 3 -27
-13 2 -19 -3 -19 -17 0 -15 7 -20 26 -20 21 0 37 -13 72 -60 24 -33 56 -71 71
-84 14 -14 26 -28 26 -32 0 -4 -19 -29 -42 -56 -53 -61 -140 -196 -161 -249
-26 -68 -45 -181 -57 -339 -7 -82 -14 -152 -17 -155 -3 -3 -65 -5 -138 -4
-132 1 -291 19 -300 34 -3 5 18 29 46 53 56 49 61 77 13 77 -19 0 -43 -16 -82
-55 -54 -54 -56 -55 -89 -43 -18 7 -33 16 -33 20 0 9 74 48 93 48 7 0 22 6 32
14 16 12 17 16 6 30 -17 20 -61 21 -108 1 -35 -15 -36 -15 -20 3 9 10 52 31
94 46 121 42 115 33 172 260 62 245 125 386 216 479 55 56 151 120 166 111 5
-2 18 -18 30 -35z m3198 -79 c35 -56 62 -102 60 -104 -26 -23 -267 -124 -386
-161 l-72 -23 -29 82 c-41 114 -55 157 -50 160 1 2 44 15 93 29 50 15 140 46
200 71 61 25 112 45 115 45 3 1 34 -44 69 -99z m-500 -182 c22 -68 39 -124 37
-125 -5 -6 -355 -72 -412 -78 l-61 -7 -7 88 c-3 49 -9 107 -12 130 l-6 41 89
12 c48 7 140 23 203 36 63 13 118 23 122 24 4 1 25 -54 47 -121z m-1309 81
c58 -11 166 -26 239 -35 74 -8 137 -16 139 -19 2 -2 -3 -62 -12 -134 -9 -72
-16 -133 -16 -136 0 -9 -223 -6 -329 5 -89 9 -274 49 -286 62 -3 2 21 68 51
147 55 140 57 142 83 136 14 -4 73 -16 131 -26z m-869 -55 c105 -84 208 -149
348 -219 105 -52 106 -60 3 -85 -108 -28 -197 -102 -217 -183 -10 -38 11 -35
31 6 17 34 93 117 106 117 5 0 -1 -10 -13 -22 -12 -13 -31 -43 -43 -68 -19
-41 -21 -62 -21 -245 0 -190 -1 -202 -23 -248 -30 -60 -151 -182 -225 -226
-80 -47 -166 -80 -253 -97 -113 -21 -284 -17 -284 7 0 9 70 81 104 107 38 30
-11 54 -65 32 -30 -13 -119 -102 -119 -120 0 -5 -4 -10 -10 -10 -18 0 -120 42
-120 49 0 10 85 55 133 71 50 16 47 44 -5 48 -26 2 -63 -8 -119 -32 -45 -20
-84 -34 -86 -32 -12 12 17 39 65 62 87 41 182 105 251 170 l63 59 13 170 c18
220 30 290 64 362 31 64 151 228 227 310 27 29 57 61 66 73 10 11 21 20 26 20
4 0 51 -34 103 -76z m1660 9 c0 -5 6 -63 13 -130 l12 -122 -36 -5 c-63 -9
-359 -30 -364 -25 -2 2 3 66 12 141 l16 137 140 4 c78 1 156 4 174 5 17 1 32
-1 33 -5z m1193 -54 c-19 -28 -37 -63 -41 -78 -3 -14 -20 -53 -37 -86 -43 -83
-46 -94 -36 -100 5 -3 24 17 41 45 17 27 34 50 37 50 4 0 13 -9 20 -20 7 -11
22 -20 33 -20 16 0 19 -4 14 -17 -14 -34 -35 -118 -35 -140 0 -43 27 -25 34
22 4 24 11 47 15 49 14 9 164 -34 234 -66 78 -36 123 -81 133 -134 10 -56 -3
-200 -27 -284 -34 -123 -85 -198 -169 -247 -63 -38 -260 -86 -260 -65 0 22 22
68 43 90 19 20 19 24 6 38 -33 32 -92 -18 -118 -98 -14 -41 -28 -45 -115 -30
l-40 7 34 29 c19 16 46 33 60 39 38 16 59 37 53 53 -12 32 -121 -1 -176 -54
l-28 -27 10 26 c5 14 22 50 38 78 l28 52 52 -6 c34 -4 69 -1 102 9 29 8 79 18
112 22 61 7 83 24 61 46 -8 8 -40 6 -115 -6 -119 -21 -185 -13 -248 29 -66 43
-222 233 -272 332 -14 27 -15 32 -2 37 8 3 15 17 15 31 0 37 30 165 45 195 11
20 38 33 142 68 73 24 184 73 258 112 72 37 131 69 132 69 1 1 -14 -22 -33
-50z m-539 -216 c-8 -16 -21 -68 -28 -117 l-13 -88 -16 53 c-10 31 -16 77 -14
109 3 57 12 66 69 69 17 1 17 -1 2 -26z m-195 -71 c0 -28 -2 -29 -107 -55
-386 -95 -959 -102 -1383 -17 -58 12 -109 25 -113 29 -4 4 20 16 53 26 59 18
65 18 168 1 212 -36 572 -38 921 -6 68 6 125 9 127 7 2 -2 -33 -12 -78 -21
-108 -24 -108 -24 -108 -36 0 -21 38 -14 415 78 108 26 105 26 105 -6z m-293
-8 c-3 -3 -12 -4 -19 -1 -8 3 -5 6 6 6 11 1 17 -2 13 -5z m333 -141 c0 -10 14
-47 30 -81 17 -35 30 -69 30 -76 0 -6 -21 -35 -47 -63 -58 -62 -83 -70 -250
-79 -139 -8 -142 -6 -97 60 27 40 23 61 -12 54 -16 -3 -68 -62 -91 -103 -6 -9
-21 -12 -55 -8 -27 3 -48 9 -48 13 0 5 25 24 55 45 57 38 66 51 39 62 -18 7
-127 -43 -151 -69 -19 -21 -43 -24 -43 -5 0 7 24 25 53 40 45 24 55 35 73 80
l21 51 134 22 c74 13 177 33 229 47 120 31 130 31 130 10z M5445 6169 c-141
-11 -292 -34 -372 -58 -61 -18 -73 -26 -103 -68 -65 -89 -90 -126 -90 -134 0
-16 157 -173 214 -213 98 -69 145 -81 326 -81 162 1 315 24 423 65 54 21 160
103 207 161 l31 39 -27 42 c-33 52 -155 171 -210 204 -79 47 -193 59 -399 43z
m358 -67 c63 -31 201 -154 227 -201 11 -22 8 -28 -56 -88 -38 -35 -87 -72
-109 -83 -92 -44 -295 -80 -455 -80 -137 0 -220 20 -291 72 -62 44 -189 173
-189 191 0 27 90 138 123 152 92 38 386 75 564 71 114 -3 127 -5 186 -34z
M5789 6015 c64 -69 96 -119 88 -139 -7 -18 -201 -74 -297 -86 -46 -5 -112 -10
-147 -10 -57 0 -86 -11 -64 -24 4 -3 78 -9 162 -12 l154 -7 106 51 c58 29 116
63 128 76 23 25 23 25 5 55 -24 37 -164 160 -183 161 -7 0 14 -29 48 -65z
M5045 5970 l-37 -50 49 -44 c26 -24 72 -67 102 -95 52 -49 74 -60 85 -42 6 9
-78 100 -143 154 l-43 36 21 34 c44 72 18 78 -34 7z M6380 5733 c-49 -24 -283
-259 -311 -313 -33 -64 -30 -166 15 -430 20 -118 50 -305 65 -415 30 -206 49
-280 83 -327 42 -60 162 -103 255 -92 141 18 418 131 583 239 132 86 187 173
175 274 -8 64 -46 191 -82 271 -13 30 -58 137 -99 238 -167 410 -208 458 -467
541 -109 35 -166 38 -217 14z m213 -102 c218 -74 228 -87 402 -520 167 -417
180 -473 125 -550 -54 -74 -266 -190 -500 -273 -172 -61 -291 -44 -331 48 -12
25 -34 140 -55 276 -19 128 -48 312 -64 408 -16 96 -32 207 -36 247 -10 111
13 147 220 332 60 54 73 61 110 61 23 0 81 -13 129 -29z M6424 5594 c-43 -41
-138 -163 -158 -202 -27 -52 -30 -119 -11 -238 40 -265 142 -689 179 -744 13
-21 41 -44 66 -55 51 -23 90 -15 217 45 105 49 177 97 243 162 91 90 97 129
46 300 -19 62 -53 178 -75 258 -69 243 -125 359 -194 404 -59 38 -182 86 -235
93 -42 5 -51 2 -78 -23z m136 -26 c60 -18 164 -75 192 -105 40 -42 81 -140
128 -308 23 -82 57 -199 77 -259 65 -208 64 -224 -35 -318 -83 -79 -271 -182
-355 -194 -39 -6 -90 23 -110 63 -37 72 -162 652 -174 803 -7 92 2 116 87 228
90 118 91 119 190 90z M6508 5512 c-21 -4 -24 -22 -4 -22 27 0 154 -71 200
-111 26 -23 50 -39 53 -35 3 3 -2 24 -12 47 -16 34 -30 46 -84 74 -73 36 -127
53 -153 47z M6783 5118 c40 -158 49 -361 19 -418 -16 -30 -101 -101 -135 -113
-7 -2 -9 -8 -5 -12 16 -17 88 17 162 76 l77 61 -7 47 c-7 53 -70 320 -84 357
-12 31 -34 32 -27 2z M5110 5410 c-105 -8 -152 -29 -185 -84 -145 -234 -378
-677 -421 -800 -18 -50 -18 -147 0 -190 47 -114 207 -208 497 -295 243 -72
437 -97 639 -81 246 19 381 96 425 243 19 65 19 266 0 407 -21 160 -94 497
-122 570 -70 177 -136 211 -443 225 -262 12 -307 12 -390 5z m346 -90 c197
-12 283 -24 327 -47 52 -26 100 -172 161 -488 44 -227 60 -481 35 -556 -30
-88 -110 -142 -258 -175 -99 -22 -342 -14 -483 16 -271 57 -511 154 -604 244
-53 51 -54 54 -54 107 0 68 21 123 144 369 87 175 240 443 286 502 11 15 33
29 48 31 54 8 224 7 398 -3z M5059 5243 c-46 -52 -354 -653 -361 -702 -12 -82
21 -135 112 -181 212 -107 593 -198 790 -188 162 8 234 55 276 180 24 72 14
292 -21 493 -45 254 -82 332 -182 382 l-58 28 -270 3 c-252 3 -272 2 -286 -15z
m564 -34 c46 -12 102 -60 128 -110 49 -96 102 -436 97 -617 -3 -111 -5 -122
-33 -168 -41 -67 -97 -94 -209 -101 -138 -9 -366 33 -591 109 -238 80 -291
119 -281 203 4 41 103 243 258 529 l87 161 63 6 c86 8 434 -1 481 -12z M5145
5162 c-6 -4 -45 -77 -87 -162 -43 -85 -96 -179 -118 -209 -62 -81 -37 -76 42
9 55 59 83 101 129 195 l59 120 152 3 c83 1 155 5 161 9 22 13 -29 24 -165 33
-171 12 -161 11 -173 2z M5715 4828 c-2 -7 -6 -67 -9 -133 -6 -138 -22 -232
-45 -259 -37 -42 -153 -82 -256 -89 -23 -1 -38 -6 -35 -12 3 -6 55 -10 125
-10 130 0 147 5 215 63 l35 30 3 128 c4 148 -5 294 -19 294 -5 0 -11 -6 -14
-12z M2553 5981 c-22 -20 -59 -60 -82 -90 -46 -59 -133 -229 -125 -243 12 -19
25 -4 53 56 43 96 117 205 173 257 60 57 43 75 -19 20z M3047 5938 c-48 -13
-115 -78 -147 -143 -21 -42 -25 -65 -25 -141 0 -83 2 -94 30 -139 74 -120 256
-132 338 -23 66 87 81 215 37 316 -26 60 -86 117 -139 132 -41 11 -43 11 -94
-2z m117 -99 c36 -28 33 -74 -4 -74 -17 0 -29 8 -38 28 -16 34 -32 34 -73 0
-66 -56 -87 -158 -49 -241 15 -33 29 -47 62 -62 l43 -20 -33 0 c-46 0 -98 26
-124 62 -15 22 -22 50 -26 104 -4 64 -1 80 21 127 18 36 38 60 64 75 51 29
121 29 157 1z M2452 5440 c-29 -27 -28 -46 3 -66 48 -32 120 9 96 55 -20 36
-66 41 -99 11z M3330 4776 c0 -8 16 -24 36 -37 20 -12 44 -31 54 -42 12 -12
25 -17 36 -13 16 6 15 8 -1 26 -18 20 -107 80 -118 80 -4 0 -7 -6 -7 -14z
M4306 5505 c-113 -76 -171 -124 -131 -108 11 4 68 32 127 62 92 47 108 58 114
83 3 16 4 31 2 33 -2 2 -52 -29 -112 -70z M3247 3393 c-14 -14 -5 -24 46 -49
28 -14 60 -33 70 -42 13 -12 20 -13 29 -4 17 17 -5 38 -74 73 -64 32 -62 32
-71 22z M4066 3921 c-9 -15 23 -36 36 -23 5 5 7 15 4 21 -9 13 -33 14 -40 2z
M4410 3655 c0 -8 12 -17 28 -21 15 -3 45 -15 68 -25 45 -21 64 -24 64 -9 0 13
-117 70 -142 70 -10 0 -18 -7 -18 -15z M4292 3133 c3 -186 3 -188 -103 -313
-62 -74 -81 -113 -44 -93 28 16 136 149 160 197 27 55 30 94 18 269 -4 74 -9
97 -20 97 -12 0 -14 -27 -11 -157z M3710 3036 c0 -7 39 -32 86 -55 47 -22 99
-51 116 -62 34 -25 61 -13 33 15 -31 31 -103 75 -154 96 -61 24 -81 25 -81 6z
M6757 3084 c-16 -16 -4 -23 61 -34 80 -14 244 -10 249 6 3 8 -39 13 -129 17
-73 3 -142 9 -153 12 -11 3 -24 3 -28 -1z M5157 3084 c-14 -14 6 -24 49 -24
32 0 44 4 44 15 0 11 -11 15 -43 15 -24 0 -47 -3 -50 -6z M5504 2946 c-4 -9
-4 -20 -1 -23 10 -9 454 -16 560 -8 73 5 97 10 97 21 0 12 -48 14 -294 14
-161 0 -307 3 -325 6 -23 5 -32 2 -37 -10z M3030 2901 c-71 -5 -85 -9 -88 -24
-3 -17 4 -17 115 -11 135 7 183 15 186 29 2 12 -90 14 -213 6z M8117 2884
c-14 -15 -6 -34 14 -34 14 0 19 5 17 17 -3 18 -20 27 -31 17z"/>
</g>
</svg>
