<?xml version="1.0" encoding="UTF-8" standalone="no"?>
<svg xmlns="http://www.w3.org/2000/svg" xmlns:inkscape="http://www.inkscape.org/namespaces/inkscape" width="400" height="250" viewBox="0 0 400 250" version="1.1">
  <defs><linearGradient id="help-sky" x1="0" y1="0" x2="0" y2="1"><stop offset="0" stop-color="#d9eef8"/><stop offset="1" stop-color="#f7ead7"/></linearGradient><filter id="help-shadow" x="-30%" y="-30%" width="160%" height="170%"><feGaussianBlur stdDeviation="2.4"/></filter></defs>
  <g inkscape:groupmode="layer" inkscape:label="01 sky and gentle light" id="help-sky-layer"><rect width="400" height="250" fill="url(#help-sky)"/><circle cx="72" cy="43" r="22" fill="#ffe39a" opacity="0.48"/><circle cx="72" cy="43" r="13" fill="#fff5ca" opacity="0.88"/><path d="M278 48 C293 37 312 40 319 52 C329 42 348 44 354 58 C369 57 378 66 374 75 H268 C264 63 269 54 278 48Z" fill="#fff" opacity="0.42"/></g>
  <g inkscape:groupmode="layer" inkscape:label="02 layered forest depth" id="help-depth-layer"><path d="M0 119 C48 92 94 99 138 113 C185 88 233 95 273 112 C317 89 361 95 400 115 V191 H0Z" fill="#bad99b"/><path d="M0 144 C47 122 90 128 128 142 C174 117 223 124 261 145 C309 120 358 126 400 145 V202 H0Z" fill="#91c486"/><g fill="#67a478" stroke="#3a2461" stroke-width="2" stroke-linejoin="round" opacity="0.7"><path d="M18 133 L37 81 L55 133Z"/><path d="M56 135 L78 73 L100 135Z"/><path d="M289 135 L312 74 L335 135Z"/><path d="M343 137 L366 82 L389 137Z"/></g><g fill="#4f8e6d" opacity="0.46"><circle cx="140" cy="136" r="24"/><circle cx="184" cy="139" r="18"/><circle cx="247" cy="136" r="25"/></g></g>
  <g inkscape:groupmode="layer" inkscape:label="03 forest floor" id="help-ground-layer"><path d="M0 166 C64 149 123 157 176 172 C230 150 303 150 400 167 V250 H0Z" fill="#78b78b"/><path d="M0 208 C84 183 159 198 223 210 C292 186 348 191 400 206 V250 H0Z" fill="#529970"/><path d="M176 250 C198 226 227 211 266 199 C301 188 336 189 368 198 C335 203 306 214 286 228 C270 239 262 246 259 250Z" fill="#f1d7a7" stroke="#3a2461" stroke-width="2.2" opacity="0.92"/></g>
  <g inkscape:groupmode="layer" inkscape:label="04 framing trees" id="help-tree-layer"><path d="M31 210 C36 171 35 132 44 99" fill="none" stroke="#8b5a3c" stroke-width="12" stroke-linecap="round"/><path d="M43 139 C57 126 71 120 85 121" fill="none" stroke="#8b5a3c" stroke-width="6" stroke-linecap="round"/><g fill="#76b681" stroke="#3a2461" stroke-width="2.7"><circle cx="45" cy="88" r="29"/><circle cx="24" cy="112" r="21"/><circle cx="70" cy="111" r="25"/><circle cx="89" cy="137" r="18"/></g><path d="M371 210 C368 177 368 145 362 113" fill="none" stroke="#8b5a3c" stroke-width="10" stroke-linecap="round"/><g fill="#6eaa7d" stroke="#3a2461" stroke-width="2.5"><circle cx="361" cy="96" r="27"/><circle cx="337" cy="117" r="21"/><circle cx="383" cy="122" r="24"/></g></g>
  <g inkscape:groupmode="layer" inkscape:label="05 safe leafy shelter" id="help-shelter-layer"><ellipse cx="302" cy="230" rx="62" ry="8" fill="#3a2461" opacity="0.14" filter="url(#help-shadow)"/><path d="M255 222 C246 198 258 177 279 174 C285 154 308 149 324 162 C342 153 362 167 357 187 C373 200 367 220 350 226 C326 234 278 234 255 222Z" fill="#5aa173" stroke="#3a2461" stroke-width="3.5"/><g fill="#7fbd86" stroke="#3a2461" stroke-width="2.2"><circle cx="272" cy="190" r="20"/><circle cx="302" cy="173" r="22"/><circle cx="334" cy="184" r="23"/><circle cx="347" cy="208" r="18"/><circle cx="280" cy="214" r="21"/><circle cx="315" cy="211" r="24"/></g><ellipse cx="310" cy="205" rx="24" ry="20" fill="#385d4c" stroke="#3a2461" stroke-width="3"/></g>
  <g inkscape:groupmode="layer" inkscape:label="06 Biscuit ready for courage" id="help-biscuit-layer"><circle cx="309" cy="201" r="15" fill="#e8b04b" stroke="#3a2461" stroke-width="2.8"/><path d="M297 191 C290 195 291 208 299 212 L304 200Z M321 191 C328 195 327 208 319 212 L315 200Z" fill="#9c613d" stroke="#3a2461" stroke-width="2.1" stroke-linejoin="round"/><ellipse cx="309" cy="207" rx="9" ry="6.5" fill="#f4d28a"/><circle cx="304" cy="199" r="2" fill="#3a2461"/><circle cx="315" cy="199" r="2" fill="#3a2461"/><ellipse cx="309.5" cy="205" rx="2.5" ry="1.9" fill="#3a2461"/><path d="M309 208 q-4 4-8 0 M310 208 q4 4 8 0" fill="none" stroke="#3a2461" stroke-width="1.6" stroke-linecap="round"/></g>
  <g inkscape:groupmode="layer" inkscape:label="07 bubbles and soft song ideas" id="help-ideas-layer"><g fill="#bfe8f6" fill-opacity="0.48" stroke="#3a2461" stroke-width="1.8"><circle cx="231" cy="151" r="12"/><circle cx="257" cy="128" r="8"/><circle cx="276" cy="151" r="5"/></g><g fill="#fff" opacity="0.78"><circle cx="227" cy="147" r="3"/><circle cx="254" cy="125" r="2"/></g><path d="M205 170 v-24 l17-5 v24" fill="none" stroke="#3a2461" stroke-width="3.4" stroke-linecap="round" stroke-linejoin="round"/><ellipse cx="199" cy="171" rx="7" ry="5" fill="#f39ab7" stroke="#3a2461" stroke-width="2"/><ellipse cx="216" cy="166" rx="7" ry="5" fill="#f7c54a" stroke="#3a2461" stroke-width="2"/><path d="M244 184 l2.5 6 6 2.5-6 2.5-2.5 6-2.5-6-6-2.5 6-2.5Z" fill="#f7c54a" stroke="#3a2461" stroke-width="1.5"/></g>
  <g inkscape:groupmode="layer" inkscape:label="08 Princess Poppy offers help" id="help-poppy-layer"><ellipse cx="137" cy="232" rx="36" ry="7" fill="#3a2461" opacity="0.15" filter="url(#help-shadow)"/><path d="M114 182 C103 188 101 198 106 205 M158 181 C170 178 178 169 180 160" fill="none" stroke="#f6d3b3" stroke-width="6.5" stroke-linecap="round"/><circle cx="180" cy="158" r="4" fill="#f6d3b3" stroke="#3a2461" stroke-width="1.7"/><path d="M113 172 C116 160 124 154 136 154 C149 154 157 161 160 174 L164 218 C147 223 124 223 107 217Z" fill="#f36fa3" stroke="#3a2461" stroke-width="3.4" stroke-linejoin="round"/><path d="M118 174 C127 182 146 182 155 174 L158 204 C143 210 124 210 111 204Z" fill="#fb8eb6" opacity="0.72"/><path d="M126 219 v10 M148 219 v10" stroke="#5b4677" stroke-width="7" stroke-linecap="round"/><path d="M119 231 h15 M141 231 h15" stroke="#3a2461" stroke-width="5" stroke-linecap="round"/><circle cx="136" cy="136" r="20" fill="#f6d3b3" stroke="#3a2461" stroke-width="3.3"/><path d="M117 135 C113 118 124 109 138 109 C151 109 159 119 156 135 C150 126 143 122 133 122 C127 122 122 127 117 135Z" fill="#8a5a34" stroke="#3a2461" stroke-width="3" stroke-linejoin="round"/><path d="M119 129 q-8 8-2 18 M155 129 q8 8 2 18" fill="none" stroke="#8a5a34" stroke-width="5" stroke-linecap="round"/><circle cx="129" cy="137" r="2.1" fill="#3a2461"/><circle cx="143" cy="137" r="2.1" fill="#3a2461"/><path d="M131 146 q6 4 12 0" fill="none" stroke="#3a2461" stroke-width="2.2" stroke-linecap="round"/><path d="M115 117 H158 L153 109 H120Z" fill="#e8c07a" stroke="#3a2461" stroke-width="2.7" stroke-linejoin="round"/><path d="M123 109 L128 98 L136 107 L143 97 L150 109Z" fill="#f6c343" stroke="#3a2461" stroke-width="2.4" stroke-linejoin="round"/></g>
  <g inkscape:groupmode="layer" inkscape:label="09 foreground leaves" id="help-foreground-layer"><path d="M0 234 C19 224 36 227 53 240 V250 H0Z" fill="#38795d"/><path d="M400 232 C382 223 364 228 348 243 V250 H400Z" fill="#38795d"/><g fill="#75b68a" stroke="#3a2461" stroke-width="1.7"><ellipse cx="14" cy="230" rx="8" ry="15" transform="rotate(-28 14 230)"/><ellipse cx="33" cy="233" rx="8" ry="16" transform="rotate(22 33 233)"/><ellipse cx="373" cy="233" rx="8" ry="16" transform="rotate(-20 373 233)"/><ellipse cx="391" cy="228" rx="8" ry="15" transform="rotate(28 391 228)"/></g></g>
</svg>
