<?xml version="1.0" encoding="UTF-8" standalone="no"?>
<svg xmlns="http://www.w3.org/2000/svg" xmlns:inkscape="http://www.inkscape.org/namespaces/inkscape" width="400" height="250" viewBox="0 0 400 250" version="1.1">
  <defs><linearGradient id="where-sky" x1="0" y1="0" x2="0" y2="1"><stop offset="0" stop-color="#d9eef8"/><stop offset="1" stop-color="#f7ead7"/></linearGradient><linearGradient id="where-path" x1="0" y1="0" x2="1" y2="1"><stop offset="0" stop-color="#fff4d6"/><stop offset="1" stop-color="#e3be83"/></linearGradient><filter id="where-shadow" x="-30%" y="-30%" width="160%" height="170%"><feGaussianBlur stdDeviation="2.4"/></filter></defs>
  <g inkscape:groupmode="layer" inkscape:label="01 sky and guiding light" id="where-sky-layer"><rect width="400" height="250" fill="url(#where-sky)"/><circle cx="71" cy="43" r="22" fill="#ffe39a" opacity="0.5"/><circle cx="71" cy="43" r="13" fill="#fff5ca" opacity="0.9"/><path d="M270 48 C287 37 306 40 314 52 C324 42 344 44 350 58 C365 57 374 66 370 75 H260 C257 63 262 54 270 48Z" fill="#fff" opacity="0.4"/></g>
  <g inkscape:groupmode="layer" inkscape:label="02 layered forest depth" id="where-depth-layer"><path d="M0 119 C48 92 94 99 138 113 C185 88 233 95 273 112 C317 89 361 95 400 115 V191 H0Z" fill="#bad99b"/><path d="M0 144 C47 122 90 128 128 142 C174 117 223 124 261 145 C309 120 358 126 400 145 V202 H0Z" fill="#91c486"/><g fill="#67a478" stroke="#3a2461" stroke-width="2" stroke-linejoin="round" opacity="0.7"><path d="M18 133 L37 81 L55 133Z"/><path d="M56 135 L78 73 L100 135Z"/><path d="M289 135 L312 74 L335 135Z"/><path d="M343 137 L366 82 L389 137Z"/></g><g fill="#4f8e6d" opacity="0.46"><circle cx="140" cy="136" r="24"/><circle cx="184" cy="139" r="18"/><circle cx="247" cy="136" r="25"/></g></g>
  <g inkscape:groupmode="layer" inkscape:label="03 forked safe paths" id="where-path-layer"><path d="M0 166 C64 149 123 157 176 172 C230 150 303 150 400 167 V250 H0Z" fill="#78b78b"/><path d="M0 208 C84 183 159 198 223 210 C292 186 348 191 400 206 V250 H0Z" fill="#529970"/><path d="M171 250 C185 229 205 214 233 203 C254 195 267 184 274 167 C284 185 307 194 344 199 C316 205 294 215 280 230 C270 239 265 246 262 250Z" fill="url(#where-path)" stroke="#3a2461" stroke-width="2.2"/><path d="M218 238 C233 220 251 210 274 202 M281 201 C300 199 317 201 333 206" fill="none" stroke="#fff8df" stroke-width="3" stroke-linecap="round" opacity="0.65"/></g>
  <g inkscape:groupmode="layer" inkscape:label="04 framing trees" id="where-tree-layer"><path d="M31 210 C36 171 35 132 44 99" fill="none" stroke="#8b5a3c" stroke-width="12" stroke-linecap="round"/><path d="M43 139 C57 126 71 120 85 121" fill="none" stroke="#8b5a3c" stroke-width="6" stroke-linecap="round"/><g fill="#76b681" stroke="#3a2461" stroke-width="2.7"><circle cx="45" cy="88" r="29"/><circle cx="24" cy="112" r="21"/><circle cx="70" cy="111" r="25"/><circle cx="89" cy="137" r="18"/></g><path d="M368 210 C365 177 365 145 359 113" fill="none" stroke="#8b5a3c" stroke-width="10" stroke-linecap="round"/><path d="M359 151 C344 139 330 135 315 136" fill="none" stroke="#8b5a3c" stroke-width="6" stroke-linecap="round"/><g fill="#6eaa7d" stroke="#3a2461" stroke-width="2.5"><circle cx="359" cy="96" r="27"/><circle cx="335" cy="117" r="21"/><circle cx="381" cy="122" r="24"/></g></g>
  <g inkscape:groupmode="layer" inkscape:label="05 sparkly path clue" id="where-sparkle-layer" fill="#f7c54a" stroke="#3a2461" stroke-width="1.5"><path d="M245 191 l3 7 7 3-7 3-3 7-3-7-7-3 7-3Z"/><path d="M274 172 l2.5 6 6 2.5-6 2.5-2.5 6-2.5-6-6-2.5 6-2.5Z"/><path d="M222 215 l2 5 5 2-5 2-2 5-2-5-5-2 5-2Z"/></g>
  <g inkscape:groupmode="layer" inkscape:label="06 friendly owl choice" id="where-owl-layer"><path d="M317 137 C328 127 342 126 352 134 C364 143 363 161 351 170 C339 179 321 172 319 157Z" fill="#a777bb" stroke="#3a2461" stroke-width="3.2"/><path d="M321 138 L326 126 L334 135 L343 126 L350 139" fill="#a777bb" stroke="#3a2461" stroke-width="2.6" stroke-linejoin="round"/><path d="M321 150 C328 141 337 141 343 148 C350 141 358 144 360 151 C356 162 348 169 340 169 C331 169 323 161 321 150Z" fill="#d8bae1"/><circle cx="332" cy="149" r="6.2" fill="#fff" stroke="#3a2461" stroke-width="2"/><circle cx="348" cy="149" r="6.2" fill="#fff" stroke="#3a2461" stroke-width="2"/><circle cx="333" cy="150" r="2.5" fill="#3a2461"/><circle cx="347" cy="150" r="2.5" fill="#3a2461"/><path d="M337 157 L341 162 L345 157Z" fill="#f6c343" stroke="#3a2461" stroke-width="1.6" stroke-linejoin="round"/><path d="M329 170 l-2 7 M350 170 l3 7" stroke="#3a2461" stroke-width="2" stroke-linecap="round"/></g>
  <g inkscape:groupmode="layer" inkscape:label="07 Princess Poppy decides" id="where-poppy-layer"><ellipse cx="137" cy="232" rx="36" ry="7" fill="#3a2461" opacity="0.15" filter="url(#where-shadow)"/><path d="M114 182 C103 188 101 198 106 205 M158 181 C170 178 178 169 180 160" fill="none" stroke="#f6d3b3" stroke-width="6.5" stroke-linecap="round"/><circle cx="180" cy="158" r="4" fill="#f6d3b3" stroke="#3a2461" stroke-width="1.7"/><path d="M113 172 C116 160 124 154 136 154 C149 154 157 161 160 174 L164 218 C147 223 124 223 107 217Z" fill="#f36fa3" stroke="#3a2461" stroke-width="3.4" stroke-linejoin="round"/><path d="M118 174 C127 182 146 182 155 174 L158 204 C143 210 124 210 111 204Z" fill="#fb8eb6" opacity="0.72"/><path d="M126 219 v10 M148 219 v10" stroke="#5b4677" stroke-width="7" stroke-linecap="round"/><path d="M119 231 h15 M141 231 h15" stroke="#3a2461" stroke-width="5" stroke-linecap="round"/><circle cx="136" cy="136" r="20" fill="#f6d3b3" stroke="#3a2461" stroke-width="3.3"/><path d="M117 135 C113 118 124 109 138 109 C151 109 159 119 156 135 C150 126 143 122 133 122 C127 122 122 127 117 135Z" fill="#8a5a34" stroke="#3a2461" stroke-width="3" stroke-linejoin="round"/><path d="M119 129 q-8 8-2 18 M155 129 q8 8 2 18" fill="none" stroke="#8a5a34" stroke-width="5" stroke-linecap="round"/><circle cx="129" cy="137" r="2.2" fill="#3a2461"/><circle cx="143" cy="137" r="2.2" fill="#3a2461"/><ellipse cx="136" cy="146" rx="2.6" ry="3.1" fill="#3a2461"/><path d="M115 117 H158 L153 109 H120Z" fill="#e8c07a" stroke="#3a2461" stroke-width="2.7" stroke-linejoin="round"/><path d="M123 109 L128 98 L136 107 L143 97 L150 109Z" fill="#f6c343" stroke="#3a2461" stroke-width="2.4" stroke-linejoin="round"/></g>
  <g inkscape:groupmode="layer" inkscape:label="08 foreground leaves" id="where-foreground-layer"><path d="M0 234 C19 224 36 227 53 240 V250 H0Z" fill="#38795d"/><path d="M400 232 C382 223 364 228 348 243 V250 H400Z" fill="#38795d"/><g fill="#75b68a" stroke="#3a2461" stroke-width="1.7"><ellipse cx="14" cy="230" rx="8" ry="15" transform="rotate(-28 14 230)"/><ellipse cx="33" cy="233" rx="8" ry="16" transform="rotate(22 33 233)"/><ellipse cx="373" cy="233" rx="8" ry="16" transform="rotate(-20 373 233)"/><ellipse cx="391" cy="228" rx="8" ry="15" transform="rotate(28 391 228)"/></g></g>
</svg>
